<svg id="svg" version="1.1" xmlns="http://www.w3.org/2000/svg" xmlns:xlink="http://www.w3.org/1999/xlink" width="400" height="400" viewBox="0, 0, 400,400"><g id="svgg"><path id="path0" d="M172.803 95.195 C 172.540 95.687,172.413 98.544,172.470 102.701 C 172.587 111.175,173.340 110.400,164.990 110.400 C 157.273 110.400,157.200 110.426,157.200 113.160 C 157.200 114.945,157.907 115.124,165.202 115.180 C 168.826 115.207,171.950 115.390,172.146 115.586 C 172.342 115.782,172.473 119.086,172.436 122.928 C 172.361 130.911,172.547 131.476,175.119 131.058 C 177.037 130.747,176.941 131.152,176.972 123.215 C 176.989 118.765,177.160 115.880,177.421 115.619 C 177.675 115.365,180.580 115.159,184.736 115.099 C 192.123 114.993,192.380 114.918,192.394 112.874 C 192.410 110.465,192.205 110.400,184.610 110.400 C 176.235 110.400,177.017 111.223,176.933 102.316 C 176.897 98.420,176.751 95.045,176.610 94.816 C 176.129 94.038,173.270 94.323,172.803 95.195 M203.176 121.500 C 203.163 121.885,203.154 125.751,203.157 130.090 C 203.164 140.110,204.057 139.200,194.214 139.200 C 185.588 139.200,185.995 139.055,186.006 142.133 C 186.017 145.016,185.842 144.956,194.667 145.109 C 199.019 145.185,202.675 145.341,202.790 145.456 C 202.959 145.625,203.091 150.995,203.192 161.900 C 203.199 162.740,203.373 162.800,205.786 162.800 C 209.239 162.800,209.200 162.908,209.200 153.414 C 209.200 144.098,208.151 145.114,217.834 145.050 C 226.108 144.994,225.983 145.039,225.994 142.133 C 226.005 139.055,226.410 139.200,217.806 139.200 C 208.340 139.200,209.232 140.133,209.168 130.170 C 209.106 120.601,209.178 120.800,205.786 120.800 C 203.599 120.800,203.196 120.908,203.176 121.500 M172.536 152.480 C 172.351 152.766,172.110 156.420,172.000 160.600 L 171.800 168.200 164.606 168.400 L 157.412 168.600 157.179 170.038 C 156.698 173.003,156.636 172.976,164.640 173.200 L 171.800 173.400 171.899 180.600 C 172.018 189.203,172.147 189.600,174.825 189.600 C 177.253 189.600,177.200 189.782,177.200 181.400 C 177.200 172.263,176.335 173.200,184.763 173.200 C 192.576 173.200,192.800 173.133,192.800 170.800 C 192.800 168.473,192.561 168.400,184.944 168.400 C 176.636 168.400,177.450 169.305,177.200 159.800 L 177.000 152.200 174.936 152.080 C 173.568 152.001,172.758 152.136,172.536 152.480 " stroke="none" fill="#d65124" fill-rule="evenodd"></path><path id="path1" d="M204.800 88.151 C 204.800 94.147,204.984 93.936,199.619 94.085 C 196.223 94.180,195.408 94.323,195.052 94.889 C 194.229 96.197,195.326 96.600,199.720 96.603 C 205.077 96.607,204.800 96.301,204.800 102.216 L 204.800 107.185 205.819 107.440 C 207.313 107.816,207.376 107.613,207.462 102.138 C 207.556 96.122,207.124 96.622,212.333 96.502 C 217.344 96.387,217.697 96.292,217.528 95.102 C 217.405 94.238,217.201 94.191,212.732 94.000 C 207.124 93.760,207.622 94.206,207.572 89.373 C 207.513 83.684,207.388 83.200,205.968 83.200 L 204.800 83.200 204.800 88.151 M234.935 94.881 C 234.751 95.166,234.510 98.730,234.400 102.800 L 234.200 110.200 227.000 110.400 L 219.800 110.600 219.800 112.800 L 219.800 115.000 226.868 115.200 C 230.755 115.310,234.062 115.526,234.215 115.681 C 234.369 115.835,234.466 119.027,234.430 122.775 C 234.354 130.788,234.479 131.200,236.981 131.200 C 240.155 131.200,240.000 131.610,240.000 123.200 C 240.000 114.274,239.076 115.200,247.990 115.200 C 255.392 115.200,255.200 115.269,255.200 112.616 C 255.200 110.554,254.768 110.429,247.171 110.310 L 240.200 110.200 240.000 102.400 L 239.800 94.600 237.535 94.481 C 236.007 94.401,235.162 94.531,234.935 94.881 M251.974 128.303 C 251.281 128.788,251.199 129.358,251.194 133.723 C 251.186 139.908,251.500 139.549,245.985 139.686 L 241.400 139.800 241.279 141.451 C 241.087 144.087,241.675 144.400,246.829 144.400 L 251.200 144.400 251.200 149.371 C 251.200 155.266,251.427 155.709,254.349 155.520 L 256.200 155.400 256.298 150.800 C 256.446 143.911,255.986 144.493,261.414 144.334 C 266.456 144.188,266.783 144.033,266.794 141.780 C 266.804 139.827,266.262 139.600,261.600 139.600 C 256.197 139.600,256.400 139.836,256.400 133.544 C 256.400 129.906,256.257 128.355,255.900 128.124 C 255.103 127.608,252.818 127.712,251.974 128.303 M256.089 134.300 L 256.200 139.800 261.200 140.000 L 266.200 140.200 266.329 141.324 C 266.556 143.306,265.922 143.600,261.427 143.600 C 255.875 143.600,256.040 143.415,255.908 149.800 L 255.800 155.000 254.000 155.000 L 252.200 155.000 252.087 149.807 C 251.951 143.529,252.237 143.846,246.482 143.600 L 241.800 143.400 241.800 141.800 L 241.800 140.200 246.376 140.086 C 252.254 139.940,252.000 140.217,252.000 133.951 L 252.000 128.800 253.989 128.800 L 255.977 128.800 256.089 134.300 M155.886 129.848 C 155.729 130.005,155.600 132.253,155.600 134.843 C 155.600 140.469,155.861 140.196,150.477 140.214 C 146.113 140.228,145.479 140.491,145.698 142.200 C 145.792 142.937,146.145 143.009,150.176 143.114 C 155.791 143.261,155.600 143.059,155.600 148.835 C 155.600 154.031,156.067 155.035,158.000 154.000 C 158.731 153.609,158.800 153.162,158.800 148.835 C 158.800 143.059,158.609 143.261,164.224 143.114 L 168.600 143.000 168.724 141.927 C 168.876 140.612,167.911 139.996,165.970 140.169 C 165.217 140.236,163.340 140.181,161.800 140.045 L 159.000 139.800 158.800 134.800 L 158.600 129.800 157.386 129.681 C 156.718 129.616,156.043 129.691,155.886 129.848 M234.496 152.064 C 234.136 152.424,234.000 154.670,234.000 160.280 L 234.000 168.000 227.049 168.000 C 221.966 168.000,219.991 168.134,219.701 168.500 C 219.000 169.384,218.758 171.790,219.297 172.529 C 219.723 173.113,219.800 172.863,219.800 170.909 L 219.800 168.600 227.000 168.400 L 234.200 168.200 234.309 160.630 C 234.436 151.852,234.411 151.916,237.564 152.082 L 239.800 152.200 240.000 160.200 L 240.200 168.200 247.600 168.423 C 251.670 168.546,255.045 168.681,255.100 168.723 C 255.412 168.963,255.132 172.767,254.790 172.937 C 254.565 173.049,254.610 173.094,254.890 173.039 C 255.566 172.905,255.794 169.316,255.174 168.569 C 254.801 168.119,253.308 167.999,248.051 167.994 C 239.630 167.986,240.439 168.865,240.309 159.582 L 240.200 151.800 237.596 151.684 C 235.915 151.609,234.816 151.744,234.496 152.064 M233.500 173.465 C 233.876 173.616,234.000 175.578,234.000 181.353 C 234.000 189.189,234.147 190.000,235.569 190.000 C 235.994 190.000,235.910 189.812,235.289 189.377 C 234.422 188.770,234.400 188.561,234.400 180.977 C 234.400 173.825,234.344 173.203,233.700 173.232 C 233.282 173.250,233.201 173.344,233.500 173.465 M240.000 180.951 C 240.000 189.322,239.984 189.385,237.800 189.705 C 236.811 189.849,236.891 189.891,238.257 189.940 C 240.431 190.019,240.400 190.145,240.400 181.201 C 240.400 175.548,240.525 173.616,240.900 173.465 C 241.199 173.344,241.118 173.250,240.700 173.232 C 240.056 173.203,240.000 173.824,240.000 180.951 M203.800 175.279 C 203.696 175.566,203.563 178.050,203.505 180.800 L 203.400 185.800 198.732 186.000 C 193.455 186.226,193.399 186.252,193.457 188.471 C 193.514 190.639,193.874 190.787,199.089 190.794 L 203.577 190.800 203.689 196.300 L 203.800 201.800 206.000 201.800 L 208.200 201.800 208.313 196.825 C 208.454 190.617,208.246 190.852,213.724 190.713 L 218.171 190.600 218.546 189.291 C 219.350 186.482,218.634 186.000,213.658 186.000 C 208.254 186.000,208.455 186.226,208.313 179.975 L 208.200 175.000 206.096 174.879 C 204.640 174.795,203.932 174.919,203.800 175.279 M208.089 180.700 L 208.200 186.200 213.000 186.400 L 217.800 186.600 217.800 188.400 L 217.800 190.200 213.000 190.400 L 208.200 190.600 208.000 196.000 L 207.800 201.400 206.000 201.400 L 204.200 201.400 204.089 195.900 L 203.977 190.400 199.196 190.400 C 193.930 190.400,193.479 190.131,194.164 187.400 C 194.415 186.403,194.429 186.400,199.208 186.400 L 204.000 186.400 204.000 181.067 C 204.000 175.029,203.934 175.200,206.255 175.200 L 207.977 175.200 208.089 180.700 M202.089 223.423 L 201.200 224.045 201.200 260.413 L 201.200 296.782 202.109 297.377 C 203.766 298.463,210.050 297.903,209.968 296.676 C 209.946 296.333,209.881 296.339,209.735 296.700 C 209.523 297.226,203.473 297.433,202.233 296.957 C 201.264 296.585,201.264 224.215,202.233 223.843 C 202.581 223.709,204.381 223.600,206.233 223.600 L 209.600 223.600 209.686 228.700 L 209.773 233.800 209.900 228.804 C 210.010 224.445,209.938 223.744,209.337 223.304 C 208.322 222.562,203.198 222.646,202.089 223.423 M143.738 231.417 C 143.608 231.757,143.613 232.147,143.751 232.284 C 143.888 232.421,144.000 232.227,144.000 231.852 C 144.000 231.249,144.449 231.184,147.900 231.286 L 151.800 231.400 151.907 241.315 C 152.023 252.025,151.994 251.901,154.200 251.232 L 155.400 250.869 153.900 250.834 L 152.400 250.800 152.400 241.433 C 152.400 236.281,152.291 231.781,152.157 231.433 C 151.803 230.510,144.092 230.496,143.738 231.417 M143.697 259.871 C 143.613 283.404,143.680 287.215,144.186 287.671 C 145.682 289.020,146.055 289.200,147.360 289.200 C 148.126 289.200,148.864 289.380,149.000 289.600 C 149.136 289.820,149.822 289.991,150.524 289.981 L 151.800 289.962 150.200 289.431 C 149.320 289.139,147.748 288.675,146.708 288.400 C 143.837 287.642,144.016 289.465,143.900 259.762 L 143.794 232.600 143.697 259.871 M32.303 234.071 C 31.674 234.548,31.596 235.693,31.503 245.800 L 31.400 257.000 20.833 257.107 C 8.450 257.232,9.200 256.953,9.200 261.425 C 9.200 265.676,8.337 265.365,20.800 265.600 L 31.400 265.800 31.600 278.167 C 31.770 288.684,31.890 290.563,32.400 290.732 C 32.873 290.888,32.902 290.810,32.541 290.365 C 32.220 289.970,32.070 286.241,32.046 278.000 C 32.026 271.510,32.008 265.975,32.005 265.700 C 32.001 265.313,29.645 265.200,21.574 265.200 C 9.086 265.200,9.600 265.360,9.600 261.466 C 9.600 257.373,8.926 257.600,21.056 257.600 C 26.829 257.600,31.652 257.440,31.772 257.245 C 31.893 257.049,32.017 252.054,32.049 246.145 C 32.116 233.320,31.898 234.000,35.938 234.000 C 40.698 234.000,40.377 233.142,40.497 246.200 L 40.600 257.400 51.381 257.507 C 63.663 257.628,62.785 257.323,62.794 261.476 C 62.802 265.204,63.539 264.967,51.200 265.200 L 40.600 265.400 40.494 277.780 C 40.415 287.073,40.265 290.238,39.894 290.474 C 39.507 290.720,39.511 290.789,39.913 290.794 C 40.734 290.804,40.765 290.393,40.885 277.800 L 41.000 265.800 51.800 265.584 C 57.740 265.465,62.623 265.330,62.651 265.284 C 63.710 263.565,63.781 258.982,62.768 257.761 C 62.390 257.306,60.320 257.200,51.778 257.200 C 42.096 257.200,41.238 257.144,41.059 256.500 C 40.951 256.115,40.889 251.079,40.920 245.308 C 40.962 237.304,40.855 234.695,40.468 234.308 C 39.733 233.572,33.210 233.383,32.303 234.071 M209.789 261.600 C 209.789 276.890,209.839 283.145,209.900 275.500 C 209.961 267.855,209.961 255.345,209.900 247.700 C 209.839 240.055,209.789 246.310,209.789 261.600 M211.344 249.600 C 211.344 251.690,211.412 252.545,211.494 251.500 C 211.576 250.455,211.576 248.745,211.494 247.700 C 211.412 246.655,211.344 247.510,211.344 249.600 M109.044 250.495 C 108.238 251.525,107.929 251.689,107.535 251.295 C 107.263 251.023,106.772 250.800,106.444 250.800 C 105.997 250.800,106.042 250.947,106.624 251.387 C 107.829 252.299,109.122 252.159,109.272 251.100 C 109.418 250.070,115.567 249.526,117.197 250.399 C 117.639 250.635,118.000 250.707,118.000 250.558 C 118.000 248.660,110.522 248.607,109.044 250.495 M318.700 249.760 C 318.315 250.050,318.000 250.506,318.000 250.773 C 318.000 251.091,318.216 251.041,318.629 250.629 C 319.320 249.937,324.941 249.722,325.931 250.349 C 326.578 250.759,326.636 286.634,325.991 287.411 C 325.651 287.821,324.378 288.296,321.700 289.013 C 321.205 289.145,320.800 289.422,320.800 289.627 C 320.800 290.123,321.488 290.104,321.800 289.600 C 321.936 289.380,322.667 289.200,323.424 289.200 C 324.181 289.200,324.800 289.063,324.800 288.895 C 324.800 288.727,325.205 288.412,325.700 288.195 C 326.589 287.805,326.601 287.690,326.708 279.100 C 326.774 273.755,326.967 270.400,327.208 270.400 C 327.424 270.400,327.600 269.950,327.600 269.400 C 327.600 268.850,327.420 268.400,327.200 268.400 C 326.980 268.400,326.813 267.905,326.828 267.300 C 326.853 266.325,326.895 266.291,327.200 267.000 C 327.494 267.684,327.548 267.624,327.572 266.580 C 327.587 265.909,327.375 265.118,327.100 264.821 C 326.700 264.390,326.700 264.339,327.100 264.565 C 328.228 265.202,327.763 251.242,326.620 250.184 C 325.449 249.098,319.965 248.804,318.700 249.760 M94.001 250.300 C 94.001 250.465,96.521 250.614,99.601 250.632 C 102.680 250.650,105.200 250.515,105.200 250.332 C 105.200 250.149,102.680 250.000,99.600 250.000 C 96.520 250.000,94.000 250.135,94.001 250.300 M156.400 250.300 C 156.400 250.465,158.920 250.600,162.000 250.600 C 165.080 250.600,167.600 250.465,167.600 250.300 C 167.600 250.135,165.080 250.000,162.000 250.000 C 158.920 250.000,156.400 250.135,156.400 250.300 M246.400 250.326 C 246.400 250.505,248.740 250.644,251.600 250.635 C 254.460 250.625,256.800 250.478,256.800 250.309 C 256.800 250.139,254.460 250.000,251.600 250.000 C 248.740 250.000,246.400 250.147,246.400 250.326 M303.200 250.300 C 303.200 250.465,305.630 250.606,308.600 250.614 C 311.570 250.622,314.000 250.487,314.000 250.314 C 314.000 250.141,311.570 250.000,308.600 250.000 C 305.630 250.000,303.200 250.135,303.200 250.300 M89.835 251.735 C 87.460 253.047,82.800 257.778,82.800 258.877 C 82.800 259.134,83.498 258.409,84.351 257.266 C 86.097 254.925,88.783 252.732,91.304 251.587 C 92.266 251.151,92.654 250.829,92.200 250.844 C 91.760 250.859,90.696 251.260,89.835 251.735 M170.293 251.586 C 173.758 253.159,177.462 257.502,179.440 262.313 C 180.170 264.088,180.383 264.359,180.391 263.524 C 180.396 262.932,180.220 262.336,180.000 262.200 C 179.780 262.064,179.600 261.603,179.600 261.176 C 179.600 260.749,179.420 260.400,179.200 260.400 C 178.980 260.400,178.800 260.040,178.800 259.600 C 178.800 259.160,178.659 258.800,178.486 258.800 C 178.314 258.800,177.830 258.220,177.411 257.511 C 176.412 255.819,172.127 251.600,171.409 251.600 C 171.100 251.600,170.736 251.420,170.600 251.200 C 170.464 250.980,169.958 250.804,169.476 250.809 C 168.849 250.815,169.081 251.036,170.293 251.586 M243.400 251.200 C 243.264 251.420,242.803 251.600,242.376 251.600 C 241.949 251.600,241.600 251.780,241.600 252.000 C 241.600 252.220,241.389 252.400,241.131 252.400 C 240.347 252.400,234.800 258.634,234.800 259.515 C 234.800 259.714,234.488 260.490,234.107 261.239 C 232.962 263.487,232.412 265.315,232.406 266.900 C 232.403 267.725,232.220 268.400,232.000 268.400 C 231.778 268.400,231.600 269.459,231.600 270.776 C 231.600 272.083,231.780 273.264,232.000 273.400 C 232.220 273.536,232.403 274.042,232.406 274.524 C 232.413 275.560,233.307 278.253,233.790 278.693 C 233.975 278.862,234.003 278.654,233.850 278.232 C 230.244 268.245,234.735 255.789,243.400 251.742 C 244.736 251.118,245.109 250.807,244.524 250.804 C 244.042 250.802,243.536 250.980,243.400 251.200 M260.000 251.733 C 263.868 253.730,266.846 257.459,268.841 262.800 C 269.760 265.261,269.965 265.571,269.981 264.524 C 269.991 263.822,269.820 263.136,269.600 263.000 C 269.380 262.864,269.200 262.403,269.200 261.976 C 269.200 261.549,269.020 261.200,268.800 261.200 C 268.580 261.200,268.400 260.832,268.400 260.383 C 268.400 259.934,268.069 259.211,267.664 258.777 C 267.259 258.342,266.675 257.495,266.365 256.893 C 265.160 254.551,260.522 250.797,258.839 250.802 C 258.487 250.803,259.010 251.222,260.000 251.733 M298.800 251.661 C 298.030 252.103,296.950 252.938,296.400 253.517 C 295.850 254.095,295.760 254.274,296.200 253.914 C 296.640 253.555,298.053 252.707,299.341 252.030 C 300.628 251.354,301.348 250.813,300.941 250.828 C 300.533 250.844,299.570 251.219,298.800 251.661 M315.946 251.416 C 317.706 252.180,318.528 252.166,317.054 251.398 C 316.424 251.069,315.614 250.807,315.254 250.816 C 314.894 250.824,315.206 251.094,315.946 251.416 M347.867 251.067 C 347.376 251.557,347.561 278.823,348.065 280.372 C 348.979 283.180,349.339 283.813,350.561 284.774 L 351.800 285.749 350.781 284.574 C 348.254 281.662,348.021 279.980,348.010 264.533 C 348.002 254.287,348.114 251.221,348.500 251.065 C 348.779 250.952,348.809 250.849,348.567 250.832 C 348.328 250.814,348.013 250.920,347.867 251.067 M373.700 251.065 C 373.312 251.222,373.221 254.143,373.294 264.133 L 373.388 277.000 373.500 264.434 C 373.575 255.984,373.757 251.693,374.055 251.334 C 374.524 250.768,374.493 250.745,373.700 251.065 M381.990 251.063 C 382.967 251.548,382.479 277.908,381.436 280.969 C 380.616 283.375,380.590 283.611,381.238 282.769 C 381.647 282.236,381.986 281.521,381.991 281.180 C 381.996 280.839,382.182 280.378,382.405 280.155 C 383.052 279.508,382.745 251.096,382.090 250.963 C 381.810 250.906,381.764 250.952,381.990 251.063 M356.176 263.800 C 356.176 269.960,356.232 272.424,356.299 269.276 C 356.367 266.127,356.367 261.087,356.299 258.076 C 356.231 255.064,356.176 257.640,356.176 263.800 M294.195 255.832 C 293.758 256.399,293.116 257.373,292.770 257.996 C 292.423 258.619,291.838 259.588,291.470 260.150 C 291.101 260.712,290.800 261.448,290.800 261.786 C 290.800 262.124,290.620 262.400,290.400 262.400 C 290.180 262.400,290.018 263.075,290.041 263.900 C 290.081 265.383,290.085 265.386,290.377 264.200 C 290.803 262.469,293.368 257.538,294.610 256.062 C 295.193 255.368,295.518 254.800,295.330 254.800 C 295.143 254.800,294.632 255.264,294.195 255.832 M99.000 258.090 C 98.120 258.303,96.972 258.559,96.449 258.659 C 95.438 258.852,90.800 263.029,90.800 263.746 C 90.800 263.980,91.565 263.364,92.500 262.378 C 96.273 258.401,102.101 257.297,106.446 259.736 L 108.200 260.721 108.307 271.151 L 108.413 281.581 107.307 281.891 C 101.248 283.584,94.542 281.587,91.521 277.189 C 91.148 276.645,90.833 276.406,90.821 276.657 C 90.782 277.508,94.573 281.317,96.191 282.052 C 98.075 282.908,104.739 283.090,107.198 282.353 L 108.689 281.907 108.942 278.653 C 109.081 276.864,109.196 272.130,109.198 268.134 L 109.200 260.869 107.290 259.693 C 106.239 259.047,104.506 258.387,103.439 258.227 C 102.371 258.067,101.296 257.884,101.049 257.820 C 100.802 257.756,99.880 257.878,99.000 258.090 M158.200 258.101 C 155.650 258.594,153.076 259.551,154.220 259.579 C 154.671 259.591,155.227 259.413,155.455 259.185 C 156.117 258.523,163.568 258.660,165.256 259.366 C 166.992 260.091,170.000 262.883,170.000 263.769 C 170.000 264.116,170.180 264.400,170.400 264.400 C 170.620 264.400,170.800 265.300,170.800 266.400 C 170.800 267.500,170.980 268.400,171.200 268.400 C 171.420 268.400,171.600 269.289,171.600 270.376 C 171.600 271.463,171.420 272.464,171.200 272.600 C 170.980 272.736,170.800 273.456,170.800 274.200 C 170.800 274.944,170.620 275.664,170.400 275.800 C 170.180 275.936,170.000 276.397,170.000 276.824 C 170.000 277.251,169.820 277.600,169.600 277.600 C 169.380 277.600,169.200 277.804,169.200 278.053 C 169.200 278.629,167.163 280.399,166.500 280.400 C 166.225 280.400,166.000 280.544,166.000 280.720 C 166.000 281.133,163.887 281.857,161.600 282.227 C 160.610 282.387,160.043 282.602,160.339 282.705 C 160.636 282.808,161.896 282.677,163.141 282.413 C 175.028 279.890,174.911 259.905,163.000 258.295 C 162.120 258.176,161.130 257.997,160.800 257.896 C 160.470 257.796,159.300 257.888,158.200 258.101 M307.400 258.267 C 305.068 258.828,303.585 259.600,304.840 259.600 C 305.170 259.600,305.634 259.406,305.871 259.169 C 306.648 258.392,313.694 258.643,315.246 259.504 C 316.842 260.389,318.000 260.847,318.000 260.594 C 318.000 260.175,314.067 258.493,312.535 258.258 C 311.619 258.117,310.629 257.932,310.335 257.846 C 310.041 257.761,308.720 257.950,307.400 258.267 M249.800 258.350 C 246.723 259.153,242.000 263.285,242.000 265.174 C 242.000 265.463,245.013 265.600,251.400 265.600 L 260.800 265.600 260.800 264.542 C 260.800 260.447,254.769 257.052,249.800 258.350 M256.696 259.408 C 258.097 260.107,258.400 260.436,259.557 262.512 C 261.109 265.297,261.395 265.200,251.600 265.200 C 241.619 265.200,241.740 265.250,244.532 262.293 C 247.769 258.867,253.084 257.606,256.696 259.408 M152.243 260.233 C 152.109 260.581,152.000 265.450,152.000 271.053 L 152.000 281.241 153.500 281.883 C 154.325 282.236,155.990 282.582,157.200 282.652 L 159.400 282.780 157.000 282.249 C 155.680 281.956,154.105 281.515,153.500 281.269 L 152.400 280.820 152.400 270.610 C 152.400 264.070,152.544 260.400,152.800 260.400 C 153.020 260.400,153.200 260.220,153.200 260.000 C 153.200 259.367,152.511 259.535,152.243 260.233 M302.025 261.025 C 301.120 261.843,300.463 262.596,300.565 262.699 C 300.668 262.801,301.211 262.426,301.772 261.864 C 302.333 261.303,303.108 260.668,303.493 260.452 C 303.878 260.236,304.076 259.943,303.932 259.799 C 303.789 259.655,302.930 260.207,302.025 261.025 M81.842 261.637 C 81.489 262.344,81.200 263.245,81.200 263.638 C 81.200 264.031,81.020 264.464,80.800 264.600 C 80.564 264.746,80.400 267.145,80.400 270.447 C 80.400 274.079,80.541 275.960,80.800 275.800 C 81.024 275.661,81.200 275.975,81.200 276.515 C 81.200 277.474,82.348 280.185,82.634 279.900 C 82.716 279.817,82.340 278.321,81.798 276.575 C 80.431 272.174,80.437 267.823,81.815 263.718 C 82.892 260.508,82.905 259.504,81.842 261.637 M299.685 264.173 C 299.015 265.644,299.078 265.952,299.830 264.879 C 300.176 264.384,300.395 263.784,300.315 263.544 C 300.235 263.305,299.952 263.588,299.685 264.173 M90.303 265.200 C 89.831 266.817,89.915 267.989,90.438 267.090 C 90.665 266.699,90.793 265.889,90.723 265.290 L 90.595 264.200 90.303 265.200 M180.556 269.890 C 180.561 272.580,180.705 274.560,180.876 274.290 C 181.260 273.687,181.227 267.373,180.834 266.000 C 180.676 265.450,180.551 267.201,180.556 269.890 M289.377 266.550 C 288.903 268.436,289.792 278.000,290.440 278.000 C 290.638 278.000,290.800 278.450,290.800 279.000 C 290.800 279.550,290.958 280.000,291.151 280.000 C 291.345 280.000,291.726 280.537,291.998 281.194 C 292.499 282.405,296.462 286.800,297.052 286.800 C 297.228 286.800,296.462 285.855,295.350 284.700 C 291.220 280.413,289.189 274.425,289.785 268.300 C 290.046 265.623,289.836 264.722,289.377 266.550 M298.652 268.100 C 298.130 270.049,298.514 273.600,299.247 273.600 C 299.441 273.600,299.600 273.150,299.600 272.600 C 299.600 272.050,299.420 271.600,299.200 271.600 C 298.980 271.600,298.800 271.060,298.800 270.400 C 298.800 269.740,298.980 269.200,299.200 269.200 C 299.420 269.200,299.600 268.750,299.600 268.200 C 299.600 266.955,298.977 266.889,298.652 268.100 M270.067 269.467 C 269.923 272.177,270.938 272.000,255.545 272.000 C 240.677 272.000,240.479 272.027,241.554 273.876 C 241.924 274.510,241.977 274.464,241.988 273.500 L 242.000 272.400 255.751 272.400 C 271.038 272.400,270.579 272.484,270.293 269.728 C 270.149 268.343,270.128 268.319,270.067 269.467 M90.040 273.676 C 90.159 275.246,90.720 276.216,90.760 274.924 C 90.782 274.222,90.620 273.536,90.400 273.400 C 90.180 273.264,90.018 273.388,90.040 273.676 M242.016 275.328 C 241.931 279.187,248.868 283.381,254.865 283.098 L 257.800 282.959 254.524 282.879 C 252.722 282.836,251.136 282.620,251.000 282.400 C 250.864 282.180,250.223 282.000,249.576 282.000 C 248.929 282.000,248.400 281.820,248.400 281.600 C 248.400 281.380,248.130 281.200,247.800 281.200 C 247.470 281.200,247.200 281.020,247.200 280.800 C 247.200 280.580,246.930 280.400,246.600 280.400 C 246.270 280.400,246.000 280.220,246.000 280.000 C 246.000 279.780,245.724 279.600,245.387 279.600 C 245.051 279.600,244.659 279.285,244.517 278.900 C 244.375 278.515,244.112 278.100,243.933 277.979 C 243.753 277.857,243.253 277.047,242.819 276.179 C 242.350 275.237,242.025 274.894,242.016 275.328 M299.645 276.109 C 300.308 277.384,300.400 277.433,300.400 276.509 C 300.400 276.056,300.126 275.580,299.791 275.452 C 299.279 275.255,299.255 275.360,299.645 276.109 M179.696 277.227 C 179.265 278.900,178.215 281.007,176.520 283.600 C 175.890 284.565,175.904 284.562,176.933 283.517 C 177.520 282.922,178.000 282.247,178.000 282.017 C 178.000 281.788,178.136 281.600,178.302 281.600 C 178.469 281.600,178.806 281.105,179.052 280.500 C 180.230 277.599,180.460 276.809,180.319 276.132 C 180.229 275.695,179.977 276.137,179.696 277.227 M356.500 277.409 C 356.802 280.087,360.438 284.495,361.483 283.450 C 361.608 283.325,361.257 283.050,360.702 282.839 C 360.148 282.628,359.274 281.858,358.761 281.128 C 358.249 280.397,357.687 279.740,357.514 279.667 C 357.342 279.593,357.200 278.648,357.200 277.567 C 357.200 276.371,357.023 275.600,356.748 275.600 C 356.449 275.600,356.365 276.211,356.500 277.409 M300.767 278.338 C 301.800 280.269,306.728 282.828,309.304 282.772 C 311.041 282.734,309.606 282.069,307.700 282.028 C 306.985 282.013,306.400 281.820,306.400 281.600 C 306.400 281.380,306.027 281.200,305.571 281.200 C 304.589 281.200,303.600 280.311,303.600 279.429 C 303.600 279.083,303.409 278.800,303.176 278.800 C 302.943 278.800,302.864 278.980,303.000 279.200 C 303.136 279.420,303.102 279.594,302.924 279.587 C 302.363 279.565,301.200 278.532,301.200 278.056 C 301.200 277.805,301.014 277.600,300.786 277.600 C 300.507 277.600,300.501 277.842,300.767 278.338 M234.000 279.511 C 234.000 281.716,241.530 289.200,243.748 289.200 C 244.081 289.200,244.452 289.360,244.573 289.556 C 244.797 289.920,246.550 290.298,249.400 290.600 C 250.352 290.701,249.820 290.473,248.088 290.038 C 244.560 289.153,240.405 287.106,239.053 285.588 C 238.506 284.975,237.789 284.321,237.460 284.136 C 237.130 283.951,236.217 282.731,235.430 281.424 C 234.644 280.116,234.000 279.256,234.000 279.511 M266.400 280.000 C 266.400 280.220,266.051 280.400,265.624 280.400 C 265.197 280.400,264.736 280.580,264.600 280.800 C 264.464 281.020,263.943 281.200,263.443 281.200 C 262.943 281.200,262.401 281.335,262.239 281.500 C 262.077 281.665,261.012 282.005,259.872 282.255 C 257.933 282.681,257.893 282.713,259.250 282.755 C 260.698 282.800,263.011 282.137,265.542 280.951 C 267.347 280.106,267.663 280.532,267.778 283.971 C 267.893 287.386,267.694 287.699,264.600 288.976 C 262.748 289.740,262.446 289.970,263.276 289.983 C 263.868 289.992,264.464 289.820,264.600 289.600 C 264.736 289.380,265.197 289.200,265.624 289.200 C 266.051 289.200,266.400 289.049,266.400 288.864 C 266.400 288.680,266.850 288.323,267.400 288.073 C 269.267 287.222,268.701 279.600,266.771 279.600 C 266.567 279.600,266.400 279.780,266.400 280.000 M371.892 280.752 C 371.518 281.385,370.565 282.210,369.774 282.586 C 368.982 282.961,368.431 283.365,368.549 283.482 C 368.924 283.858,371.271 282.244,372.304 280.900 C 372.853 280.185,373.138 279.600,372.938 279.600 C 372.737 279.600,372.266 280.118,371.892 280.752 M82.800 281.095 C 82.800 281.918,83.084 282.381,84.800 284.359 C 85.130 284.739,86.300 285.658,87.400 286.402 C 88.500 287.145,89.460 287.899,89.533 288.077 C 89.607 288.255,90.012 288.400,90.433 288.400 C 90.855 288.400,91.200 288.580,91.200 288.800 C 91.200 289.020,91.639 289.200,92.176 289.200 C 92.713 289.200,93.264 289.380,93.400 289.600 C 93.536 289.820,94.222 289.994,94.924 289.986 C 96.103 289.972,96.048 289.916,94.200 289.248 C 89.231 287.451,84.891 284.424,83.629 281.874 C 83.003 280.608,82.801 280.418,82.800 281.095 M317.200 281.545 C 317.200 281.734,315.895 282.068,314.300 282.287 C 311.803 282.629,311.650 282.692,313.200 282.740 C 315.265 282.804,318.000 282.144,318.000 281.581 C 318.000 281.372,317.820 281.200,317.600 281.200 C 317.380 281.200,317.200 281.355,317.200 281.545 M378.033 285.735 C 376.915 286.689,374.965 287.978,373.700 288.599 C 372.323 289.275,371.633 289.807,371.980 289.924 C 372.299 290.032,372.629 289.913,372.713 289.660 C 372.798 289.407,373.124 289.200,373.439 289.200 C 373.997 289.200,375.601 288.430,376.000 287.970 C 376.110 287.843,376.891 287.276,377.735 286.709 C 379.092 285.798,380.765 284.000,380.255 284.000 C 380.151 284.000,379.151 284.781,378.033 285.735 M173.997 285.660 C 172.358 287.067,167.521 289.453,165.800 289.705 C 164.823 289.848,164.911 289.891,166.276 289.940 C 167.198 289.973,168.064 289.820,168.200 289.600 C 168.336 289.380,168.797 289.200,169.224 289.200 C 169.651 289.200,170.000 289.020,170.000 288.800 C 170.000 288.580,170.346 288.400,170.769 288.400 C 171.192 288.400,172.078 287.860,172.738 287.200 C 173.398 286.540,174.055 286.000,174.198 286.000 C 174.560 286.000,175.729 284.795,175.545 284.612 C 175.462 284.529,174.766 285.001,173.997 285.660 M351.600 286.383 C 351.600 286.612,351.836 286.800,352.125 286.800 C 352.413 286.800,352.998 287.115,353.425 287.500 C 353.851 287.885,354.740 288.446,355.400 288.747 C 356.060 289.047,356.913 289.452,357.295 289.647 C 358.184 290.099,358.400 290.092,358.400 289.608 C 358.400 289.392,357.905 289.097,357.300 288.952 C 356.695 288.808,356.020 288.566,355.800 288.414 C 354.147 287.273,351.600 286.042,351.600 286.383 M298.400 287.567 C 298.950 288.015,299.625 288.386,299.900 288.391 C 300.175 288.396,300.400 288.580,300.400 288.800 C 300.400 289.020,300.850 289.200,301.400 289.200 C 301.950 289.200,302.400 289.380,302.400 289.600 C 302.400 289.820,302.895 289.992,303.500 289.983 C 304.396 289.969,304.193 289.796,302.400 289.048 C 301.190 288.544,299.570 287.820,298.800 287.441 L 297.400 286.752 298.400 287.567 M116.000 288.024 C 115.230 288.430,114.229 288.770,113.776 288.781 C 112.695 288.806,111.058 289.968,112.076 289.987 C 112.448 289.994,112.864 289.820,113.000 289.600 C 113.136 289.380,113.867 289.200,114.624 289.200 C 115.381 289.200,116.000 289.040,116.000 288.843 C 116.000 288.647,116.450 288.374,117.000 288.236 C 117.550 288.098,118.000 287.808,118.000 287.592 C 118.000 287.073,117.670 287.144,116.000 288.024 M96.939 290.494 C 97.512 290.859,106.642 290.820,107.979 290.447 C 108.517 290.297,106.149 290.180,102.717 290.187 C 99.285 290.194,96.685 290.332,96.939 290.494 M153.200 290.436 C 154.541 290.817,163.279 290.865,163.861 290.494 C 164.115 290.332,161.595 290.189,158.261 290.176 C 154.927 290.162,152.650 290.279,153.200 290.436 M259.800 290.400 L 258.600 290.705 259.800 290.747 C 260.460 290.769,261.270 290.613,261.600 290.400 C 262.343 289.920,261.687 289.920,259.800 290.400 M306.541 290.494 C 307.125 290.868,315.871 290.816,317.200 290.430 C 317.750 290.271,315.474 290.154,312.141 290.170 C 308.809 290.187,306.289 290.332,306.541 290.494 M362.000 290.400 C 363.338 290.829,367.202 290.829,368.200 290.400 C 368.715 290.179,367.575 290.060,365.000 290.068 C 362.416 290.076,361.354 290.193,362.000 290.400 M35.091 291.089 C 35.801 291.177,37.061 291.179,37.891 291.092 C 38.721 291.005,38.140 290.933,36.600 290.931 C 35.060 290.929,34.381 291.000,35.091 291.089 M209.728 293.200 C 209.728 294.630,209.801 295.215,209.889 294.500 C 209.978 293.785,209.978 292.615,209.889 291.900 C 209.801 291.185,209.728 291.770,209.728 293.200 " stroke="none" fill="#6ba2b4" fill-rule="evenodd"></path><path id="path2" d="M235.467 152.667 C 235.320 152.813,235.200 156.287,235.200 160.387 C 235.200 169.614,235.981 168.800,227.120 168.800 L 220.000 168.800 220.000 170.791 L 220.000 172.782 227.500 172.891 L 235.000 173.000 235.200 180.800 L 235.400 188.600 237.300 188.722 L 239.200 188.844 239.200 181.455 C 239.200 171.779,238.275 172.800,247.043 172.800 L 254.400 172.800 254.400 170.800 L 254.400 168.800 247.214 168.800 C 238.422 168.800,239.150 169.582,239.218 160.214 C 239.246 156.376,239.153 153.047,239.011 152.818 C 238.728 152.360,235.894 152.239,235.467 152.667 M202.400 260.400 L 202.400 296.831 205.809 296.716 L 209.219 296.600 209.213 260.400 L 209.207 224.200 205.803 224.084 L 202.400 223.969 202.400 260.400 M144.332 232.285 C 144.259 232.458,144.310 239.350,144.446 247.600 C 144.582 255.850,144.717 268.116,144.746 274.857 C 144.796 286.129,144.856 287.137,145.500 287.391 C 154.670 291.019,167.858 290.333,172.819 285.972 C 173.359 285.497,174.375 284.666,175.077 284.124 C 176.429 283.082,179.200 278.190,179.200 276.844 C 179.200 276.406,179.380 275.936,179.600 275.800 C 180.259 275.393,180.088 265.685,179.386 263.671 C 177.661 258.718,173.953 254.013,170.313 252.160 C 167.952 250.958,156.878 250.707,154.271 251.796 C 151.274 253.048,151.125 252.518,151.233 241.030 L 151.317 232.200 147.891 232.085 C 146.007 232.022,144.406 232.112,144.332 232.285 M32.800 245.986 C 32.800 257.031,32.764 257.591,32.026 257.986 C 31.550 258.241,27.248 258.400,20.826 258.400 L 10.400 258.400 10.400 261.400 L 10.400 264.400 20.826 264.400 C 27.248 264.400,31.550 264.559,32.026 264.814 C 32.766 265.210,32.800 265.780,32.800 277.830 L 32.800 290.431 36.218 290.316 L 39.637 290.200 39.718 277.733 C 39.763 270.877,39.950 265.117,40.133 264.933 C 40.315 264.750,45.355 264.510,51.333 264.400 L 62.200 264.200 62.318 261.300 L 62.435 258.400 51.627 258.400 L 40.818 258.400 40.192 257.443 C 39.658 256.630,39.573 254.898,39.619 245.865 C 39.683 233.441,39.988 234.400,35.976 234.400 L 32.800 234.400 32.800 245.986 M109.749 251.100 C 109.667 251.375,109.516 251.870,109.413 252.200 C 109.149 253.043,107.893 252.946,106.676 251.988 C 105.082 250.735,94.023 250.769,91.507 252.036 C 87.471 254.068,83.200 258.621,83.200 260.893 C 83.200 261.288,83.042 261.923,82.849 262.305 C 80.610 266.738,81.426 277.388,84.371 282.153 C 88.350 288.591,101.751 291.648,112.555 288.582 C 114.664 287.983,116.567 287.280,116.784 287.019 C 117.169 286.556,117.449 251.315,117.071 250.937 C 116.608 250.475,109.890 250.624,109.749 251.100 M318.823 251.697 C 318.077 253.011,317.999 253.020,316.000 252.000 C 314.629 251.301,313.642 251.200,308.168 251.200 L 301.904 251.200 298.952 252.880 C 297.328 253.803,295.999 254.748,295.998 254.980 C 295.997 255.211,295.495 255.940,294.881 256.600 C 288.522 263.445,289.020 278.396,295.815 284.634 C 301.236 289.611,312.292 291.275,321.600 288.516 L 325.400 287.389 325.649 278.594 C 325.786 273.757,325.921 265.539,325.949 260.330 L 326.000 250.861 322.723 250.730 C 319.510 250.603,319.434 250.621,318.823 251.697 M242.918 252.591 C 238.311 255.155,233.627 262.002,233.606 266.203 C 233.603 266.864,233.437 267.974,233.238 268.669 C 232.136 272.509,235.461 282.825,238.202 284.074 C 238.703 284.302,239.323 284.882,239.580 285.363 C 240.157 286.440,245.674 289.101,248.515 289.672 C 254.341 290.843,258.805 290.498,264.200 288.458 L 267.000 287.399 267.120 284.639 C 267.284 280.853,267.181 280.678,265.321 281.585 C 256.079 286.090,241.615 282.394,241.602 275.524 C 241.601 274.932,241.420 274.336,241.200 274.200 C 240.513 273.776,240.759 272.050,241.567 271.618 C 242.049 271.360,247.215 271.214,255.467 271.226 C 262.690 271.236,268.825 271.235,269.100 271.222 C 269.681 271.196,269.824 266.186,269.254 265.833 C 269.064 265.716,268.808 265.007,268.687 264.258 C 267.335 255.929,261.120 251.197,251.542 251.205 L 245.400 251.209 242.918 252.591 M348.542 251.807 C 347.931 253.399,348.670 279.782,349.369 281.360 C 353.378 290.403,368.927 292.646,377.566 285.429 C 378.506 284.643,379.395 284.000,379.540 284.000 C 379.816 284.000,380.346 282.795,381.135 280.372 C 381.452 279.398,381.600 274.528,381.600 265.072 L 381.600 251.200 378.000 251.200 L 374.400 251.200 374.400 263.823 C 374.400 277.250,374.188 279.260,372.535 281.486 C 370.107 284.758,363.462 285.607,359.437 283.159 C 355.987 281.061,355.539 278.598,355.601 262.053 C 355.622 256.634,355.630 251.975,355.619 251.700 C 355.589 250.904,348.849 251.006,348.542 251.807 M105.374 258.042 C 105.828 258.244,106.920 258.838,107.800 259.364 L 109.400 260.319 109.513 270.460 C 109.662 283.945,110.094 283.200,102.120 283.200 C 95.619 283.200,91.414 280.628,90.023 275.800 C 89.324 273.375,89.317 265.939,90.011 264.439 C 90.276 263.868,90.622 263.138,90.779 262.817 C 92.773 258.760,100.955 256.083,105.374 258.042 M162.880 257.647 C 175.321 260.268,176.157 279.404,163.977 282.759 C 160.240 283.788,152.556 282.866,151.772 281.295 C 151.182 280.110,151.047 261.763,151.619 260.367 C 152.171 259.018,155.974 257.622,160.080 257.260 C 160.454 257.227,161.714 257.401,162.880 257.647 M257.117 258.658 C 260.059 260.364,262.354 264.410,261.181 265.823 C 260.769 266.320,259.179 266.397,251.245 266.307 L 241.800 266.200 241.679 265.155 C 241.587 264.366,242.053 263.569,243.585 261.893 C 247.743 257.344,252.775 256.141,257.117 258.658 M316.073 258.883 C 319.026 260.442,318.899 259.781,318.570 271.875 L 318.286 282.350 317.199 282.800 C 316.026 283.286,307.895 283.147,305.800 282.605 C 302.936 281.864,299.818 278.505,298.739 275.000 C 295.064 263.064,305.540 253.323,316.073 258.883 " stroke="none" fill="#042a92" fill-rule="evenodd"></path><path id="path3" d="M252.000 133.951 C 252.000 140.217,252.254 139.940,246.376 140.086 L 241.800 140.200 241.800 141.800 L 241.800 143.400 246.482 143.600 C 252.237 143.846,251.951 143.529,252.087 149.807 L 252.200 155.000 254.000 155.000 L 255.800 155.000 255.908 149.800 C 256.040 143.415,255.875 143.600,261.427 143.600 C 265.922 143.600,266.556 143.306,266.329 141.324 L 266.200 140.200 261.200 140.000 L 256.200 139.800 256.089 134.300 L 255.977 128.800 253.989 128.800 L 252.000 128.800 252.000 133.951 M234.873 152.512 C 234.578 152.868,234.380 155.716,234.309 160.630 L 234.200 168.200 227.000 168.400 L 219.800 168.600 219.800 170.800 L 219.800 173.000 227.100 173.109 L 234.400 173.218 234.400 180.986 C 234.400 189.823,234.527 190.175,237.543 189.712 C 240.031 189.331,240.000 189.440,240.000 180.951 L 240.000 173.200 246.967 173.200 C 255.414 173.200,255.200 173.264,255.200 170.757 C 255.200 168.357,256.264 168.684,247.600 168.423 L 240.200 168.200 240.000 160.200 L 239.800 152.200 237.564 152.082 C 236.037 152.001,235.184 152.138,234.873 152.512 M239.011 152.818 C 239.153 153.047,239.246 156.376,239.218 160.214 C 239.150 169.582,238.422 168.800,247.214 168.800 L 254.400 168.800 254.400 170.800 L 254.400 172.800 247.043 172.800 C 238.275 172.800,239.200 171.779,239.200 181.455 L 239.200 188.844 237.300 188.722 L 235.400 188.600 235.200 180.800 L 235.000 173.000 227.500 172.891 L 220.000 172.782 220.000 170.791 L 220.000 168.800 227.120 168.800 C 235.981 168.800,235.200 169.614,235.200 160.387 C 235.200 156.287,235.320 152.813,235.467 152.667 C 235.894 152.239,238.728 152.360,239.011 152.818 M204.267 175.467 C 204.120 175.613,204.000 178.133,204.000 181.067 L 204.000 186.400 199.208 186.400 C 194.429 186.400,194.415 186.403,194.164 187.400 C 193.479 190.131,193.930 190.400,199.196 190.400 L 203.977 190.400 204.089 195.900 L 204.200 201.400 206.000 201.400 L 207.800 201.400 208.000 196.000 L 208.200 190.600 213.000 190.400 L 217.800 190.200 217.800 188.400 L 217.800 186.600 213.000 186.400 L 208.200 186.200 208.089 180.700 L 207.977 175.200 206.255 175.200 C 205.308 175.200,204.413 175.320,204.267 175.467 M202.100 223.865 C 201.250 224.208,201.381 296.630,202.233 296.957 C 203.495 297.442,209.599 297.229,209.614 296.700 C 209.741 292.039,209.530 224.997,209.388 224.854 C 209.278 224.744,209.196 240.842,209.207 260.627 L 209.227 296.600 205.814 296.716 L 202.400 296.831 202.400 260.387 L 202.400 223.943 206.001 224.072 C 207.981 224.142,209.601 224.065,209.601 223.900 C 209.600 223.571,202.906 223.540,202.100 223.865 M143.882 232.009 C 143.709 232.669,143.775 232.753,144.193 232.406 C 144.511 232.142,146.037 232.013,148.020 232.083 L 151.317 232.200 151.233 241.030 C 151.125 252.518,151.274 253.048,154.271 251.796 C 156.878 250.707,167.952 250.958,170.313 252.160 C 173.953 254.013,177.661 258.718,179.386 263.671 C 180.088 265.685,180.259 275.393,179.600 275.800 C 179.380 275.936,179.200 276.406,179.200 276.844 C 179.200 278.190,176.429 283.082,175.077 284.124 C 174.375 284.666,173.359 285.497,172.819 285.972 C 167.858 290.333,154.670 291.019,145.500 287.391 C 144.856 287.137,144.796 286.128,144.745 274.857 C 144.714 268.116,144.569 255.940,144.421 247.800 C 144.171 233.996,144.148 234.821,144.077 260.051 C 144.015 281.909,144.100 287.185,144.523 287.536 C 144.811 287.775,146.026 288.236,147.223 288.561 C 148.420 288.885,149.953 289.320,150.629 289.527 C 159.242 292.164,172.353 288.934,176.777 283.086 C 181.177 277.270,181.985 267.371,178.617 260.555 C 174.448 252.119,168.158 249.255,157.200 250.801 C 155.330 251.065,153.440 251.307,153.000 251.340 C 152.225 251.398,152.194 251.092,152.000 241.400 L 151.800 231.400 147.950 231.286 C 144.333 231.179,144.087 231.223,143.882 232.009 M32.467 234.700 C 32.268 235.085,32.080 240.235,32.049 246.145 C 32.017 252.054,31.893 257.049,31.772 257.245 C 31.652 257.440,26.829 257.600,21.056 257.600 C 8.926 257.600,9.600 257.373,9.600 261.466 C 9.600 265.360,9.086 265.200,21.574 265.200 C 29.645 265.200,32.001 265.313,32.005 265.700 C 32.008 265.975,32.026 271.510,32.046 278.000 C 32.087 291.679,31.805 290.802,36.149 290.794 C 40.761 290.785,40.373 291.948,40.494 277.780 L 40.600 265.400 51.200 265.200 C 63.539 264.967,62.802 265.204,62.794 261.476 C 62.785 257.323,63.663 257.628,51.381 257.507 L 40.600 257.400 40.497 246.200 C 40.377 233.142,40.698 234.000,35.938 234.000 C 33.381 234.000,32.764 234.124,32.467 234.700 M39.413 234.821 C 39.557 235.053,39.649 240.023,39.619 245.865 C 39.573 254.898,39.658 256.630,40.192 257.443 L 40.818 258.400 51.627 258.400 L 62.435 258.400 62.318 261.300 L 62.200 264.200 51.333 264.400 C 45.355 264.510,40.315 264.750,40.133 264.933 C 39.950 265.117,39.763 270.877,39.718 277.733 L 39.637 290.200 36.218 290.316 L 32.800 290.431 32.800 277.830 C 32.800 265.780,32.766 265.210,32.026 264.814 C 31.550 264.559,27.248 264.400,20.826 264.400 L 10.400 264.400 10.400 261.400 L 10.400 258.400 20.826 258.400 C 27.248 258.400,31.550 258.241,32.026 257.986 C 32.764 257.591,32.800 257.031,32.800 245.986 L 32.800 234.400 35.976 234.400 C 37.770 234.400,39.266 234.583,39.413 234.821 M109.467 250.267 C 109.320 250.413,109.200 250.863,109.200 251.267 C 109.200 252.204,107.926 252.232,106.543 251.326 C 104.828 250.202,94.046 250.309,91.513 251.475 C 87.724 253.219,82.800 258.073,82.800 260.064 C 82.800 260.459,82.350 262.124,81.800 263.762 C 79.336 271.104,81.720 281.476,86.745 285.273 C 91.992 289.237,97.499 290.719,105.000 290.183 C 107.420 290.010,109.850 289.838,110.400 289.801 C 110.951 289.765,111.794 289.524,112.274 289.267 C 112.754 289.010,113.431 288.800,113.778 288.800 C 114.125 288.800,115.217 288.420,116.204 287.956 L 118.000 287.112 118.000 268.970 C 118.000 251.443,117.974 250.814,117.226 250.414 C 116.379 249.961,109.896 249.837,109.467 250.267 M318.664 250.593 C 318.338 250.919,318.001 251.397,317.915 251.656 C 317.802 251.993,317.198 251.911,315.779 251.364 C 314.151 250.736,312.764 250.603,307.956 250.612 L 302.112 250.623 299.433 251.983 C 290.449 256.543,286.898 271.281,292.435 281.027 C 294.823 285.232,300.594 289.162,305.468 289.903 C 309.614 290.533,320.258 290.123,321.129 289.300 C 321.419 289.025,321.982 288.800,322.380 288.800 C 323.259 288.800,325.864 287.744,326.158 287.268 C 326.685 286.416,326.465 250.687,325.931 250.349 C 324.978 249.745,319.322 249.935,318.664 250.593 M117.071 250.937 C 117.449 251.315,117.169 286.556,116.784 287.019 C 115.639 288.399,108.845 289.671,102.659 289.663 C 95.658 289.655,92.325 288.674,87.597 285.231 C 84.341 282.860,83.741 281.847,82.175 276.080 C 81.127 272.220,81.479 265.017,82.849 262.305 C 83.042 261.923,83.200 261.288,83.200 260.893 C 83.200 258.621,87.471 254.068,91.507 252.036 C 94.023 250.769,105.082 250.735,106.676 251.988 C 107.893 252.946,109.149 253.043,109.413 252.200 C 109.516 251.870,109.667 251.375,109.749 251.100 C 109.890 250.624,116.608 250.475,117.071 250.937 M247.200 250.768 C 234.235 252.239,227.317 274.875,237.122 283.740 C 237.645 284.213,238.525 285.083,239.079 285.673 C 243.882 290.798,257.066 292.302,265.292 288.665 C 267.845 287.536,267.892 287.445,267.782 283.869 C 267.676 280.424,267.383 280.118,265.148 281.118 C 259.931 283.450,251.841 283.806,247.910 281.876 C 244.714 280.306,242.826 278.029,241.630 274.302 C 240.872 271.938,240.496 272.000,255.581 272.000 C 271.368 272.000,270.000 272.342,270.000 268.391 C 270.000 262.289,264.933 253.955,259.800 251.612 C 257.926 250.757,251.244 250.309,247.200 250.768 M325.949 260.330 C 325.921 265.539,325.786 273.757,325.649 278.594 L 325.400 287.389 321.600 288.516 C 312.292 291.275,301.236 289.611,295.815 284.634 C 289.020 278.396,288.522 263.445,294.881 256.600 C 295.495 255.940,295.997 255.211,295.998 254.980 C 295.999 254.748,297.328 253.803,298.952 252.880 L 301.904 251.200 308.168 251.200 C 313.642 251.200,314.629 251.301,316.000 252.000 C 317.999 253.020,318.077 253.011,318.823 251.697 C 319.434 250.621,319.510 250.603,322.723 250.730 L 326.000 250.861 325.949 260.330 M348.500 251.065 C 347.839 251.332,347.785 276.560,348.440 279.611 C 349.379 283.991,353.072 287.878,357.303 288.940 C 357.906 289.091,358.400 289.364,358.400 289.545 C 358.400 289.727,361.275 289.893,364.788 289.913 L 371.176 289.951 373.641 288.639 C 381.895 284.247,382.164 283.527,382.319 265.436 C 382.457 249.377,382.887 250.815,377.949 250.806 C 373.344 250.798,373.693 249.627,373.536 265.632 L 373.400 279.463 372.279 280.932 C 370.570 283.172,369.400 283.600,364.982 283.600 C 356.764 283.600,355.990 281.786,356.040 262.668 C 356.056 256.546,355.980 251.447,355.871 251.337 C 355.559 251.026,355.537 271.544,355.844 275.612 C 356.350 282.313,360.734 285.800,366.900 284.405 C 373.966 282.806,374.400 281.615,374.400 263.823 L 374.400 251.200 378.000 251.200 L 381.600 251.200 381.600 265.072 C 381.600 274.528,381.452 279.398,381.135 280.372 C 380.346 282.795,379.816 284.000,379.540 284.000 C 379.395 284.000,378.506 284.643,377.566 285.429 C 368.827 292.730,353.072 290.337,349.314 281.138 C 348.681 279.588,348.604 277.887,348.602 265.400 L 348.600 251.400 352.000 251.175 L 355.400 250.949 352.200 250.906 C 350.440 250.882,348.775 250.954,348.500 251.065 M259.691 252.208 C 263.735 254.239,267.985 259.931,268.687 264.258 C 268.808 265.007,269.064 265.716,269.254 265.833 C 269.824 266.186,269.681 271.196,269.100 271.222 C 268.825 271.235,262.690 271.236,255.467 271.226 C 247.215 271.214,242.049 271.360,241.567 271.618 C 240.759 272.050,240.513 273.776,241.200 274.200 C 241.420 274.336,241.601 274.932,241.602 275.524 C 241.615 282.394,256.079 286.090,265.321 281.585 C 267.181 280.678,267.284 280.853,267.120 284.639 L 267.000 287.399 264.200 288.458 C 258.805 290.498,254.341 290.843,248.515 289.672 C 245.674 289.101,240.157 286.440,239.580 285.363 C 239.323 284.882,238.703 284.302,238.202 284.074 C 235.461 282.825,232.136 272.509,233.238 268.669 C 233.437 267.974,233.603 266.864,233.606 266.203 C 233.627 262.002,238.311 255.155,242.918 252.591 L 245.400 251.209 251.542 251.205 C 257.314 251.200,257.805 251.261,259.691 252.208 M97.914 257.742 C 95.688 258.236,91.602 261.143,90.779 262.817 C 90.622 263.138,90.276 263.868,90.011 264.439 C 89.317 265.939,89.324 273.375,90.023 275.800 C 91.414 280.628,95.619 283.200,102.120 283.200 C 110.094 283.200,109.662 283.945,109.513 270.460 L 109.400 260.319 107.800 259.364 C 104.488 257.386,101.626 256.917,97.914 257.742 M158.200 257.475 C 151.479 258.344,151.178 258.927,151.266 270.910 C 151.357 283.184,151.078 282.720,158.577 283.086 C 168.688 283.580,173.745 277.534,172.201 266.800 C 171.550 262.278,167.915 258.708,162.880 257.647 C 160.756 257.199,160.428 257.187,158.200 257.475 M250.400 257.567 C 246.762 258.358,241.429 262.999,241.679 265.155 L 241.800 266.200 251.245 266.307 C 261.681 266.425,261.921 266.372,261.409 264.040 C 260.476 259.791,254.994 256.568,250.400 257.567 M307.000 257.744 C 297.226 260.204,294.559 274.743,302.751 280.904 C 305.415 282.907,314.168 284.056,317.199 282.800 L 318.286 282.350 318.570 271.875 C 318.727 266.114,318.740 261.104,318.601 260.741 C 317.751 258.541,310.883 256.766,307.000 257.744 M103.439 258.227 C 104.506 258.387,106.239 259.047,107.290 259.693 L 109.200 260.869 109.198 268.134 C 109.196 272.130,109.081 276.864,108.942 278.653 L 108.689 281.907 107.198 282.353 C 97.216 285.344,89.914 280.066,89.963 269.896 C 89.989 264.345,92.877 259.342,96.449 258.659 C 96.972 258.559,98.120 258.303,99.000 258.090 C 99.880 257.878,100.802 257.756,101.049 257.820 C 101.296 257.884,102.371 258.067,103.439 258.227 M163.000 258.295 C 174.909 259.905,175.028 279.890,163.143 282.412 C 160.309 283.014,155.472 282.754,153.500 281.895 L 152.000 281.241 152.006 270.920 C 152.009 265.244,152.144 260.405,152.306 260.167 C 152.877 259.326,159.624 257.516,160.800 257.889 C 161.130 257.993,162.120 258.176,163.000 258.295 M312.535 258.258 C 313.451 258.398,315.055 258.941,316.100 259.463 L 318.000 260.413 318.000 271.188 L 318.000 281.962 316.500 282.379 C 308.857 284.502,298.377 279.733,299.511 274.648 C 299.603 274.234,299.436 273.746,299.139 273.563 C 298.374 273.090,298.389 267.701,299.157 267.226 C 299.501 267.014,299.624 266.537,299.479 265.982 C 298.629 262.731,306.597 256.759,310.335 257.846 C 310.629 257.932,311.619 258.117,312.535 258.258 M257.376 259.294 C 259.001 260.360,260.800 263.117,260.800 264.542 L 260.800 265.600 251.400 265.600 C 241.694 265.600,241.557 265.575,242.419 263.964 C 245.049 259.051,253.147 256.522,257.376 259.294 " stroke="none" fill="#456eab" fill-rule="evenodd"></path><path id="path4" d="M203.893 81.598 C 202.852 82.417,202.821 82.566,202.712 87.319 L 202.600 92.200 198.134 92.400 C 193.287 92.617,192.495 93.023,191.885 95.600 C 191.358 97.832,192.456 98.291,197.913 98.123 L 202.800 97.972 202.813 102.886 C 202.828 108.840,203.096 109.402,205.917 109.395 C 209.281 109.387,209.200 109.535,209.200 103.413 L 209.200 98.000 212.320 98.000 C 214.036 98.000,215.613 98.173,215.825 98.385 C 216.073 98.633,216.783 98.573,217.805 98.219 C 219.526 97.623,219.683 97.020,218.983 93.700 C 218.669 92.210,218.851 92.252,213.300 92.388 L 209.200 92.487 209.200 87.293 C 209.200 81.532,209.166 81.450,206.581 81.024 C 205.278 80.809,204.754 80.921,203.893 81.598 M207.334 84.300 C 207.442 84.905,207.550 87.188,207.572 89.373 C 207.622 94.206,207.124 93.760,212.732 94.000 C 217.201 94.191,217.405 94.238,217.528 95.102 C 217.697 96.292,217.344 96.387,212.333 96.502 C 207.124 96.622,207.556 96.122,207.462 102.138 C 207.376 107.613,207.313 107.816,205.819 107.440 L 204.800 107.185 204.800 102.216 C 204.800 96.301,205.077 96.607,199.720 96.603 C 195.326 96.600,194.229 96.197,195.052 94.889 C 195.408 94.323,196.223 94.180,199.619 94.085 C 204.984 93.936,204.800 94.147,204.800 88.151 L 204.800 83.200 205.968 83.200 C 206.928 83.200,207.172 83.396,207.334 84.300 M170.964 93.085 C 170.842 93.478,170.595 94.080,170.416 94.422 C 170.237 94.764,170.224 97.914,170.388 101.422 C 170.552 104.930,170.607 107.890,170.510 108.000 C 170.413 108.110,167.163 108.233,163.288 108.273 C 156.436 108.345,156.224 108.372,155.531 109.273 C 154.615 110.463,154.559 114.193,155.429 115.939 L 156.059 117.200 162.980 117.200 C 168.561 117.200,169.996 117.313,170.387 117.784 C 170.870 118.366,170.762 124.237,170.180 129.005 C 169.787 132.225,170.805 133.204,174.529 133.187 C 178.979 133.168,178.904 133.303,178.831 125.424 C 178.749 116.534,178.097 117.243,186.475 117.109 L 193.332 117.000 194.000 115.800 C 196.111 112.005,194.319 106.209,191.566 107.928 C 190.145 108.816,179.713 108.559,179.213 107.624 C 178.937 107.108,178.932 106.766,179.199 106.601 C 179.719 106.279,179.720 104.121,179.200 103.800 C 178.700 103.491,178.695 99.538,179.192 97.386 C 179.461 96.222,179.414 95.331,179.021 94.186 L 178.476 92.600 174.831 92.485 C 171.621 92.384,171.160 92.455,170.964 93.085 M233.376 92.838 C 233.227 93.079,233.136 96.566,233.173 100.586 L 233.241 107.896 232.320 108.143 C 231.814 108.278,228.700 108.397,225.400 108.407 C 217.954 108.430,218.006 108.401,217.716 112.670 C 217.409 117.208,217.311 117.153,226.021 117.290 L 233.000 117.400 233.122 124.600 C 233.262 132.900,232.992 132.295,236.776 132.770 C 241.629 133.380,242.000 132.755,242.000 123.967 C 242.000 116.506,241.199 117.213,249.651 117.205 C 256.586 117.199,256.351 117.352,256.486 112.767 C 256.622 108.124,257.097 108.400,248.976 108.400 L 242.000 108.400 242.000 101.455 L 242.000 94.509 240.945 93.455 C 239.799 92.308,233.996 91.836,233.376 92.838 M176.610 94.816 C 176.751 95.045,176.897 98.420,176.933 102.316 C 177.017 111.223,176.235 110.400,184.610 110.400 C 192.205 110.400,192.410 110.465,192.394 112.874 C 192.380 114.918,192.123 114.993,184.736 115.099 C 180.580 115.159,177.675 115.365,177.421 115.619 C 177.160 115.880,176.989 118.765,176.972 123.215 C 176.941 131.152,177.037 130.747,175.119 131.058 C 172.547 131.476,172.361 130.911,172.436 122.928 C 172.473 119.086,172.342 115.782,172.146 115.586 C 171.950 115.390,168.826 115.207,165.202 115.180 C 157.907 115.124,157.200 114.945,157.200 113.160 C 157.200 110.426,157.273 110.400,164.990 110.400 C 173.340 110.400,172.587 111.175,172.470 102.701 C 172.363 94.931,172.512 94.400,174.790 94.400 C 175.650 94.400,176.468 94.587,176.610 94.816 M240.000 102.400 L 240.200 110.200 247.171 110.310 C 254.768 110.429,255.200 110.554,255.200 112.616 C 255.200 115.269,255.392 115.200,247.990 115.200 C 239.076 115.200,240.000 114.274,240.000 123.200 C 240.000 131.610,240.155 131.200,236.981 131.200 C 234.479 131.200,234.354 130.788,234.430 122.775 C 234.466 119.027,234.369 115.835,234.215 115.681 C 234.062 115.526,230.755 115.310,226.868 115.200 L 219.800 115.000 219.800 112.800 L 219.800 110.600 227.000 110.400 L 234.200 110.200 234.400 102.800 C 234.635 94.122,234.558 94.325,237.535 94.481 L 239.800 94.600 240.000 102.400 M201.546 119.700 C 201.204 120.338,201.092 123.017,201.161 128.900 L 201.259 137.200 193.401 137.200 C 183.850 137.200,184.268 136.981,184.261 141.995 C 184.254 147.019,183.836 146.800,193.427 146.800 L 201.311 146.800 201.117 154.520 C 200.864 164.613,201.196 165.249,206.600 165.034 C 210.770 164.868,212.123 163.272,211.261 159.538 C 210.541 156.415,210.657 148.990,211.446 147.786 C 212.184 146.660,222.314 146.240,223.959 147.267 C 225.477 148.215,227.600 146.683,227.600 144.641 C 227.600 143.694,227.778 142.398,227.996 141.760 C 228.283 140.919,228.238 140.160,227.833 139.000 L 227.275 137.400 219.282 137.292 C 211.395 137.185,211.286 137.172,211.050 136.292 C 210.582 134.545,210.778 124.424,211.296 123.595 C 211.691 122.962,211.691 122.638,211.296 122.005 C 211.023 121.568,210.800 120.966,210.800 120.667 C 210.800 118.631,202.579 117.772,201.546 119.700 M208.744 121.500 C 208.949 121.885,209.140 125.787,209.168 130.170 C 209.232 140.133,208.340 139.200,217.806 139.200 C 226.410 139.200,226.005 139.055,225.994 142.133 C 225.983 145.039,226.108 144.994,217.834 145.050 C 208.151 145.114,209.200 144.098,209.200 153.414 C 209.200 162.908,209.239 162.800,205.786 162.800 C 203.373 162.800,203.199 162.740,203.192 161.900 C 203.091 150.995,202.959 145.625,202.790 145.456 C 202.675 145.341,199.019 145.185,194.667 145.109 C 185.842 144.956,186.017 145.016,186.006 142.133 C 185.995 139.055,185.588 139.200,194.214 139.200 C 204.057 139.200,203.164 140.110,203.157 130.090 C 203.154 125.751,203.163 121.885,203.176 121.500 C 203.196 120.908,203.599 120.800,205.786 120.800 C 207.840 120.800,208.448 120.944,208.744 121.500 M250.700 127.357 C 250.094 127.817,250.000 128.614,250.000 133.280 L 250.000 138.671 245.118 138.763 C 239.214 138.873,239.600 138.649,239.600 141.962 C 239.600 145.807,239.884 146.000,245.531 146.000 L 250.000 146.000 250.000 151.120 C 250.000 157.265,249.957 157.200,254.031 157.200 C 257.958 157.200,257.928 157.246,258.036 151.091 L 258.125 146.000 262.649 146.000 C 267.923 146.000,268.087 145.879,268.158 141.939 C 268.214 138.864,268.105 138.800,262.677 138.755 L 258.000 138.717 258.000 133.302 C 258.000 126.886,257.963 126.825,254.000 126.825 C 252.456 126.825,251.116 127.041,250.700 127.357 M155.258 127.535 C 154.120 127.866,152.852 131.012,153.569 131.729 C 153.806 131.966,154.000 133.452,154.000 135.031 C 154.000 138.810,153.782 138.980,149.288 138.705 C 143.851 138.373,143.126 138.862,143.504 142.606 C 143.725 144.800,144.708 145.200,149.880 145.200 L 154.000 145.200 154.000 150.138 C 154.000 155.762,154.300 156.400,156.946 156.400 C 160.052 156.400,160.400 155.771,160.400 150.154 L 160.400 145.200 164.700 145.191 C 170.122 145.180,170.818 144.784,170.889 141.671 C 170.956 138.722,170.734 138.600,165.279 138.600 L 160.600 138.600 160.487 133.659 C 160.411 130.317,160.209 128.552,159.864 128.207 C 159.225 127.568,156.510 127.172,155.258 127.535 M255.900 128.124 C 256.257 128.355,256.400 129.906,256.400 133.544 C 256.400 139.836,256.197 139.600,261.600 139.600 C 266.262 139.600,266.804 139.827,266.794 141.780 C 266.783 144.033,266.456 144.188,261.414 144.334 C 255.986 144.493,256.446 143.911,256.298 150.800 L 256.200 155.400 254.349 155.520 C 251.427 155.709,251.200 155.266,251.200 149.371 L 251.200 144.400 246.829 144.400 C 241.675 144.400,241.087 144.087,241.279 141.451 L 241.400 139.800 245.985 139.686 C 251.500 139.549,251.186 139.908,251.194 133.723 C 251.199 129.358,251.281 128.788,251.974 128.303 C 252.818 127.712,255.103 127.608,255.900 128.124 M158.800 134.800 L 159.000 139.800 161.800 140.045 C 163.340 140.181,165.217 140.236,165.970 140.169 C 167.911 139.996,168.876 140.612,168.724 141.927 L 168.600 143.000 164.224 143.114 C 158.609 143.261,158.800 143.059,158.800 148.835 C 158.800 154.031,158.333 155.035,156.400 154.000 C 155.669 153.609,155.600 153.162,155.600 148.835 C 155.600 143.059,155.791 143.261,150.176 143.114 C 146.145 143.009,145.792 142.937,145.698 142.200 C 145.479 140.491,146.113 140.228,150.477 140.214 C 155.861 140.196,155.600 140.469,155.600 134.843 C 155.600 129.643,155.646 129.511,157.386 129.681 L 158.600 129.800 158.800 134.800 M171.280 150.480 C 170.939 150.821,170.800 153.253,170.800 158.880 L 170.800 166.800 163.424 166.800 C 154.977 166.800,155.480 166.558,155.444 170.643 C 155.411 174.413,154.934 174.200,163.433 174.200 L 170.799 174.200 170.800 182.276 C 170.800 191.482,170.478 190.797,174.897 190.980 C 179.052 191.152,178.787 191.738,178.794 182.367 C 178.800 174.618,178.912 173.689,179.763 174.342 C 180.297 174.753,193.408 174.326,193.849 173.884 C 194.388 173.345,194.214 168.139,193.633 167.440 C 193.183 166.897,192.019 166.800,185.951 166.800 L 178.800 166.800 178.800 158.944 C 178.800 151.931,178.725 151.031,178.100 150.557 C 177.201 149.875,171.945 149.815,171.280 150.480 M233.680 150.480 C 233.339 150.821,233.200 153.251,233.200 158.871 L 233.200 166.782 225.700 166.891 L 218.200 167.000 218.084 170.500 L 217.969 174.000 219.084 174.045 C 219.698 174.070,222.838 174.053,226.062 174.007 C 231.541 173.930,231.920 173.973,231.862 174.662 C 231.822 175.140,232.047 175.380,232.500 175.344 C 233.527 175.263,233.569 188.130,232.545 189.261 C 231.370 190.559,232.438 191.188,235.473 190.987 C 236.937 190.891,238.436 191.005,238.891 191.249 C 239.570 191.612,239.896 191.489,240.891 190.493 L 242.081 189.304 241.701 182.364 C 241.187 172.986,240.322 173.974,248.948 174.097 L 256.200 174.200 256.319 171.205 C 256.520 166.186,257.192 166.580,248.686 166.724 L 241.337 166.848 241.486 165.124 C 242.648 151.676,242.179 150.000,237.253 150.000 C 235.381 150.000,233.971 150.189,233.680 150.480 M240.309 159.582 C 240.439 168.865,239.630 167.986,248.051 167.994 C 255.653 168.001,255.717 168.027,255.523 171.069 L 255.400 173.000 248.000 173.223 C 243.930 173.346,240.555 173.481,240.500 173.523 C 240.445 173.565,240.400 177.005,240.400 181.167 C 240.400 190.465,240.556 190.000,237.437 190.000 C 233.914 190.000,234.000 190.216,234.000 181.363 C 234.000 172.256,234.904 173.200,226.181 173.200 C 218.841 173.200,218.539 173.078,219.060 170.333 C 219.503 167.998,219.494 168.000,227.049 168.000 L 234.000 168.000 234.000 160.280 C 234.000 151.264,233.894 151.519,237.596 151.684 L 240.200 151.800 240.309 159.582 M177.200 159.800 C 177.450 169.305,176.636 168.400,184.944 168.400 C 192.561 168.400,192.800 168.473,192.800 170.800 C 192.800 173.133,192.576 173.200,184.763 173.200 C 176.335 173.200,177.200 172.263,177.200 181.400 C 177.200 189.782,177.253 189.600,174.825 189.600 C 172.147 189.600,172.018 189.203,171.899 180.600 L 171.800 173.400 164.640 173.200 C 156.636 172.976,156.698 173.003,157.179 170.038 L 157.412 168.600 164.606 168.400 L 171.800 168.200 172.000 160.600 C 172.232 151.781,172.184 151.921,174.936 152.080 L 177.000 152.200 177.200 159.800 M202.662 173.931 C 202.123 174.528,202.000 175.562,202.000 179.519 L 202.000 184.375 197.300 184.487 C 193.800 184.571,192.626 184.728,192.700 185.100 C 192.755 185.375,192.659 185.600,192.487 185.600 C 192.040 185.600,192.408 191.300,192.894 191.900 C 193.173 192.246,194.670 192.400,197.749 192.399 L 202.200 192.399 202.078 197.359 L 201.955 202.319 203.239 202.960 C 204.809 203.743,209.184 203.845,209.232 203.100 C 209.250 202.825,209.281 200.310,209.301 197.511 L 209.338 192.423 214.369 192.311 L 219.400 192.200 219.400 188.400 L 219.400 184.600 214.362 184.489 L 209.325 184.377 209.270 179.338 C 209.236 176.232,209.040 174.089,208.758 173.750 C 208.033 172.876,203.495 173.011,202.662 173.931 M208.313 179.975 C 208.455 186.226,208.254 186.000,213.658 186.000 C 218.634 186.000,219.350 186.482,218.546 189.291 L 218.171 190.600 213.724 190.713 C 208.246 190.852,208.454 190.617,208.313 196.825 L 208.200 201.800 206.000 201.800 L 203.800 201.800 203.689 196.300 L 203.577 190.800 199.089 190.794 C 193.874 190.787,193.514 190.639,193.457 188.471 C 193.399 186.252,193.455 186.226,198.732 186.000 L 203.400 185.800 203.505 180.800 C 203.638 174.478,203.527 174.731,206.096 174.879 L 208.200 175.000 208.313 179.975 M200.390 222.280 C 200.384 222.456,200.389 239.110,200.400 259.290 C 200.415 287.405,200.306 296.161,199.934 296.757 C 199.549 297.374,199.557 297.666,199.973 298.168 C 200.684 299.024,210.448 299.106,211.149 298.262 C 211.471 297.874,211.587 287.429,211.565 260.762 C 211.549 240.433,211.650 223.509,211.790 223.153 C 211.963 222.714,211.789 222.438,211.250 222.297 C 209.927 221.951,200.401 221.936,200.390 222.280 M209.226 223.214 C 210.192 223.731,210.473 296.861,209.511 297.455 C 208.531 298.061,203.064 298.003,202.109 297.377 L 201.200 296.782 201.200 260.413 L 201.200 224.045 202.089 223.423 C 203.123 222.699,207.997 222.556,209.226 223.214 M147.959 229.173 C 141.741 229.506,142.397 225.807,142.639 259.136 C 142.753 274.901,142.836 288.101,142.823 288.468 C 142.808 288.910,143.240 289.224,144.100 289.395 C 144.815 289.536,146.660 290.073,148.200 290.586 C 152.647 292.070,167.443 292.272,167.915 290.856 C 167.999 290.603,168.227 290.493,168.421 290.613 C 168.947 290.938,172.466 289.230,172.190 288.784 C 172.060 288.573,172.317 288.400,172.762 288.400 C 173.545 288.400,178.800 283.794,178.800 283.108 C 178.800 282.921,179.181 282.252,179.647 281.622 C 180.113 280.992,180.384 280.298,180.249 280.080 C 180.115 279.862,180.274 279.581,180.602 279.454 C 180.931 279.328,181.200 278.780,181.200 278.236 C 181.200 277.692,181.364 277.146,181.565 277.022 C 181.765 276.898,181.952 274.005,181.979 270.593 C 182.006 267.182,182.144 264.091,182.284 263.726 C 182.477 263.224,182.375 263.124,181.869 263.318 C 181.358 263.514,181.200 263.348,181.200 262.611 C 181.200 262.081,181.040 261.549,180.845 261.428 C 180.650 261.307,180.375 260.594,180.234 259.843 C 180.094 259.092,179.702 258.371,179.364 258.241 C 179.026 258.112,178.876 257.801,179.031 257.550 C 179.194 257.286,178.560 256.403,177.521 255.448 C 176.510 254.518,175.813 253.554,175.920 253.236 C 176.050 252.848,175.905 252.751,175.455 252.924 C 175.095 253.062,174.800 253.001,174.800 252.787 C 174.800 252.574,174.564 252.400,174.275 252.400 C 173.986 252.400,173.240 251.869,172.618 251.219 C 171.996 250.569,171.377 250.051,171.243 250.066 C 169.750 250.241,168.000 249.911,168.000 249.454 C 168.000 248.221,161.142 248.050,157.800 249.200 C 156.521 249.640,155.008 250.000,154.437 250.000 L 153.400 250.001 153.534 242.900 C 153.615 238.641,153.840 235.593,154.097 235.283 C 154.404 234.913,154.394 234.634,154.063 234.303 C 153.448 233.688,153.472 232.127,154.100 231.833 C 154.500 231.647,154.500 231.553,154.100 231.367 C 153.825 231.238,153.600 230.824,153.600 230.447 C 153.600 229.759,152.833 228.736,152.420 228.873 C 152.299 228.914,150.292 229.049,147.959 229.173 M152.157 231.433 C 152.291 231.781,152.400 236.281,152.400 241.433 L 152.400 250.800 154.400 250.800 C 155.500 250.800,156.400 250.620,156.400 250.400 C 156.400 250.152,158.533 250.000,162.000 250.000 C 165.467 250.000,167.600 250.152,167.600 250.400 C 167.600 250.620,168.219 250.800,168.976 250.800 C 169.733 250.800,170.464 250.980,170.600 251.200 C 170.736 251.420,171.100 251.600,171.409 251.600 C 172.127 251.600,176.412 255.819,177.411 257.511 C 177.830 258.220,178.314 258.800,178.486 258.800 C 178.659 258.800,178.800 259.160,178.800 259.600 C 178.800 260.040,178.980 260.400,179.200 260.400 C 179.420 260.400,179.600 260.672,179.600 261.005 C 179.600 261.338,179.765 261.923,179.967 262.305 C 181.575 265.351,181.404 274.108,179.640 279.000 C 179.402 279.660,179.095 280.515,178.957 280.900 C 178.819 281.285,178.548 281.600,178.353 281.600 C 178.159 281.600,178.000 281.800,178.000 282.044 C 178.000 282.503,174.631 286.000,174.188 286.000 C 174.051 286.000,173.398 286.540,172.738 287.200 C 172.078 287.860,171.192 288.400,170.769 288.400 C 170.346 288.400,170.000 288.580,170.000 288.800 C 170.000 289.020,169.676 289.200,169.280 289.200 C 168.884 289.200,168.389 289.363,168.180 289.561 C 166.818 290.856,149.766 290.840,148.965 289.543 C 148.848 289.354,148.121 289.200,147.348 289.200 C 146.575 289.200,145.692 288.975,145.385 288.700 C 145.079 288.425,144.552 287.968,144.214 287.684 C 143.571 287.144,143.231 231.703,143.867 231.067 C 144.484 230.449,151.906 230.777,152.157 231.433 M30.823 232.715 C 30.558 232.998,30.350 233.808,30.360 234.515 C 30.371 235.222,30.429 240.443,30.490 246.117 L 30.600 256.434 19.380 256.317 L 8.159 256.200 8.222 260.890 C 8.309 267.341,7.233 266.800,19.968 266.800 L 30.639 266.800 30.597 276.900 C 30.574 282.455,30.413 287.720,30.240 288.600 C 29.624 291.720,30.723 292.400,36.380 292.400 C 42.613 292.400,42.076 293.675,42.017 279.019 L 41.969 266.800 52.384 266.750 C 63.788 266.695,63.192 266.720,63.900 266.270 C 64.438 265.929,64.624 258.019,64.150 255.650 C 63.832 254.061,60.000 253.646,60.000 255.200 C 60.000 255.733,60.267 256.000,60.800 256.000 C 61.240 256.000,61.600 255.820,61.600 255.600 C 61.600 254.999,62.283 255.119,62.531 255.763 C 62.713 256.238,61.115 256.335,52.373 256.380 L 42.000 256.433 42.032 244.917 C 42.049 238.583,42.154 233.625,42.265 233.900 C 42.573 234.665,43.200 234.495,43.200 233.647 C 43.200 232.298,32.002 231.455,30.823 232.715 M40.468 234.308 C 40.855 234.695,40.962 237.304,40.920 245.308 C 40.889 251.079,40.951 256.115,41.059 256.500 C 41.238 257.144,42.096 257.200,51.778 257.200 C 60.320 257.200,62.390 257.306,62.768 257.761 C 63.781 258.982,63.710 263.565,62.651 265.284 C 62.623 265.330,57.740 265.465,51.800 265.584 L 41.000 265.800 40.872 278.000 C 40.801 284.823,40.580 290.368,40.371 290.581 C 39.850 291.113,35.328 291.326,33.400 290.910 L 31.800 290.565 31.600 278.182 L 31.400 265.800 20.800 265.600 C 8.337 265.365,9.200 265.676,9.200 261.425 C 9.200 256.953,8.450 257.232,20.833 257.107 L 31.400 257.000 31.503 245.800 C 31.596 235.693,31.674 234.548,32.303 234.071 C 33.210 233.383,39.733 233.572,40.468 234.308 M117.200 247.962 C 116.423 248.398,106.168 248.797,105.732 248.408 C 105.016 247.768,94.756 248.572,94.217 249.309 C 93.885 249.764,93.166 250.000,92.117 250.000 C 90.582 250.000,88.253 250.866,87.795 251.608 C 87.674 251.804,87.312 251.864,86.991 251.741 C 86.658 251.613,86.295 251.807,86.148 252.192 C 85.955 252.695,85.810 252.740,85.581 252.369 C 85.344 251.986,85.118 252.024,84.611 252.532 C 84.247 252.896,84.066 253.383,84.209 253.614 C 84.352 253.846,84.251 254.297,83.985 254.618 C 83.720 254.938,83.649 255.200,83.829 255.200 C 84.010 255.200,83.608 255.785,82.936 256.500 C 82.265 257.215,81.605 258.115,81.470 258.500 C 81.335 258.885,80.949 259.200,80.613 259.200 C 79.837 259.200,79.838 259.495,80.616 260.273 C 81.170 260.827,81.170 260.934,80.611 261.344 C 80.166 261.671,79.938 262.749,79.804 265.148 C 79.702 266.989,79.414 268.742,79.165 269.043 C 78.825 269.451,78.840 270.272,79.224 272.295 C 80.056 276.688,80.400 276.106,80.400 270.304 C 80.400 267.097,80.565 264.745,80.800 264.600 C 81.020 264.464,81.200 264.009,81.200 263.589 C 81.200 263.168,81.560 262.183,82.000 261.400 C 82.440 260.617,82.800 259.623,82.800 259.192 C 82.800 256.794,89.969 250.800,92.838 250.800 C 93.477 250.800,94.000 250.620,94.000 250.400 C 94.000 250.152,96.133 250.000,99.600 250.000 C 103.067 250.000,105.200 250.152,105.200 250.400 C 105.200 250.620,105.614 250.800,106.120 250.800 C 106.626 250.800,107.263 251.023,107.535 251.295 C 107.929 251.689,108.238 251.525,109.044 250.495 C 110.042 249.221,110.110 249.200,113.329 249.213 C 118.466 249.233,118.000 247.246,118.000 269.136 L 118.000 287.985 117.000 288.236 C 116.450 288.374,116.000 288.647,116.000 288.843 C 116.000 289.040,115.381 289.200,114.624 289.200 C 113.867 289.200,113.151 289.355,113.034 289.544 C 112.236 290.836,94.172 290.848,93.374 289.558 C 93.252 289.361,92.713 289.200,92.176 289.200 C 91.639 289.200,91.200 289.020,91.200 288.800 C 91.200 288.580,90.855 288.400,90.433 288.400 C 90.012 288.400,89.607 288.255,89.533 288.077 C 89.460 287.899,88.500 287.145,87.400 286.402 C 86.300 285.658,85.130 284.739,84.800 284.359 C 83.099 282.399,82.800 281.927,82.800 281.208 C 82.800 280.777,82.440 279.783,82.000 279.000 C 81.560 278.217,81.200 277.121,81.200 276.564 C 81.200 275.992,81.026 275.660,80.800 275.800 C 80.580 275.936,80.400 276.489,80.400 277.029 C 80.400 277.569,80.580 278.368,80.800 278.805 C 81.776 280.744,81.915 281.103,82.192 282.413 C 82.501 283.871,83.812 285.600,84.608 285.600 C 84.866 285.600,85.700 286.185,86.460 286.900 C 87.941 288.292,89.037 289.073,90.000 289.423 C 90.330 289.543,91.110 289.902,91.732 290.220 C 92.355 290.539,93.200 290.800,93.609 290.800 C 94.018 290.800,94.448 290.955,94.565 291.143 C 94.682 291.332,96.256 291.522,98.063 291.566 C 99.871 291.610,101.462 291.715,101.599 291.800 C 102.606 292.421,112.467 291.238,114.430 290.260 C 115.600 289.677,116.851 289.200,117.211 289.200 C 118.689 289.200,118.789 287.923,118.896 267.704 C 118.981 251.599,118.903 247.971,118.467 247.804 C 117.831 247.560,117.938 247.547,117.200 247.962 M326.669 247.864 C 326.524 248.010,324.587 248.174,322.365 248.229 C 318.903 248.316,318.199 248.450,317.437 249.165 C 316.920 249.651,316.016 250.000,315.274 250.000 C 314.573 250.000,314.000 250.180,314.000 250.400 C 314.000 250.620,314.529 250.800,315.176 250.800 C 315.823 250.800,316.464 250.980,316.600 251.200 C 317.010 251.864,318.000 251.649,318.000 250.896 C 318.000 247.491,327.284 248.946,327.704 252.417 C 327.832 253.467,327.887 253.294,327.936 251.700 C 327.971 250.545,328.180 249.600,328.400 249.600 C 329.052 249.600,328.855 248.107,328.167 247.843 C 327.355 247.531,326.997 247.536,326.669 247.864 M356.000 249.000 C 356.000 250.227,350.787 250.510,348.654 249.398 C 345.910 247.966,345.622 248.321,345.808 252.900 C 345.900 255.155,346.159 262.220,346.384 268.600 C 346.609 274.980,346.858 280.470,346.936 280.800 C 347.460 283.000,348.910 285.643,349.474 285.427 C 349.767 285.315,349.871 285.470,349.737 285.820 C 349.609 286.152,349.748 286.400,350.061 286.400 C 350.362 286.400,350.812 286.728,351.063 287.129 C 351.569 287.939,357.167 290.966,357.516 290.618 C 357.637 290.496,358.161 290.675,358.680 291.015 C 359.965 291.857,370.505 291.811,371.807 290.958 C 372.278 290.650,372.774 290.507,372.909 290.642 C 373.044 290.777,373.687 290.508,374.339 290.044 C 374.990 289.580,375.721 289.200,375.962 289.200 C 376.203 289.200,376.400 289.020,376.400 288.800 C 376.400 288.580,376.678 288.400,377.017 288.400 C 377.833 288.400,382.000 284.248,382.000 283.435 C 382.000 283.086,382.180 282.800,382.400 282.800 C 382.620 282.800,382.800 282.361,382.800 281.824 C 382.800 281.287,382.970 280.742,383.178 280.613 C 383.402 280.475,383.570 275.439,383.588 268.335 C 383.606 261.711,383.708 256.149,383.815 255.975 C 383.923 255.801,383.894 254.397,383.750 252.855 L 383.490 250.051 380.169 250.060 C 378.343 250.065,376.486 249.954,376.044 249.814 C 375.601 249.673,374.555 249.743,373.720 249.968 L 372.200 250.376 372.315 263.760 C 372.435 277.614,372.337 278.590,370.580 281.118 C 370.535 281.182,369.981 281.328,369.349 281.441 C 368.717 281.554,367.801 281.906,367.314 282.223 C 366.316 282.873,363.547 282.991,362.495 282.429 C 362.113 282.225,361.481 281.959,361.091 281.838 C 360.701 281.717,360.261 281.299,360.112 280.909 C 359.964 280.519,359.447 279.887,358.964 279.504 C 357.559 278.393,357.054 269.548,357.586 255.388 C 357.675 253.011,357.550 251.454,357.220 250.837 C 356.816 250.082,356.817 249.837,357.224 249.585 C 357.619 249.341,357.590 249.133,357.093 248.636 C 356.219 247.762,356.000 247.835,356.000 249.000 M247.800 249.173 C 246.920 249.613,245.422 249.979,244.472 249.986 C 242.596 250.001,240.937 250.953,237.510 253.981 C 235.650 255.624,235.158 256.316,233.729 259.300 C 233.334 260.125,232.829 260.801,232.606 260.803 C 231.366 260.813,230.755 275.792,231.908 277.900 C 233.042 279.973,233.214 280.454,232.968 280.852 C 232.825 281.083,233.333 281.931,234.097 282.736 C 234.861 283.541,235.603 284.534,235.746 284.942 C 235.903 285.388,236.243 285.593,236.599 285.456 C 236.995 285.304,237.274 285.556,237.439 286.214 C 237.575 286.756,237.858 287.200,238.067 287.200 C 238.276 287.200,238.333 286.975,238.194 286.700 C 238.055 286.425,238.215 286.538,238.551 286.950 C 239.377 287.965,244.034 290.799,244.876 290.800 C 245.248 290.800,245.664 290.980,245.800 291.200 C 245.936 291.420,246.901 291.600,247.944 291.600 C 248.987 291.600,250.033 291.793,250.269 292.029 C 250.745 292.505,257.741 292.296,261.800 291.684 C 265.257 291.164,267.847 289.860,268.550 288.287 C 269.408 286.366,269.737 279.412,268.999 278.799 C 268.146 278.091,264.481 278.681,263.894 279.621 C 263.517 280.224,263.113 280.318,261.716 280.126 C 260.019 279.894,259.204 280.533,260.700 280.924 C 261.341 281.092,257.616 281.371,256.530 281.237 C 256.272 281.205,255.946 281.364,255.807 281.589 C 255.480 282.118,252.125 282.127,251.800 281.600 C 251.664 281.380,250.843 281.200,249.976 281.200 C 249.109 281.200,248.400 281.380,248.400 281.600 C 248.400 281.820,248.929 282.000,249.576 282.000 C 250.223 282.000,250.864 282.180,251.000 282.400 C 251.545 283.281,261.065 282.552,262.180 281.544 C 262.389 281.355,262.963 281.200,263.456 281.200 C 263.949 281.200,264.464 281.020,264.600 280.800 C 264.736 280.580,265.197 280.400,265.624 280.400 C 266.051 280.400,266.400 280.220,266.400 280.000 C 266.400 279.780,266.567 279.600,266.771 279.600 C 268.701 279.600,269.267 287.222,267.400 288.073 C 266.850 288.323,266.400 288.680,266.400 288.864 C 266.400 289.049,266.051 289.200,265.624 289.200 C 265.197 289.200,264.748 289.360,264.627 289.556 C 263.623 291.181,245.577 291.181,244.573 289.556 C 244.452 289.360,244.081 289.200,243.748 289.200 C 242.878 289.200,240.058 287.172,237.517 284.719 C 235.578 282.848,234.752 281.555,233.609 278.600 C 233.439 278.160,233.097 277.297,232.850 276.681 C 232.602 276.066,232.400 275.131,232.400 274.605 C 232.400 274.078,232.220 273.536,232.000 273.400 C 231.780 273.264,231.600 272.083,231.600 270.776 C 231.600 269.459,231.778 268.400,232.000 268.400 C 232.220 268.400,232.403 267.725,232.406 266.900 C 232.412 265.315,232.962 263.487,234.107 261.239 C 234.488 260.490,234.800 259.714,234.800 259.515 C 234.800 258.634,240.347 252.400,241.131 252.400 C 241.389 252.400,241.600 252.220,241.600 252.000 C 241.600 251.780,241.949 251.600,242.376 251.600 C 242.803 251.600,243.264 251.420,243.400 251.200 C 243.536 250.980,244.267 250.800,245.024 250.800 C 245.781 250.800,246.400 250.620,246.400 250.400 C 246.400 250.154,248.400 250.000,251.600 250.000 C 254.800 250.000,256.800 250.154,256.800 250.400 C 256.800 250.620,257.402 250.800,258.139 250.800 C 260.496 250.800,264.914 254.073,266.365 256.893 C 266.675 257.495,267.259 258.342,267.664 258.777 C 268.069 259.211,268.400 259.934,268.400 260.383 C 268.400 260.832,268.580 261.200,268.800 261.200 C 269.020 261.200,269.200 261.524,269.200 261.920 C 269.200 262.316,269.359 262.811,269.554 263.020 C 270.156 263.666,270.513 271.181,269.974 271.832 C 269.583 272.303,267.144 272.400,255.751 272.400 L 242.000 272.400 242.000 273.404 C 242.000 274.520,243.512 278.000,243.997 278.000 C 244.168 278.000,244.401 278.360,244.516 278.800 C 244.631 279.240,245.012 279.600,245.363 279.600 C 245.713 279.600,246.000 279.780,246.000 280.000 C 246.000 280.220,246.255 280.400,246.567 280.400 C 246.878 280.400,247.204 280.612,247.291 280.872 C 247.478 281.435,248.800 281.017,248.800 280.395 C 248.800 280.158,248.575 280.001,248.300 280.046 C 247.094 280.240,244.443 278.095,244.413 276.900 C 244.406 276.625,244.208 276.400,243.973 276.400 C 243.739 276.400,243.604 275.905,243.673 275.300 L 243.800 274.200 256.800 274.000 C 272.457 273.759,271.600 274.013,271.600 269.610 C 271.600 267.870,271.420 266.336,271.200 266.200 C 270.980 266.064,270.800 265.254,270.800 264.400 C 270.800 263.456,270.330 261.942,269.600 260.535 C 268.940 259.263,268.400 258.084,268.400 257.916 C 268.400 257.266,263.309 251.600,262.725 251.600 C 262.528 251.600,261.980 251.240,261.508 250.800 C 260.914 250.247,260.096 250.000,258.856 250.000 C 257.779 250.000,256.783 249.746,256.360 249.364 C 255.186 248.301,249.783 248.181,247.800 249.173 M304.500 248.813 C 304.004 249.012,303.298 249.059,302.930 248.918 C 302.423 248.723,302.323 248.824,302.518 249.331 C 302.737 249.900,302.483 250.000,300.811 250.000 C 299.731 250.000,298.748 250.160,298.627 250.356 C 298.506 250.551,297.911 250.835,297.304 250.985 C 296.010 251.306,294.400 252.699,294.400 253.497 C 294.400 253.881,294.139 253.971,293.561 253.787 C 292.854 253.563,292.762 253.649,292.977 254.327 C 293.117 254.770,293.042 255.250,292.810 255.394 C 292.577 255.538,292.491 255.823,292.617 256.028 C 292.744 256.232,292.661 256.400,292.434 256.400 C 291.892 256.400,290.813 258.508,290.754 259.680 C 290.719 260.358,290.659 260.416,290.524 259.900 C 290.252 258.859,289.600 259.054,289.600 260.176 C 289.600 260.713,289.443 261.250,289.252 261.368 C 288.106 262.076,287.975 276.067,289.102 277.312 C 289.459 277.707,289.805 278.338,289.872 278.715 C 289.939 279.092,290.106 280.086,290.244 280.925 C 290.424 282.028,290.652 282.389,291.067 282.229 C 291.390 282.106,291.533 282.184,291.395 282.408 C 291.150 282.805,292.319 284.592,292.907 284.721 C 293.076 284.758,293.731 285.376,294.362 286.094 C 295.550 287.445,299.137 289.600,300.197 289.600 C 300.529 289.600,300.800 289.759,300.800 289.954 C 300.800 291.395,319.186 292.574,320.539 291.221 C 320.771 290.989,321.474 290.800,322.102 290.800 C 323.373 290.800,326.436 289.524,327.095 288.720 C 327.599 288.106,327.712 285.676,327.648 276.900 C 327.575 266.969,326.837 268.696,326.708 279.100 C 326.601 287.690,326.589 287.805,325.700 288.195 C 325.205 288.412,324.800 288.727,324.800 288.895 C 324.800 289.063,324.181 289.200,323.424 289.200 C 322.667 289.200,321.952 289.355,321.835 289.543 C 321.049 290.815,302.400 290.832,302.400 289.561 C 302.400 289.363,301.950 289.200,301.400 289.200 C 300.850 289.200,300.400 289.041,300.400 288.847 C 300.400 288.652,300.085 288.393,299.700 288.271 C 297.478 287.567,292.892 283.352,291.998 281.194 C 291.726 280.537,291.345 280.000,291.151 280.000 C 290.958 280.000,290.800 279.550,290.800 279.000 C 290.800 278.450,290.638 278.000,290.440 278.000 C 289.907 278.000,289.522 274.726,289.522 270.200 C 289.522 265.674,289.907 262.400,290.440 262.400 C 290.638 262.400,290.800 262.113,290.800 261.762 C 290.800 261.411,291.121 260.646,291.514 260.062 C 291.907 259.478,292.478 258.505,292.782 257.900 C 294.448 254.588,299.266 250.800,301.812 250.800 C 302.575 250.800,303.200 250.620,303.200 250.400 C 303.200 250.154,305.200 250.000,308.400 250.000 C 312.519 250.000,313.600 249.887,313.600 249.456 C 313.600 248.526,306.468 248.022,304.500 248.813 M356.400 263.200 C 356.400 271.200,356.542 275.600,356.800 275.600 C 357.020 275.600,357.200 276.485,357.200 277.567 C 357.200 278.648,357.342 279.593,357.514 279.667 C 357.687 279.740,358.232 280.374,358.724 281.076 C 361.290 284.731,369.679 284.498,371.917 280.709 C 372.278 280.099,372.714 279.600,372.886 279.600 C 373.059 279.600,373.200 273.213,373.200 265.408 L 373.200 251.215 374.100 250.990 C 374.595 250.867,376.710 250.818,378.800 250.883 L 382.600 251.000 382.705 265.375 C 382.773 274.687,382.668 279.892,382.405 280.155 C 382.182 280.378,382.000 280.801,382.000 281.096 C 382.000 282.095,379.287 285.667,377.739 286.706 C 376.893 287.274,376.110 287.843,376.000 287.970 C 375.591 288.441,373.990 289.200,373.405 289.200 C 373.072 289.200,372.800 289.358,372.800 289.552 C 372.800 290.722,360.338 290.778,357.400 289.622 C 355.496 288.873,354.148 288.153,353.425 287.500 C 352.998 287.115,352.413 286.800,352.125 286.800 C 351.836 286.800,351.600 286.546,351.600 286.236 C 351.600 285.925,351.105 285.248,350.500 284.732 C 349.363 283.761,348.837 282.823,348.055 280.372 C 347.560 278.819,347.385 251.549,347.867 251.067 C 348.013 250.920,349.993 250.800,352.267 250.800 L 356.400 250.800 356.400 263.200 M42.400 255.200 C 42.400 255.640,42.580 256.000,42.800 256.000 C 43.020 256.000,43.200 255.640,43.200 255.200 C 43.200 254.760,43.020 254.400,42.800 254.400 C 42.580 254.400,42.400 254.760,42.400 255.200 M327.720 258.000 C 327.720 259.210,327.795 259.705,327.887 259.100 C 327.978 258.495,327.978 257.505,327.887 256.900 C 327.795 256.295,327.720 256.790,327.720 258.000 M99.031 258.722 C 95.418 258.908,91.129 262.487,90.614 265.745 C 90.053 269.291,89.935 272.895,90.365 273.325 C 90.604 273.564,90.800 274.281,90.800 274.918 C 90.800 279.991,100.079 283.911,107.307 281.891 L 108.413 281.581 108.307 271.151 L 108.200 260.721 106.571 259.807 C 104.818 258.822,102.779 258.529,99.031 258.722 M158.000 258.723 C 156.790 258.791,155.629 259.016,155.420 259.223 C 155.211 259.430,154.703 259.600,154.291 259.600 C 152.495 259.600,152.400 260.159,152.400 270.781 L 152.400 280.820 153.500 281.266 C 155.807 282.202,159.586 282.717,161.314 282.331 C 164.268 281.672,166.000 281.082,166.000 280.736 C 166.000 280.551,166.225 280.400,166.500 280.400 C 167.163 280.399,169.200 278.629,169.200 278.053 C 169.200 277.804,169.380 277.600,169.600 277.600 C 169.820 277.600,170.000 277.251,170.000 276.824 C 170.000 276.397,170.180 275.936,170.400 275.800 C 170.620 275.664,170.800 274.944,170.800 274.200 C 170.800 273.456,170.980 272.736,171.200 272.600 C 171.420 272.464,171.600 271.463,171.600 270.376 C 171.600 269.289,171.420 268.400,171.200 268.400 C 170.980 268.400,170.800 267.500,170.800 266.400 C 170.800 265.300,170.620 264.400,170.400 264.400 C 170.180 264.400,170.000 264.116,170.000 263.769 C 170.000 260.879,164.066 258.384,158.000 258.723 M308.000 258.725 C 307.010 258.794,306.029 259.019,305.820 259.225 C 305.611 259.431,305.208 259.600,304.925 259.600 C 303.982 259.600,300.400 262.875,300.400 263.737 C 300.400 264.076,300.220 264.464,300.000 264.600 C 299.780 264.736,299.621 265.782,299.646 266.924 C 299.672 268.066,299.774 268.640,299.874 268.200 C 299.973 267.760,300.312 266.833,300.627 266.140 C 300.942 265.446,301.206 264.726,301.213 264.540 C 301.258 263.390,305.088 260.400,306.514 260.400 C 307.085 260.400,307.664 260.220,307.800 260.000 C 307.936 259.780,308.926 259.600,310.000 259.600 C 311.074 259.600,312.064 259.780,312.200 260.000 C 312.336 260.220,313.046 260.400,313.777 260.400 C 314.680 260.400,315.188 260.624,315.360 261.100 C 315.499 261.485,315.863 262.229,316.169 262.752 C 316.543 263.391,316.685 264.643,316.602 266.552 C 316.534 268.119,316.435 272.055,316.384 275.300 L 316.289 281.200 311.739 281.200 C 309.237 281.200,306.832 281.020,306.395 280.800 C 305.958 280.580,305.222 280.208,304.761 279.972 C 304.300 279.737,303.828 279.638,303.713 279.753 C 303.341 280.126,304.720 281.200,305.571 281.200 C 306.027 281.200,306.400 281.380,306.400 281.600 C 306.400 281.820,306.928 282.000,307.574 282.000 C 308.220 282.000,309.183 282.166,309.716 282.368 C 310.919 282.826,316.790 282.061,317.500 281.355 C 317.873 280.983,318.000 278.325,318.000 270.858 L 318.000 260.859 315.900 259.864 C 313.775 258.857,311.280 258.497,308.000 258.725 M247.632 259.658 C 245.977 260.628,242.800 263.919,242.800 264.664 C 242.800 265.096,244.508 265.200,251.600 265.200 C 261.395 265.200,261.109 265.297,259.557 262.512 C 258.400 260.436,258.097 260.107,256.696 259.408 C 254.834 258.479,249.389 258.629,247.632 259.658 M103.817 260.027 C 103.962 260.262,104.328 260.360,104.629 260.244 C 104.930 260.129,105.439 260.296,105.760 260.617 C 106.081 260.938,106.626 261.200,106.971 261.200 C 107.526 261.200,107.600 262.376,107.600 271.200 L 107.600 281.200 102.595 281.200 C 99.304 281.200,97.302 281.029,96.750 280.700 C 95.318 279.846,92.400 276.860,92.400 276.248 C 92.400 275.928,92.197 275.599,91.949 275.516 C 91.346 275.315,91.361 266.079,91.966 265.474 C 92.205 265.235,92.400 264.705,92.400 264.296 C 92.400 263.887,92.581 263.665,92.803 263.802 C 93.215 264.056,94.393 263.122,94.409 262.529 C 94.435 261.571,95.940 260.348,97.134 260.314 C 97.846 260.294,98.523 260.125,98.638 259.939 C 98.943 259.445,103.505 259.523,103.817 260.027 M162.600 260.000 C 162.736 260.220,163.289 260.400,163.829 260.400 C 165.431 260.400,167.589 261.833,167.299 262.704 C 167.208 262.977,167.359 263.200,167.635 263.200 C 168.854 263.200,169.600 264.514,169.600 266.662 C 169.600 268.296,169.742 268.800,170.200 268.800 C 171.498 268.800,170.368 274.432,168.743 276.057 C 168.334 276.466,168.000 277.120,168.000 277.511 C 168.000 278.237,166.922 279.382,166.200 279.423 C 165.363 279.471,163.600 280.398,163.600 280.790 C 163.600 281.542,154.931 281.318,154.639 280.558 C 154.504 280.206,154.170 280.003,153.897 280.108 C 153.508 280.257,153.425 278.399,153.515 271.593 L 153.629 262.888 154.818 261.644 C 155.472 260.960,156.355 260.400,156.780 260.400 C 157.205 260.400,157.664 260.220,157.800 260.000 C 157.936 259.780,159.016 259.600,160.200 259.600 C 161.384 259.600,162.464 259.780,162.600 260.000 M255.454 260.198 C 256.223 260.599,256.370 260.796,255.900 260.798 C 255.515 260.799,255.200 260.980,255.200 261.200 C 255.200 261.420,255.582 261.600,256.049 261.600 C 256.777 261.600,256.823 261.690,256.375 262.230 C 255.845 262.869,256.302 263.497,257.400 263.640 C 259.121 263.864,253.550 264.356,249.200 264.364 C 243.902 264.373,243.817 264.360,244.683 263.636 C 245.169 263.231,245.454 262.787,245.316 262.650 C 245.179 262.512,245.264 262.400,245.505 262.400 C 245.746 262.400,246.181 262.175,246.471 261.900 C 246.762 261.625,247.540 261.154,248.200 260.854 C 248.860 260.553,249.670 260.159,250.000 259.977 C 250.995 259.430,254.233 259.560,255.454 260.198 M326.828 267.300 C 326.813 267.905,326.980 268.400,327.200 268.400 C 327.669 268.400,327.669 268.093,327.200 267.000 C 326.895 266.291,326.853 266.325,326.828 267.300 M298.800 270.400 C 298.800 271.060,298.980 271.600,299.200 271.600 C 299.420 271.600,299.600 271.060,299.600 270.400 C 299.600 269.740,299.420 269.200,299.200 269.200 C 298.980 269.200,298.800 269.740,298.800 270.400 M299.600 274.114 C 299.600 274.931,299.780 275.600,300.000 275.600 C 300.220 275.600,300.400 276.050,300.400 276.600 C 300.400 277.150,300.580 277.600,300.800 277.600 C 301.020 277.600,301.200 277.805,301.200 278.056 C 301.200 278.516,302.355 279.564,302.887 279.587 C 303.196 279.601,302.818 278.331,302.415 278.000 C 302.281 277.890,301.593 276.636,300.886 275.214 L 299.600 272.628 299.600 274.114 M105.600 280.400 C 105.600 280.620,105.960 280.800,106.400 280.800 C 106.840 280.800,107.200 280.620,107.200 280.400 C 107.200 280.180,106.840 280.000,106.400 280.000 C 105.960 280.000,105.600 280.180,105.600 280.400 " stroke="none" fill="#b3b8a5" fill-rule="evenodd"></path></g></svg>