<svg xmlns="http://www.w3.org/2000/svg" width="400" height="400"><g fill-rule="evenodd"><path d="M216 13v1h4l6-1h-10m-9 1v1l1-1h-1m31 1-5 1-4 1h-4c-4 0-4 0-4 5 0 3 1 7 2 6 1-3 9 0 9 3l1 1v-1h1v3l1 1 1 1h1l2 1 6 2h1l2 1 5 2 7 1 3 1 2 2h2l2 1h2c4 2 9 3 9 2l2-1h2l1-1h2v1l4 3c3 3 4 6 2 7h-1l1 2 4 5 2 3a54 54 0 0 0 6 7c5 6 9 10 10 8v-1l1 1 1 1c3 0 5 4 4 6l-1 1-1 1v5l1 2 1 4 1 3 1 2v2l1 1v2l1 1 1 2 1-2c0-2 1-2 2-1l1 1h1l-1 1h-1l1 2 2 2 1 1 1 3-1 3-1 1-2 2v2l1 2 3 4v1l3 3 1 1v1l2 2 1 2v1l1 2c1 2 1 2 1-7l1-8a94 94 0 0 0-1-23 85 85 0 0 0-7-32v-1l-1-2-3-5a150 150 0 0 1-10-14 125 125 0 0 0-21-21 237 237 0 0 1-19-10l-2-1a423 423 0 0 0-42-11m-59 2h2-2m5 0v1l1-1h2l-1-1-2 1m-9 0v3l1 1v2l1 1v2l1 1v2l1 3 1 1v1l1 3v2l1 4c-1 0-1 0 0 0a73 73 0 0 1 6-1l3-1 2-1h2l2-1h2l3-1h2l1-1h-1l-2-2-2-1-2-1-1-1-2-2-2-1-3-3s0-1 0 0h-2l-2-2-2-2h-1l-2-1-1-1-3-3h-2m34 19h2-2m24 2c-1 1 0 1 2 1 1 0 2 4 1 5-1 2-5 1-5-1 0-3-1-2-2 0 0 2-1 2-2 2s-2 1-1 2l1 2v1l1-1c-1-1 0-2 2-2s4 1 2 2l1 2v-5h3l5-1c1-1 2 0 2 4v4-8h2l2-1h3l-1-1-6-2-2-1h-2l-2-1h-1l-3-1m-26 2h-2l-2 1-2 1h-2l-3 1h-3l-3 1-2 1h-2c-2 0-3 1-1 2v3c-1 1 1 2 2 2 2-1 2 0 2 2l-1 3v4l1 1c0 2 1 1 1-1l1-2 2 1h4v-1l-1-2v-1l-1-2v-1h16c2 1 3 1 5-1l2-2h-11v2h-3c-5 0-5 0-5-4s0-4 4-5l4 1c1 3 2 3 7 3h4l-2-2-1-1h-2l-3-1v-1c1 0 1 0 0 0v-2h-3m14 6 1 1 1-1-1-1-1 1m33-1 4 2c1 0 1 0 0 0l-2-1-2-1m-62 2-1 1c-2 1-2 0-1-1 1-2 2-2 2 0m49 3v1-2 1m23-2v2l1 3v3l1 2v1h15l-2-1-2-1-1-2v-1h1c4 0-1-3-9-5l-4-1m-70 4c-1 1-3 2-4 0l2-2c2 0 2 0 2 2m62-1v1-1c0-1 0-1 0 0m14-1 2 4c1 2-1 3-2 2h-1c-1 2-2 1-3-2l1-4h3m-27 7 1 1 2 1h3-2c-3 0-3-2 0-2h2-3l-3-1h-1l1 1m-38 0v6h1l2-3 3-3h-6m47 0h2-2c-1 0-1 0 0 0m21 1h-1l-1-1 2 1m-46 2v2l1-2 2-1h5v-1h-8v2m-26 2c1 4 0 4-3 4h-4l-3-1v3h6l1-1h2c2 2 2 1 2-4v-4l-1 3m-93 0-1 1v1l-1 1-1 2v2l-1 1v2l-1 1v1l-1 2v1l-1 1-1 2v1l-1 2v1l-1 2-1 1v2l-1 1v1l-1 1v2l-1 2v1l-1 1-1 2v2l-1 1h1l4 2h1l2 1h2l1 1 2 1h3l1 1v-4l-1-3v5c-1 0-2 0-2-2 0-1 0-1 0 0l-1 1v1l-3-4h2c0 1 0 1 0 0v-1l-1-2-1-1v-2l3 3 1 1 1-1c0-1 0-1 0 0-1 1-2 0-2-1l1-1 1-1v-5l1 1 1 1v6h1v-5l1-1c2-2 2-3 0-5l-1-2h3l1-1h-3l3-2v-1c-2 0-4-2-2-3l-1-1-1-2v-4c1 0 1 0 0 0v-2l-1-2v-3c0-3 0-3 3-1l2 1h1l12 6c2 2 5 2 7 2l2 1c0 1 3 0 8-5a175 175 0 0 1 7-6c1-1-1-1-5-1a13104 13104 0 0 1-37-1m127 2s0 1 0 0v-1 1m3-1h2-2m51 0h-5c-5 0-5 0-4 2l1 2c2 0 3 1 3 2h-9l-1 1-1 2h1l2-1c0-1 0-2 1-1v13l1-5v-6l1-1v-1h4c4 0 4 0 5 4l1 2 1 1a216 216 0 0 0 3 3v2h1l1-1v1l3 4 1 2 1 1 2 1h3l-2-1-1-5-1-3h7l-1-1a69 69 0 0 0-5-5l-2-3-5-5-4-5-2 1m-41 3c0 1 0 1 0 0v-2 2m19-2h1l2 1 1 1h2c0 1 0 1 0 0v-2h-6m-40 4 1 3v-1l-1-3v-2 3m-74 3 1 5-1-6v-5 6m78-5h2-2m59 1-1 1v-1h1m-141 1-10 9 5 1h6c1 1 2 0 1-5a223 223 0 0 1-2-5m13 1v4l1 1 1 5v4h-7v3l1-1v-1h7v-3l1-1-1-6v-2c-1 3-2 3-2-1 0-2 0-3-1-2m132 1c1 1 1 3-1 3-1 0-2-1-1-3 0-1 2-2 2 0m-24 1 1 2v-4l-1 2m-113-1v1h1c0-2 0-2-1-1m11 1c0 2 0 2 1 1l1-1-1-1-1 1m62-1 3 1c2 0 2 0 1-1h-4m-38 2c0 3 1 4 2 2v-2h2c4 0 3-2-1-2h-3v2m-36 1-1 3 1-1 1-1h1-1l-1-2v1m80 1v2-5 3m55-1h-1c-1 0-1 0 0 0h1m7 2c1 1 0 3-2 3s-2 0-2-3v-2h2c2 0 2 1 2 2m-149-1c1 1-1 3-3 3-1-1-1-3 1-3h2m31 1-1 1h1l1-1-1-1v1m-66 2v1-2 1m54-1 1 1v-1h-1m4 0 2 1 2-1h-4m14 0 1 2v-3l-1 1m84 3v5l1-4v-5l-1 4m3 0v2-4 2m-166-1h-1v-1l1 1m129 2c0 1 0 1 0 0v-1 1m-126 0h-2v-1l2 1m128 0 1 1v-2l-1 1m42-1 1 5v4h5l1-1 1-2c0-1 0-1 0 0l-2 1-2 1h-2v-8h-2m4 0h1-1m-135 1h-6l-1 1v1l4 3v1h1c1 1 2 0 2-2l1-2v-2h-1m22 0v1l1 1v2-4h-1m5 0 2 1v-1h-2m-69 1-1 1c-1-1 0-2 1-2v1m5 0h2-2m54-1 2 1-1-1h-1m3 1 1 1v-2l-1 1m114 2v2-3 1m-117 0v1c-1 0-1 0 0 0v-2 1m124 0v1-2 1m-185 0-1 1v-2l1 1m3 0c1 1 0 2-1 1v-2l1 1m3 0-1 1-1-1h2m125 2v2-3 1m-132 1h-2l1-1 1 1m3 0h-1v-1l1 1m3 0h-2v-1l2 1m200 0h1v-1l-1 1m-197 2v5c-1 1 0 2 1 2l1 1-1 1-1 1h1l1-1v4l1 1v5l1 2 1 2v3l-1 1-3 3a367 367 0 0 1-13 13 293 293 0 0 1-9 26 38 38 0 0 1-2 4l-5 7-8 9-3 3-2 3 1 5c0 8 1 11 5 13l2 2h1l4 3v4l-1 1v2l-1 2a166 166 0 0 1-5 11l3 3 7 4-1 3-1 1h-1l-1 1-1 1c-1 1-2 2 0 2l1 3h1l1 1v-3c0-4 0-5 1-4v5l1 6v5l-2 11c-1 4-1 5 1 10 2 4 2 4 7 6l3 1 5 1a105 105 0 0 0 14-2h2l2-1h5a215 215 0 0 1 16-3l16-2h2l1 1a468 468 0 0 1-2 113h80c86 0 81 0 80-2l-3-6a60 60 0 0 0-2-7 49 49 0 0 0-2-6v-1l-1-2v-1l-1-2a68 68 0 0 0-3-11l-2-5-1-2v-2l-1-1v-2l-1-1-1-3a250 250 0 0 1-8-27l-1-3-2-7v-3l-1-3a96 96 0 0 0-3-14v-2a63 63 0 0 0-3-13l-1-8h-4l-14 1c-1 1-2-1 0-2a106 106 0 0 0 11-14l2-3 2-2 2-3 2-2 1-3 5-7 3-3 2-3 2-2 1-2 2-2 2-3h1l1-2c1-3 3-4 2-1l-1 2v1l-3 7-1 1v1l-1 1v1l-4 9a216 216 0 0 0-10 21l-1 5h1a132 132 0 0 1 5-8l3-3a268 268 0 0 1 19-24l2-3a176 176 0 0 1 11-14 97 97 0 0 0 8-11l2-4 1-2v-2l1-2v-1l1-3 2-6v-2l1-2v-1l1-1v-3l1-2 1-2-1-2a85 85 0 0 1-14-5l-2-1-1-1h-1l-2-1-2-1h-1l-1 1v1l-1 2v2h2v2l1 3v3l-2 2-2 2h-3l-5-1c-1-1-1-1-2 1h-1l-2 3-1 2v1l-2 1-1 1h-1l-1 1h-4l-1-1c-1 0-4-2-4-4 0-1-1-2-2-1v1l1 2v1l1 2v2l1 3v3l1 3c0 2 0 2-2 2l-2 1-4 1-1 1-1 1 1 1 1 4v3l-2 2-3 2-1 1h-3l-1-1-2-1-2-2-1 1-1 1-1 1h-1l-2 1h-1l-2-1-4-3h-3l-3 1-3 1h-3l-4 1h-3l-3 1-2 1h-3l-4 1h-3l-3 1h-3l-1 1c-2 0-3 0-2 1l-1 1-1-1v-1l-1 1h-1l-2 1h-2c0-1 0-1 0 0h-2l-9 1h-3l-3 1h-3l-4 1c-1 1-5 0-6-2l-5-5-5-5-5-6a89 89 0 0 1-8-9l-5-5-9-10c-2-2-2-2-1-3l2 2 2 2v-2l1-2v-2l1-3h-1l-2-1h-1l-2-1v-2l-1-2v-5l1-1v-2l-3-4-2-3-1-1-2-2-1-2-1-1-1-1h-1c0 2-3 2-3 0l-2-2-1-1-1-1v-3l1-1 1-2v-1c0-1 1-2 2-1l2-3v-4l1-3v-1l1-2 1-3v-3l1-4v-1c0-1 0-1 0 0h-3c0 1-1 1-2-1l-3-2-1-1-1-1-1-1v-1h-2l1-1v-2l-2 2m-9 0-1 1v-2l1 1m2 0-1 1-1-1 1-1 1 1m2 0v1l-1-1h1m-7 2-1-1h1v1m48-1c-1 1 0 1 2 1l3-1h-5m160 0h-1l-1 1c1 1 4 0 4-1h-2m-204 1-1 1v-2l1 1m2 0-1 1v-1h1m3 0c1 1 1 2-1 3-1 1-2-1-1-1v-2h2m169 1h-5l3 1c3 0 4 1 1 2h-1l2 1 1-2c0-3-1-4-1-2m-176 0c0 1-1 2-2 1l1-2 1 1m12 0c0 1 0 2-1 1v-2l1 1m157 1 1 2v-1l-1-1c0-1 0-1 0 0m-167 0-1 1-1-1h2m44 0v4h-4c-6 0-6 0-6-2v-2l-1 2c0 2-2 3-3 2l-4 1v4l-3 4v3c-1 1 0 1 1 1s2 0 2 3v3h4v-4c-3-1 1-4 4-3v5l-1 1 1 1h8c1 1 2 0 2-1l1-2 1-1 1-1v-6h-8v3h-10v-4c0-6 0-6 5-6a1629 1629 0 0 0 5 2v2h8v-4l1-5h-4m-50 1-1 1v-1h1m4 0c0 1-1 2-2 1l1-1h1m12 1h-1v-1l1 1m2-1c1 1 0 2-1 1v-1h1m190 0v5l1-1h6l-1 5-2 1h3c3 0 5 4 3 7-1 1-1 1 1 2l1 2 2 2c2 2 2 2 1-1v-2l-1-2-1-2v-2l-1-1v-3l-1-2v-1l-1-1-2-5-8-1m-19 1h2-2m3 1h1v-1c1 0 1 0 0 0l-1 1m-186 0-1 1v2c-1 0-2-2-1-3h2m191 1h-6c-1 1-1 1 2 1h4v-2 1m-194 0h-2 2m179 0 1 1h3l1-1h-5m-163 1-2 1v-1h2m-20 0h-2l1-1 1 1m53 0-1 1-1-1 1-1 1 1m-51 1-1 1v-1h1m50 1h-2l-1-2 3 2m123 0v1h1l1-1c0-1 0-1 0 0h-1v-2l-1 2m8 0v1-2 1m-130 1v-1c0-1 0-1 0 0v1m-54 0-1 1v-1h1m2 0v1c-1 1-2 0-2-1h2m2 0c1 1 0 2-1 1v-1h1m202 0v1h1c0-2 0-2-1-1m-167 2v2h5v-4h-5v2m157-1h6l-5-1-5 1h4m-11 0 1 1-1-1m-172 4v1-3 2m2 0v1-3 2m168-2 1 2v-1l-1-2v1m-183 0-1 1-1-1 1-1 1 1m3-1c1 1-1 3-2 3v-2l2-1m207 3h1c2 0 2 0 0 0h-1m-159 0-1 2h-1l2 2h1v-1l-1-1h1v-1l1-1 1 1-1 1v4h-2v2l-1 1h-1l-1-1 1-2v-2c-2-1-2-1-1-2l3-2m108 2v1-2 1m-146 2v1l1-1h-1m170 0 1 1 1 3c0 2 0 3 1 2s0-6-1-6h-2m-136 1c0 3-1 4-3 2-2-1-1-3 1-3l2 1m132-1 1 1-1-1m-150 6c-1 1 0 1 2 1l2-1h-4m169 3v1-1c0-1 0-1 0 0m-170 1 1 2 1 1 1 1h1v3l-1 3 1 3v1h1l1 2 1 2 2 2 2 2 4 4 2-1c2 0 1-1-1-1-3 0-3-1-3-3 0-3 0-4 3-4l3 1v2l1 2 1 1v2l-1 1-1 1h1l2-1v-2l1-3 1-2v-2c1-4 2-2 2 2v4-8l-1-1v-1l-2-1c-1-1-2-1-2 2v2h-4v-2c0-2 0-3 2-3l2-1h-1c-2-1-2-4-1-5l-1-2-1-2c1-1 2 0 2 1s0 1 0 0h5v-2h-11v1c0 2 0 2 2 1 2 0 4 6 2 7v1c-1 2-1 3-5 3-5 0-5 0-5-5l1-5 2-1 1-1v-1h-11m155 0h-1 2v-1l-1 1m-131 3 1 1h1c0 1 0 1 0 0l-1-1h-1m-2 2h-1l-1 2c0 1 0 1 0 0l2-1 1-1h-1m-12 0v5h4v-4h-1l-2-1h-1m14 1c-1 1 0 2 1 1v-1h-1m128 0 1 1v-1h-1m4 0 1 1v-1h-1m14 1h2-2m-11 3h1-1s-1 0 0 0m6 3-1 2h1v-2c-1 0-1 0 0 0m9 6v2c2 1 2 2 0 3v3c-2 0-3-2-2-2v-4l-1-1h-1v13-2c0-2 1-3 4-2 2 0 2 0 1-1l1-1 1 1h4v-3h6v2l1 2c0 1 0 1 0 0l1-1 1-1v-2l1-1-2-1-2-1h-9l-1-1v-3h-2c-1-1-1-1-1 1m-143 3v2-4 2m125-3v1h1l-1-1c0-1 0-1 0 0m7-1 2 2v3l-1 2h-1v-1l1 1 1 1c0 1-2 2-3 1h-1l2 1h2v5h-5v-4h-1v10l1-1c0-2 0-2 2-2h2c0 4 0 4-2 4-3 0-2 3 0 3l2-1v-2l1-2 1-1v-4l-1-9v-6h-2m13 1v1c-1 1-2 0-1-1h1m-17 4 1 2v-4l-1 2m2-1 1 1v-2l-1 1m17 2-3 2c-1-1 2-3 2-3l1 1m2 1-2 2v-2h2m-23 2 1 1 1-1-1-1-1 1m4 7c1 1 0 2-1 1l1-2v1m3 1h-1l-1-1 2 1m-153 6-1 1-1-1h2m-4 3-1-1-1-1c1-1 3 1 2 2m6-1h-1c-1-1 0-2 1-1v1m-3 1c0 1-1 2-2 1v-1h2m3 0-1 2v-2h1m2 0c1 1 0 2-1 2l1-2m154 21h7l3 1h8l1 1h5c2 0 2 0 2 2v1-1c0-2 2-3 2-1h1l1-1 3 1 3-1 1 1-3 2-3 1-3 1-1 1-4 1-4 2-2 1-3 1-3 1-3-2-4-5v-1c-1 0-7-5-6-6h2m-75 21-2 1v-1h2m4 0-1 1v-2l1 1m6 0-1 1-1-1h2m3 0v1l-1-1 1-1v1m-11 2h-1v-1l1 1m17 0h-1c-1-1 0-2 1-1v1m-22-1h-1 1m10 0-2 1 1-1h1m-18 1-1 1c-1-1 0-2 1-1m6 0-1 1v-2l1 1m-8 1-1 1v1l1 2-3-2c0-1 2-3 3-2m5 0v2l-1-2h1m5 0c1 1 0 2-1 1v-1h1m4 0-1 2-1-2h2m4 0c1 1 0 2-1 1l1-1m6 0-1 2v-2h1m5 0c0 1-1 2-2 1v-1h2m-26 2v2c-1 0-3-2-2-3l2 1m5-1-1 2v-2h1m8 0v1c-1 1-2 0-1-1h1m6 1h-2l1-1 1 1m-16 1-2 1 1-2 1 1m8-1v1h-2l2-1m-6 2-1 1-1-1 1-1 1 1m2 0v1l-1-1h1m10 0-1 1-1-1h2m14 0-1-1 1 1m-35 1-1 1v-2l1 1m2 0-1 1v-2l1 1m3 0-2 1v-1h2m2 0-1 1-1-1h2m10 0-1 1-1-1 1-1 1 1m10 0v1l-1-1 1-1v1m-17 1-1 1v-1h1m4 0-2 1v-1h2m-10 3h-2c-1-1 1-3 2-2v2m20-1h-2c0-1 1-2 2-1v1m-23 0h-2l1-1 1 1m7 0h-1v-1l1 1m11-1c0 2-1 2-1 1l1-1m-8 2h-1c-1 0 0-2 1-1v1m-10 0-1 2v-2h1m8 0-1 2v-2h1m5 1h-2l1-1 1 1m3-1v1c-1 1-2 0-1-1h1m-14 2v1l-1-1h1m4 0-2 1 1-2 1 1m13 1c1 1 0 1-1 1l1-2v1m-18 1-1 1v-1h1m4 0-1 1c0 1-2 0-1-1h2m4 0-1 1v-2l1 1m5 0-2 1v-1h2m-12 2v1c-1 1-2 0-1-1h1m5 1h-2l1-1 1 1m5 1h-2v-1l2 1m-10 1h-1l1-1v1m3 1-1 1-1-1h2m3 0-1 1v-2l1 1m7 0v1l-2-1h2m-14 2-1 1v-2l1 1m5 1-1 1-1-1h2m-1 4v2l-1-1 1-1" fill="#19385a"/><path d="M0 200v200h400V0H0v200M234 12a410 410 0 0 0 21 5h2l1 1h1l2 1 3 1 4 1 2 1h2l6 3 7 2a86 86 0 0 0 8 4l8 5 8 6a1029 1029 0 0 0 20 24l2 2 3 4 4 10a1382 1382 0 0 0 5 21l1 6 1 8a190 190 0 0 1-2 41 105 105 0 0 1-4 14v1l-1 2c-1 8-4 14-7 17l-4 4a51 51 0 0 1-4 6l-1 2a166 166 0 0 0-16 19 58 58 0 0 0-5 7 84 84 0 0 0-7 8l-1 2-2 3a129 129 0 0 0-8 10c-1 1-2 2-1 4a114 114 0 0 1 3 13l1 7 1 5 1 3v2l1 3a76 76 0 0 0 2 13l1 1v1l1 2 1 4 1 4 1 2v2l1 3a120 120 0 0 0 4 12l1 6 1 1 1 2v2a72 72 0 0 1 4 11v2l1 1 1 5 2 5a76 76 0 0 1 4 11v2l1 1 1 2v5l-161-1v-4a182 182 0 0 0 3-16l1-6v-14a173 173 0 0 0 0-44 369 369 0 0 0-2-24c0-6 0-6-3-6l-4 1h-2l-4 1-11 2a230 230 0 0 1-25 4c-9 2-9 2-11 1l-2-1-1-1h-1l-2-1-3-1c-2-1-7-10-6-12l1-4 1-7c2-6 2-6-2-12l-4-5 7-6-1-2-2-1-4-2c-3-1-3-1-3-3a66 66 0 0 1 3-8l1-1 1-4 2-3v-4l-10-7-1-2c-3-5-3-6-2-7v-3l2-6v-1l6-6 2-2 2-3a44 44 0 0 0 5-7l2-2 4-8 2-5a223 223 0 0 1 4-15c1-1 0-5-1-6v-1l-2-4-2-4-1-3-1-4h-1l-1-2-1-3c0-2 0-4 2-7a144 144 0 0 0 7-19l1-2 1-3a51 51 0 0 1 3-7l1-2 1-3 6-7a354 354 0 0 0 19-20l7-3 6-2 4-2a365 365 0 0 1 23-11l16-2 3-1a133 133 0 0 1 26-2h18m-11 22-2 1h-2l-3 1h-2 5a47 47 0 0 1 14 0h1-3l-1-1-2-2-5 1m-12 3h2-2c-1 0-1 0 0 0m25 0h1-1c-1 0-1 0 0 0m-29 1v1l1-1h-1m32 0 1 1v-1h-1m-47 4h1c1 0 0 0 0 0h-1m57 0h2-2m-61 1h2-2m36 1v1h1l-1-1m-43 1h-3l-2 1-3-1c-1-2-4 0-4 3l-5 5-2 2 2-1h1v-1l1-1h1l1-1c2-2 3-2 5 1l2 2 2-6c0-2 0-2 3-2l1-1 3-1h2-3l-2 1m75-1h2-2m3 1 3 1-1-1h-2m-55 2 2 2 1-2h-3m59-1c-1 1 0 1 1 1h1l-2-1m-40 1 1 2v3l1-2c0-3-1-3-2-3m57 5h1l2 2 2 2 3 1c2 2 2 2 1 0l-1-3c0-1-1-2-4-2l-4-1v1m-56 1v1h1v-1h-1m35 1c-1 1 0 3 2 3l1-2c0-1-2-2-3-1m-35 1v1h1v-1h-1m-64 1-1 2 3-3-2 1m14 1 1 2v-2h-1m117 4 1 1v-1h-1m-136 0v1l1-1h-1m69 1v2l-1 8c-1 2-1 3 1 3s3 0 1-3v-6c0-5 0-6-1-4m18-1c-1 1 0 1 1 1h3v-1a133 133 0 0 1-4 0m17 0v1h4c1-1-1-1-4-1m-6 1h5l-3-1c-2 0-3 0-2 1m34 0h1c1-1 1-1-1-1v1m-113 0c-1 1 0 2 1 1v-1h-1m44 1 2 1 1-2-3 1m-66 1-2 1c0 1 1 1 2-1l2-2-2 2m107 2v1h2l1-1h-3m-77 4v3l1-1v-2h-1m117 0 1 1 1 1 1 1-1-2-2-1m-31 3c-1 1 0 2 1 2v-1l-1-1m-108 3v-1 1m-24 2h-7l-1 1v5l1 1 1 5-1 6c1 0 2-3 1-4v-1l1-3 1-1 1-1 1-1 1-1v-1l1-2h1l-1-3m171 1 1 1v1h1l-1-1-1-1m-120 2c-2 2-2 5-1 5 1 1 2 0 2-1l1-1 1-1c1 0 1-1-1-2-1-2-1-2-2 0m57-1v4h4v-4h-4m-25 0v3l1 4h4c3 0 3 0 3-4 0-3 0-3-4-3h-4m-82 2v2c1 1 4 0 4-1s-3-2-4-1m15 0h1c1 0 1 0 0 0h-1m22 5c0 8 0 14 1 13V89c-1 0-1 0 0 0v-5l-1-1v4m86-2c-1 2 0 18 1 17V84l-1 1m53 1 1 2 1 3 1 2h1v-1l-1-1v-2c1-1 1-2-1-2l-1-1-1-1v1m-115 0v1l-1 2-1 2 1 2c1 2 2 3 3 2h7l-1-9h-1a55 55 0 0 0-5 0h-2m17 2c-2 2-1 6 2 4h1l3-1-1-1-2-1-1-1-1-1-1 1m-10 2h-1l1-1v1m37 0 2 1v-1h-2m-40 0 1 1h-1l-1 1-1-1 1-1h1m84 1 1 2 1-2h-2m-81 2-1 1-1-1 1-1 1 1m46 0c0 2 1 2 1 0v-1l-1 1m-123 6v2-2c0-3 0-3 0 0m113-2v3h5c1-2-3-5-5-3m-43 1c-1 1-1 2 1 2v-3l-1 1m20 1v2c1 1 3-1 2-2h-2m38 0 1 1v-1h-1m-82 5v5l1 2v-9l-1-1v3m-47 0c0 1 0 1 0 0v-1 1m95-1h5l-2-1-3 1m78 3v1h1c0-1 0-2-1-1m-32 0v2l1-1-1-1m2 0 1 2 1-1-2-1m4 1v1-2 1m8 0c0 1 0 1 0 0v-1 1m-33 1 2 1-1-1h-1m-123 2v1-3 2m72-1v2c1 1 2 0 2-1 0-2-1-2-2-1m20 0c-1 1 0 2 1 2v-1l-1-1m-10 1c-4 1-4 6 0 6 3 0 4 0 3-3v-2l-3-1m29 1v4c2 2 7-1 5-4h-5m85 0v1l1-1-1-1v1m-95 1v3c2 0 3-2 2-3h-2m-41 1 1 1h1c1-2-1-3-2-1m-33 1-1 1v1h4c1 0 1-1-1-3-2-1-1-1-2 1m65 0c-1 2 1 3 2 2l-1-3-1 1m74 0v1l2-1h-2m-168 2c-1 1 0 2 1 1v-1h-1m138 0 1 1 1-1h-2m-135 1h2l-1-1-1 1m9 0h2l-1-1-1 1m3 0h2l-1-1-1 1m3 0h1v-1c-2 0-2 0-1 1m3 0h2c1 0 1-1-1-1s-2 1-1 1m3 0h2l-1-1-1 1m79 2v5-7 2m-104 1 1 1v-2l-1 1m94 0c-1 0-1 0 0 0l1 1h1c1-1 0-2-2-1m-20 0 1 2 1-2h-2m3 0v1l3-1h-3m11 0h3c1 0 1 0 0 0h-3m28 0v7h-5l-6-1h-9l-4 1c-4 0-5 0-5-2s0-2-3-2h-4c-2-1-3-1-3 2v6l2 1 3 1h2l2-1 1-2c0-1-1-1 16-1h13v6l4 1h4l1 1 1-1h4v2c0 2 0 2 2 2 1 0 2-4 0-4 0 0-1 0 0 0v-4l1-4v-1l-1-4v-3h-16m86 1c-1 1-2 2-1 3v3l-1 2v1l-1 2h1v-1l2-3 2-3v-5h-1l-1 1m-121-1h2-2m-26 1c-1 1 0 2 1 2l-1-2m54 0 1 3c2 0 3-1 2-2 0-1-2-2-3-1m-110 2-1 1c-1 2 0 4 1 4l2 1 1 1-2-6v-1h-1m144 2-1 1v1l1 2 2 1 3-1 1-1v-2c-1-2-6-2-6-1m-79 2-1 1h1c2 1 2 0 1-1v-1l-1 1m10 0h-2l-1 1 2 1h2l1-2h-2m95 0c-1 1 0 2 1 2v-2h-1m-119 1v1l2-2-2 1m8 0c-1 0-1 0 0 0h1-1m3 0v1l1-1h-1m7 0v1l2-1h-2m-14 0 1 1v-1h-1m50 2v10l1-4c0-5 0-7-1-6m65 4 1 4v-7l-1 3m-101-2v1l1-1h-1m130 1v2l1-2h-1m-191 4 1 1v-1l-1-1v1m37 1 1 2 1-2h-2m38 0 1 1-1-2v1m10 0v1l1-2-1 1m-18 0v14c-1 1 0 2 1 2l1-8c0-8 0-9-2-8m122 0-1 1 1 1v-2m-88 0v1c1 1 3 0 3-1h-3m-99 2 2 1-1-1v-1l-1 1m186 2c0 1 0 2 0 0v-1 1m-113 0-2 1-1 3 1 2h5v-5l-3-1m-69 2 1 1 1 1-1-2h-1m117 1v2l1-1-1-1m19 2 1 1v-1h-1m-134 0 1 1v1h1v2c0 3 2 4 4 3l2-1h7-6l-3-2-4-2-2-2m177 1h1v-1l-1 1m-141 0v1l-2 5-1 1-1 1-2 1 1 1 1 1v1l1 2 1 1h5c1-2 6-1 7 1h1s1 0 0 0l-4-3c-1 0-1-2 1-2 2-1 3-1 3-3v-4l-1-3v-1l-3-1-7 1m69 0v2c1 1 2-1 2-2h-2m-17 1-2 1c-2 0-2 0-2 5s0 5 5 5 7 0 6-1v-2c1-3 0-7-2-7l-2-1h-3m-61 0v2c2 1 3 1 3-1-1-1-2-2-3-1m49 2 2 1c1-1 0-2-1-2l-1 1m100-1v1l1-1h-1m-2 3-10 1h-2v1c-1 6-3 7-16 7h-8l-1-1c-3-2-6-1-5 3l-1 3c-1 1-1 1-1-3l-1-5-1 3-1 3v1c0 1-1 2-4 1l-2-1v-2c-1 0-1 0 0 0v-6l-1-1h-4v12h3l3 1c0 1 1 1 2-1 1-1 4 0 4 3l1 2 2 1h2v-8l1-2 2-1 8-1 11 1c2 2 4 2 4-1l4-5 3-2h7c1 2 4 1 3-2 0-2-1-2-2-1m-103 0c-1 2 0 3 1 3l2-2-3-1m51 0-1 2c-2 1-1 2 2 2s4-1 1-3l-1-1h-1m-105 2h4-4m7 1h4-4m78-1v4h4l-1-1-1-1h1v-1l-3-1m52 4 1 1 1-1-1-1-1 1m-99 2v2c2 0 3-1 2-2h-2m14 0-1 3v1h4v-1c0-2-1-3-2-3h-1m7 3-1 4v4h9v-8h-8m15 1v7l-2 1-2 1h-2c-1 1 1 1 2 1 3-1 5 0 5 1l2 2h1l1 1 2-1h1v-1l1-1v1h1l1 1h1l2 1 2 1 1 1 2 2 3 2 1 1v-1l-2-1-1-1-1-1-4-3-4-4v-1h1c1-1 2-1 3 1h2l-1-3-1-3c0-2-4-4-6-2-1 1-4 0-4-1-1-2-4-3-5-1m-43 0h1l1 1 2 2h1l1 1 2 1 3 2 2 1 3 2c2 1 3 2 3 4s3 3 4 2l2-2 4-2 1-1h-2l-4-1h-3l-4-1h-1l-1-1-1-1h-1l-1-1-2-1-2-1-3-2-2-1c-2-2-3-2-3-1m59 0 2 1c1 0 2 0 1-1h-3m-47 1 1 3 1-2c0-1-1-2-2-1m20 3v1h-1v-3h1v-1 3m-13 2c-1 1 0 3 2 3l1-3h-3m55 2h1l-1-1v1m-42 3-1 1 1-1h3c2-1 2-1-1-1l-2 1m42 0v1h1l-1-1m10 2 1 2v-2l-1-2v2m2 4v1-1c0-1 0-1 0 0m1 4v2c2 1 1 4-1 5l-1 1 2 1c3 2 5-1 2-3l-1-3v-1l-1-2v-2 2m-19 2h1l4 5 1 2 1 1 2-1 2-2c0-1-3-3-5-3h-2l-2-1v-1h-2" fill="#ececec"/><path d="M218 12c-5 1-4 1 5 1l8-1h-13m-14 1c-6 1-7 1-1 1l6-1h-5m30 0a28 28 0 0 0 6 1l-6-1m-43 2h-2a53 53 0 0 0 7-1l-5 1m51-1a24 24 0 0 0 5 0h-5m-60 2h-2 4-2m32 0v1-2 1m-43 2a200 200 0 0 1 2-1l3-1h2-2c-1 0-3 0-5 2m89 1 2 1-1-1h-1m-104 5-3 2a167 167 0 0 0 3-2m124 2h2-1l-2-1 1 1m-62 2-1 2v3c1 1 0 2-2 3h-3l-2 1h2c4-1 7-2 7-4s1-3 1-1c0 3 1 3 4-1 1-1 6 0 6 2l3 3 2 1h1l-1-1-5-3c0-2-2-3-3-3-2-1-3 0-5 1-1 1-1 0-1-2-1-3-1-3-3-1m71 2 2 1-2-1-1-1 1 1m-155 4v1l1-1h-1m-2 1-5 5 2-2 2-2 2-1h-1m89 2h-2a30 30 0 0 0-11 2h3a47 47 0 0 1 7-2v1l1 2 1 2 2 3 1 1v1-3l-1-2-1-1 1-3c2-1 2-1 1-2l-2 1m8 1-1 3-2 3-1 1h1c1 0 2-1 2-4s2-4 7-3l-1-1-5 1m9-1 2 1-1-1h-2 1m65 0 2 2v-1l-2-1c-1 0 0 0 0 0m-98 1-2 1h2c-1 1 0 1 1 1v-2h1-2m32 1h2-2m4 0h2-2m-42 0-1 1h-2 4v-1h-1m46 1h2-2m-13 0v4c2 1 4 0 4-2s-3-3-4-2m-31 0-1 1h1l2-1c1 0 1 0 0 0h-2m42 0 1 1h1-1l-1-1h-1 1m-49 1h-1l-2 1h2c1 0 2 0 0 0l-2 2 1-1 6-1c2-1 1-1-1-1h-3m41 1-1 1h-2v-2l2-1 1 2m-65-1-1 1c-1 0-3 2-3 4v5l-6 4-1 1-3 3a576 576 0 0 0 12-13c0-3 4-4 7-2l3 1 8-2h-1l-3 1a200 200 0 0 0-5 0l-3-2-1-1h-3m77 1h1c1 1 1 0 0 0l-1-1h-2l2 1m-58 0h2-2m63 0 2 1v-1h-2m-2 1h2l1 1 2 1v-1h-2l-1-1-2-1v1m6 0 2 1h1l2 1h1l2 1-5-2a80 80 0 0 1-3-1m-69 1h-2l-1 1h1l2-1h2-2m-5 1v1l1-1c1 0 1 0 0 0h-1m18 3c0 3 0 3 3 3l4-1c0-2 2-2 6-2h5-5a27 27 0 0 1-6-1c1 2-1 4-4 4l-2-1-1-2v-3h5-5v3m6-2h1l-1-1v1m41-1-2 1-1 5c0 5 0 5 5 5s5 0 5-4v-2 3c0 2-1 3-5 3-5 0-5 0-5-5v-5h10v1c0-2-5-3-7-2m10 0 2 1v-1h-2c-1 0 0 0 0 0m-79 1-1 3-1 3v5-2l1-2 1-2a1295 1295 0 0 0 1-5h1-2m83 1 2 1-1-1h-1m5 0h2-2m-84 0v1h2c0 1-1 2-2 1 0 0-1 0 0 0h2c1-2-1-3-2-2m43 7c1 10 0 10 1 9l2 1 6 1c1-4 1-5-2-5l-3 1-2 1h-1V47l-1 7m9-7v2c0 3 0 4 3 4 2 0 3-1 3-4l-1-2h-5m5 3v2h-2c-2 0-3 0-3-2 0-3 0-3 3-3h2v3m26-2h2l2 1h1l1-1h-6l-1-1 1 1m-46 0h1c0 1 0 1 0 0l3 1-1 13c-1 0-2-1-2-4 0-4 0-4-3-4a212 212 0 0 1-8 1h5l2 1c2-1 2-1 2 2v11h-12c-2 0-2 0-2-6 0-8-1-7-1 0l-1 6c-1 1 1 2 3 2s2 1 2 2c0 3-4 4-5 1l-2-2c-1 0 0 0 0 0l2 2v4l-1 2h-3c-4 0-4 0-4-3 1-4 1-4 3-4h2l-2-1c-2 0-3 1-3 4-1 5 0 5 4 5 3 0 4 0 4-2 1-2 4-2 5-1l-1 1-2 2 2 2 1 1h-9c-1-1-1-1 1-2h-1l-1 1c0 2-2 2-2 0v-1 1l-1 2c-1 1 0 2 1 1 2 0 1 3 0 4l-8-1 3-1c2 0 3-1 2-4v1c0 1-1 2-3 2l-2 1h-1c-2-1-2-6 0-7l1-2h2l2 1 1 1v1-2l-1-1h-2v-9h-1l-3-1-1-1v-1c-1-1 0-2 1-2h3v-1h-2l-3-1-4-1h-3v-3 3l-1 2c-1 0-3-1-2-2l1-2-1-1v3h-3c-4 0-4-1-4 8s0 9 4 9h3v10-4l1-5c1 0 2 1 2 5v4-9l3-1h4v-2l1-3 1-2 2-1v2l1 3-2 4-2 1-2 2c-1 0-2 4-1 5 2 2 1 2-2 2h-3v9l1 10 1 2c0 2 6 2 8 1l2-1c0 2 2 2 6 1h4l-2-2v1l-1 1-1-1c-1 1-4 2-5 1-1-2-1-4 1-3l1-2 2-2h2c2 0 4 2 2 3l-1 1 2-2c1-1 2 1 2 3l1 2h1l2-1 4-2h1l-1-1-3-1c1-2-2-3-5-2l-2 1-1-1c-1-1 0-2 4-2l5-1c1-2 6-1 7 1l-1 6v5h4c1 1 1 0 1-2v-3c1-1 0-7-1-9l-1-3c0-2 1-2 1 0 1 2 6 1 6-1s-3-3-6-2h-1l-2-1h-2v-5h1c2-1 2-1 2-9 0-7-1-7 4-7s5 0 5-5V48h-4m95 0 3 3 3 3-3-3-3-3m-42 1c1 0 1 0 0 0h-1l2 1c0 1 1 1 0 0h1c2 0 2-1 1-1h-2l-1-1v1m4 1h-2l1 1h9c2-2 6 1 5 4 0 1 1 4 3 5v-1l-2-4c1-4-3-6-7-5h-7m-108 1-3 3c1-2 4-3 4-1h4v4h-5c-6 0-6 0-5-1l1-1c-1 0-3 3-3 5 0 1-1 2-2 0 0-1-1-1-6 4l-4 2h-1l-1 2v1l-1-1v1a71 71 0 0 1-8 6c-2 2-3 2-5 1l-9-3-1 1v1l-1 1v1l-1 2v2c-1 0-1 0 0 0v3c0 2 4 7 6 6l2 2v2-2c0-3-1-4-3-4l-1-1v-2l-1-3v-3l2-2c2-2 3-3 7-1 2 2 3 1 5-1l3-1-2 2-1 2c1 1 2 1 1 2 0 1 2 3 3 2l-1-1-1-1h1l2-1h3c0-1 1-1-3-1h-5l3-4 1-1h-1 1l4-3 4-3 5-4c3-3 5-3 4-1v2a206 206 0 0 1 0 9c1 0 0 2-2 3l-1 1-1 1c-1 0-1 0 0 0l2-1 4-3v1l1 1 1 3v3h-3l-3-1c-1-2-4-2-4-1l1 1 1 2-1-2-1-1h2l1 1 1 1h6v-3l-1-3-1-3V61l1-1-1-1 6-1h6v-5l-2-1-3-1m24 0v1l1-1h-1m68 0h-2v3l1 4c2 1 1 2-3 2h-3a41 41 0 0 1-10 0c-2 0-3 1-2 2l1 1h1c2-1 2 0 2 4l-1 9-1-1c-1-2-3-2-3 0l1 2c2 0 2 1 1 2-2 0-2 0-2 4l-1 5v2l1 11-2-1-1-1-2-2-1-2c-2 0-2-1-1-1 3 0 3 0 2-11 0-12 0-11-3-11h-6 9v18c0 3-1 3-6 3l-2 1 2 1h3a900 900 0 0 1 1 3v9c1 6 0 7-1 7-2 0-4 2-3 3v2h1c0-2 0-2 3-2 4 0 5 1 5 5v2h-3c-3 1-5 0-5-1h-1c0 2 1 3 2 3h4v-1h2l1 1 1-3v-4h1l4-2c0-2 0-2 1-1l1 2 1 1h6c4 0 4 0 4 5l1 2c1 0 2-1 2-7 0-4 1-6 4-5l1 2c0 2 0 2 2 3 3 2 2 4-1 4l-2 1h-2v1c-1 1-1 1 1 1l2-1 4-1 4 1v1c3 1 4 1 1 2l-2 1c0 2-1 2-4 2l-3-1c0-1-1-2-2-1v5c1 1 2 1 1 2-2 0-2 1-2 10 0 8 0 8 3 8s3 0 4 2c0 3 0 4 1 3s4-1 5 1c2 3 18 4 17 1v-5 6h-2a34 34 0 0 1-9-1l-1-1c1-3-1-3-3-2l-2-1h-5c-1 1-1 1-1-1s0-2-4-2l-2-1-1-3c0-4 1-4 1 0l1 2c0-2 1-2 2-2h2v-1l1 1 6-1v-4c-1-1 0-1 1-2l1-1v-4c0-6 0-6-5-6h-3l1-1c2 0 3-1 3-2h1l3-1h11c2-1 4 1 4 4v3c1-1 0-6-1-7l-1-1 1-1c2 0 4 1 3 2v7l1 2h1l1-1-1-1-1-1 1-1h2l-2-1-2-2c0-2 0-2 11-2 10 0 11 1 9 2v3c4 2 5 0 4-4l2-1c2 0 3 1 2 2v1-1l1-1v-1h-3l-3-1h3c4 0 4-2 1-4-1-1 1-2 2-2l1-3a767 767 0 0 1 0 1l-3 1v-1l-1 2c-1 0-2 1-1 2v3a197 197 0 0 1-28 0h-8l-8-1-1-1-2-1-2-1v-1l-1-1-1-2-1-1c-1 1-1 0-1-2 0-1-1-2-3-2l-2-1 2-2 1-1h8c1-1 2 0 2 1l-1 3h7l-1 1-1 1h-1l-1 1c0 2 1 2 3 1l2-1-1-2v-2h-2c-2 0-4-3-3-4 1 0 1-1 0 0h-11l-4 2-2-1c-1 0-1-5 1-6s1-3-2-3h-8l-2 1c-1 2 0 1-5 2l-2-3c0-4 0-4 4-4h2l1 1 2 2c2 0 2-2 1-4s-1-3 2-3c1 0 2 2 1 3-2 2 0 5 2 3h4V84c2-1 0-1-3-1-4 0-6-2-4-4 1-1 2 0 2 2h4a325 325 0 0 1 10 1l-1-7v-3l1-3v-2l1 3 1 3 1 1-1 1-1 4v3h-3c-4 0-5 1-5 2l1 2h2l-2-1c0-2 0-2 4-2h3v-4c0-4 1-5 3-4l1-1h1v1h-1v9c0 1 1 2 2 1V75c0-1-1-2-2-1-3 0-4-1-4-5 0-3 0-4-1-3h-2l-2-1c-2 0-3-1-2-2h3l3-1h3l-9 1h-2a43 43 0 0 0-11 0h6c5 0 6 0 4 1l-3 1c-3 0-4 1-5 2v1c-1-1-2 0-2 1h-1l1 1h2l1 4c0 4 0 5-1 4h-2c-2 1-2 1-2-5 0-11 0-11-1-10h-1l-2-1c-2 0-2 0-1-2h15a99 99 0 0 1 8 1 92 92 0 0 0 23-1c1 0 2 0 0-1l-2-1c-1 1-4-2-5-4v-1h-1l1 2 3 4v1a82 82 0 0 1-20 0c-2 0-3-1-1-3 1-2 1-6-1-6h-2m7 1v2c1 2 4 2 4 1v-1c-1 2-3 1-3-1 0-1 1-2 3-1 0 1 0 1 0 0v-1l-4 1m-4 0c1 1 0 5-2 6s-3-3-2-6h4m15 0h1-1m-95 0v5c2 2 5 0 5-2l-1-2-4-1m45 2v2h1c2 0 2 0 2-2s0-2-2-2h-1v2m-41-1-1 4c-2 1-3 0-3-2s2-3 4-2m43 0c1 1 0 1-1 1v-1h1m-34 1c0 1 1 2 2 1v-1h-2m80 1 1 1 1-1-1-1-1 1m-59 0h-1c-1 0-1 0 0 0h1m2 0c0 2 0 2-1 0l1-1v1m59 0h-2l1-1 1 1m-136 2v1-2 1m2 1v1-2 1m97 0 1 1 1-1h-2m-5 1v5h4-3v-3c0-3-1-4-1-2m-99 1c0 1-2 2-3 1h-1l7 1 7-1-1-1-1 1h-2v-1l-1 1h-2c0-1 0-1 0 0-1 1-2 0-2-1l-1-1v1m-7 1 1 1v-1c1-1 1-1-1-1v1m61 0 1 3c1 1 4 1 4-1l-1 1c-1 1-3 0-3-1 0-2 1-3 3-2 1 1 1 1 0 0h-4m29 1c2 0 2 1 1 1l-1 2-1 1-1-2v-2c1-2 1-2 2 0m14-1v2c0 2-4 2-5 0s3-4 5-2m-37 0c-1 2 0 4 2 4s2-1 2-3c0-1-3-2-4-1m4 2-2 1c-2 0-2 0-2-2 1-1 3-1 4 1m125-1 2 2-2-1v-1m-47 0h-6 2v5h3v-5h2-1m-118 2-1 1v-2l1 1m121-2h3-3m7 0h1c1 0 0 0 0 0h-1m3 1h1l-1-1v1m-124 3c0 4-1 4-1 0v-4l1 4m5-2 2 1 1-1h5v14l-13-1V64h5m105 1c0 2 0 2-2 2-1 0-2-1-1-3 0-2 3-1 3 1m-55 0-1 6c-2 0-3 0-2-1v-2c0-3 2-6 3-3m2 2v2-3 1m37-2 1 1-1 1-2 1v1h-2l-1-1-1-1-1-1-1 1h-1l3-1 3-1h3m33-1 2 2 1 1-1-2-2-1m0 2a784 784 0 0 0 11 16c-3-1-4 0-4 3v3l3 1c4 0 5 0 4-3 0-2 0-3 1-2h1v1l1 5v1l1-1v-2c-1-3-4-6-5-5l-1 1v-1a15376 15376 0 0 1-12-16m-191 0-1 3-1 4 3-7h-1m57 0-1 2-1-2h2m107 2-1 3-1 2 1 2 1 3v2h-7v-2h-3c-4 0-4 0-4-5 0-4 0-5 1-3s5 1 5-1l4-3h2c1-1 2 0 2 2m31-1 2 3 4 4a157 157 0 0 0 10 11c2 0 4 2 3 4l-1 3c0 2 0 2-1 1v1l1 2 1 2v1l1-1c0-1 0-2-1-1v-2c0 1 0 1 0 0v-6c2-2 1-5-3-5-2 0-1 0-7-7a336 336 0 0 0-9-10m-147 2v1-2 1m32 2-2 1v-1l-1-3 1-1 2 1 1 2-1 1m20-2h6l5 1-12-1v-1l1 1m15 0v-1 1m28 0h-1v-1l1 1m7 0h-1v-1l1 1m8 0 2 1h1l-2-1h-1m-101 1-1 1v-2l1 1m28 0a242 242 0 0 0-1 2l-1-2 1-1 1 1m90 0v1h1c0-2 0-2 3-2s4 1 3 5v2h-6v-4l-1 2c0 2 0 2 4 2h3v-7l-7 1m13 0h2l-1-1-1 1m-45 3-1 3v-5c1-1 1-1 1 2m-36-1c0 2-1 3-2 3-1-1-2-2-1-4 0-1 3-1 3 1m3-1v2c0 2-1 2-2 1-1-2 0-3 2-3m-23 3v2c1 1 1-1 1-3l-1-1v2m143-1 2 1-1-1-2-1 1 1m-188 1 1 1v-2l-1 1m96 0c0 1-1 2-2 1s0-2 1-2l1 1m53 0c-1 1 0 2 1 2 2 0 2-1 2-2h-3m2 1-1 1-1-2c1-1 2 0 2 1m-84 0-4 1-3-1h7m-113 1v1l1-1h-1m236-1 1 3-1-2v-1m-168 2-1 1v-2l1 1m-17 0v4c-1 1-1 2 1 2l1 2 1 2c1 1 2 0 2-2l-1 1-1-1-3-3v-1l1-3 1-1c1 0 1 0 0 0h-2m62 4c0 5 0 5-2 5h-1v5c-1 7-2 7-2-2 0-13 0-12 3-12h2v4m34-4 1 1 1 3c0 3-1 4-2 3h-2c-1 0-2 0-2-3l1-3 1-1h2m-105 1h-1l1-1v1m5 0h2l-1-1-1 1m29 0h-2l1-1 1 1m31 1-1 2-2-2h3m130 0v2l1 1-1-2v-1M98 82v2l1-2v-1l-1 1m207 1c-1 1 0 4 1 4l1-1c0-2 2-2 2 0s0 2-2 2l-4-1v-5h2v1m-163 1-3 2c-2 1-3 1-3 3h-3l-2 2 1 1c2 0 2 3 0 3s-4 3-3 4v2c-1 1-2 0-2-2v4-1l1 1v1-1l1-1v-3c0-1 1-3 3-3 1-1 3-3 2-4s-1-2 1-2l3-2 2-2v9h8v-1c0-2 0-2 3-2 2 0 2-1 2 5v1c0-4 1-4 1 0v14l2 1 2 1v3c0 4-1 4-2 4l-1 1a330 330 0 0 0-1 27l-2-4v-12a126 126 0 0 1 0-11l-1-1-1-2c0-1-2-2-3-1h-2l-1-1h-5l-1 1-1 1-1-1-1-1-5 1h-5v9l3 5a70 70 0 0 1 5 7l-4-6c-4-4-4-6-2-7 2 0 2-2 1-3h-2c-1 1-2 0-2-2 0-3 1-4 3-3h9v4l1 2 1-3c-1-2 0-4 1-3h8l3 2 1 1 1 1v6a427 427 0 0 0 2 21l1-2v-25h1c2-1 2-1 2-5s0-4-2-5h-1V92h3l3-1c0-1 0-2-2-1h-3l-3 1c-2 1-5 0-5-3l-4-1c-3 0-4-1-3-2l1-1v-2 2m150 0v2l2-2h-2m1 0-1 1 1-1m-85 6c0 7 0 7-5 7h-3v2l-1 2-1 1-1-2v-3c0-3-1-3-2-5l-1-1 1-1 1-3c0-2 1-2 6-2h6v5m44-4c0 1 0 2-2 2v-3l2 1m-86-1-2 1h-2c-1-1-3 1-2 2h1l4-1c5 0 5 0 5 3v2l-1 3c-2 1-8 1-8-1l-1-1v2c0 2 0 2 5 2 7 0 6 0 6-2 0-3 1-4 2-3v-1h-1l-1-2-1-4h-4m104 2 1 4 5-1c-2 0-4-2-4-3s-1-2-2 0m-121 0 2 1v-2l-2 1m117-1v4h-1l2-2-1-2c-1 0-1 0 0 0m-95 7-1 3v-8c0-2 1-2 1 0v5m-75-5v1l1-2-1 1m49 0h2v5c1 1 0 2-1 2h-6v-4c0-3 0-4 2-4l3 1m126 1v1l-1-2 1-1v2m-27-1c2 1 1 4-1 4s-2 0-2-3l3-1m37 1 1 6h6c0-2 0-2 9-2a3565 3565 0 0 0 8-2l1-1-1 1h-2l1 1-8 1-9 1-2 1c-3 0-3 0-3-4v-2h2l3 1 2 1c1 0 1 0 0 0l-1-2h-7M95 90v2-2m167 0v13h1l1 1c0 2 1 2 2 2h16-3c-4 0-5-1-5-2l3-2c1 1 2-2 1-3s-1-1-1 1l-2 1h-1v1l-1 3h-8l-1-1-1-1-1-1a600 600 0 0 1 2-10c-1 2 0 3 2 3l2-2c-1-2-5-4-6-3m-107 1v1c-2 1-3 0-2-1h2m6 0-1 1c-2 0-2 0-1-1l1-1 1 1m129 0h2-2m8 0h4-4m-113 1h1l-1 2h-2c-2 0-2 1-3 2 0 2 1 2 3 2 1 1 2 2 1 3s-1 7 1 7c1 0 2 2 1 3l-5 1h-2l-1-1-1-2h-1V92h9m82 1-2 1-1-2c1-1 3-1 3 1m42-1 1 1a283 283 0 0 1-1-1M94 93l-1 2 1-1v-1m94 0c0 1 0 1 0 0h6v9h-3l-3-1c-2 0-4-1-3-2v-1l1-4 2-1m-60 2v2-2c0-1 0-1 0 0m68 0v2l-1-2c0-1 1-2 1 0m146 0v2-2c0-1 0-1 0 0m-127 0-1 2-1-2 1-1 1 1m-31 2-1 1-2-1c0-2 3-2 3 0m121 3c0 5-1 7-2 7l-2-5c0-4 0-4-8-4-9 0-9 0-9 4 0 3 0 4-1 3v1h1v6l1 4h5c1-1 2-1 2 1 1 2 0 3-3 3h-4 3l-3 1c-3 0-4-1-2-1v-2l-1-1v4l-1 2h-1c0-1 0-1 0 0h3c0-2 1-2 6-2h5v-2c0-3 0-4 4-4 3 0 3 0 3-3 0-4 1-4 5-4l2-1h-1v-1l-1-5v-6l-1 5m-86-4-1 1-1-1h2m1 0v1l-1-1 1-1v1M93 97c-1 1-1 1 0 0v-1 1m177 2 1 2h1l-1-1v-2c-1-1-1-1-1 1m-74 1c-1 1-1 0-1-1h1v1m123 0v2c0 2 0 2 1 1v-2l-1-1c0-1 0-1 0 0m-116 0h-2l1-1 1 1m105 0 1 1h1l-1-1h-1m-8 0c1 1 0 4-1 6v3l1 4h-8l-3-1-1-1v1h-1l-1-2v-10h14m-210 2 2 7 1 1a136 136 0 0 0-2-8v-1l-1 1m161-1c0 2 0 2-2 2l-1 1-1 2-2-1c-3-1-3-2 0-2l2-1c1-2 3-2 4-1m7 0c1 0 2 1 0 2l-1 3v4h1l2 1-4 1-1-1v-2c0-4 0-6-2-6l-1-1c0-1 0-2 2-1h4m85 1c0 1 0 1 0 0v-1 1m-146 0c1 1 0 1-1 1v-1h1m41-1 1 1c0 2-2 2-3 1l1-2h1m-95 0v3l1-2-1-1m43 1h-2 2m5 0c0 2 0 2 2 2h2-2l-2 1c-1 1-1 1-1-1l-1-2c-1 0-1 0 0 0h2m29 0v7l1 1v1l1-5-1-4h-1m-73 0v1h4l-4-1m6 4c0 6 0 7-2 7l-1 2-1 1c-1 0-1 0 0 0l1-1 1-1c2 0 3-7 2-11v3m50-3-2-1h1l1 1m2 0h-1v-1l1 1m2-1v5h4v-5h-4m-72 2c0 1 0 1 0 0v-1 1m24-1-1 1h1l2-1c3 0 4 0 4 3v3h-7 7v-6h-6m14 0v3-4 1m15 0 1 3-2 1c-2 0-2-1-1-3s0-2 2-1m132 0 1 2h1-1v-3l-1 1m-112 0v1l-1-1h1m46 1v5c0 1-4 2-5 1-2 0-1-6 1-6h4m-26 0h-2l-1 2-1 3v3h1c2-1 3-2 5-1l1 1v-2l1-2c0-1-1-5-2-4h-2m82 1c0 4 1 5 3 5 3 0 3 0 4-3 0-3-1-3-4-3h-3v1m33-1v3h1l-1-3m-217 2a59 59 0 0 1-2 7l-1 2 1 1 1-8 1-1v1c0 2 1 3 2 3 3 0 2 2-1 3l-2 1 3-1h2v-4h-3v-2a93 93 0 0 1 0-2l-1-1v1m189-2 1 3c0 2-1 3-2 2l-1 1c-2 1-3-3-2-5l2-1h2m-13 3-1 2v1l-1-1v-4h1l1 2m18-2v2h1l-1-1v-1c0-1 0-1 0 0m-75 3c0 3-1 3-1 0-1-2 0-3 1-2v2m61-2v1l-1-1h1m-212 1h1v-1c-1 0-2 0-1 1m228 0v2h1l-1-1v-2 1m-149 1-1 1-1 1c0 6 0 6 4 6l3-1 4-1c4 0 4 0 4 7v5h-5c-7 0-7 0-7-2 0-4 0-4-7-4s-7 0-7 8l-1 7h-1v-5l-1 4v2h2c1-1 5 0 4 1h-4c-1 0 4 6 6 6l1 1 1 2-1 2c-2 0-2 0-2 3l-1 3h-1c-3 0-1 1 3 1h3v-1l-2-2c-2 0-2-1-2-2 0-3 4-3 5 0l1 1v-2c0-2 1-4 2-3h3l5 1h4l2 3c0 1 3 3 4 2h2c4 0 4 0 4-4s-1-5-2-3l-1-1c-1-1-1-2 1-2h2v-1l-1-2h-6c-2 1-2 1-2-1l-1-2 1-1 1 1c0 1 4 3 5 1l3-1h1l1-2c0-4-1-5-2-4h-2l-2-1-1 1-2-1h-5l-1 1-2-1h-6c-1 2-3 0-2-2h8c7 0 6 0 6-6 0-7 0-8-6-7l-3 1c-1 1-5 2-6 1s-1-5 1-7v-1c0-1 0-1 0 0m15 0h-1l-1-1 2 1m92 0h2-2m-2 0h-1 2-1m-63 1h-1 1m-79 0c0 1 0 1 0 0l2 1v1h-2v1c1 2 1 3-1 4-1 0-1 0 0 0h3v-4c1-3 0-5-2-3m106 0 1 2h1l2 2-2 1-1 1c0 1-4 2-7 1v-7h6m79 0v2h1l-1-2m-180 1 1 2c1 0 2-1 1-2h-2m75 2v1l-1-2 1 1m70 0v2h2l4-1h8c1-1 1-1 1 1v1h-3l-4 1h-2l-4-1c-4 0-4 0-4-3s2-2 2 0m58 0v3-3m-69-1v3c-1 0-2-2-1-3h1m-26 2c-1 1-3 0-2-1h2v1m62-1 1 1 1-1-2-1v1m-50 1-1 1v-2l1 1m41-1v3l-1 4-1 1h1l1 1 1 1 10-1h-10v-9h7-8m-48 1h-3l1-1 2 1m2 0v1l-1-1h1m-35 0c-1 2 0 4 2 2 1-1 3 1 3 3v1-1c1-2 0-4-1-4a83 83 0 0 0-4-1m-32 2-1 6 1 6h2c5 0 6-1 6-3-1-2 0-7 1-8 2-1 1-2-4-2l-5 1m124 2v2-4 2m-151-2c-1 1 0 2 2 1v-2l-2 1m30 0-1 1c-1-1-1 0-1 4l1 5-1 1h-1v-5c0-6 0-7 2-7l1 1m3 0h-2v-1l2 1m2 0h-2l2-1v1m4-1c-1 1 0 2 2 3l1 1 3 1h4v-3h-3l-3-1-4-1m123 0 1 2v-1l-1-1m-160 2h-2c0-1 0-2 1-1l1 1m151-1v3h3c0-2-2-4-3-3m2 1c1 1 0 2-1 2l-1-2h2m-121 1-1 1v-1h1m-73 1v1-2 1m60-1-1 1h-1v1l2-1v2l-1 2-1 2-1-1v-3c-2-2-5 0-4 3v2h9v-4c0-4-1-6-2-4m31 0-1 2h2c2 0 3-1 2-2h-1c0 2-1 2-1 0l-1-1v1m-22 1h-1v-1l1 1m133-1c0 1 2 3 3 2l2 4-3 4-3 4v-1l2-1c1 1 2 0 2-1l1-2c2-1 2-3 1-6l-2-2c-1 1-2 0-3-1m-115 1v1l-1-1h1m51 3 1 1v-3l-1 2m-66-1h-1l1-1v1m98 0h-1 1m-171 1-1 2c-3 2-2 8 1 7l4 2 1 2-2-3c-1-1-1-2-3-1-3 0-3-4-1-7l2-2h-1m58 0c0 3-3 3-3 1-1-1 0-2 2-2l1 1m-17 0-1 1-1-1h2m7 0-3 1-2-1h5m3 2v1l-1-2v-1l1 2m19-2c1 1 0 1-1 1l-1-1h2m153 5v6-11 5m-138-5 4 1c0 1 0 1 0 0l-3-1h-4 3m-69 2-1 1v-2c1-1 1-1 1 1m57-1v1l-1-1h1m99 0c-1 2 0 2 1 2l2-1c0-2-2-2-3-1m-124 0h2v2l-1 4c-1 0-2-1-1-2v-2l-1 1v2c-1 0-1 0 0 0v2c-1 1-3-2-2-3h-1l-1 1-1 3-1 3-1-3v-5c-1-3-1-3 8-3m44 0v3l1-1h1c1 2 1 1 1-1l-3-1m7 0v4l1-2-1-2m5 1-2 1c-1 0-1 1 1 1l1-1v-1m70 0-1 1-1-1h2m-168 2h-2v-1c1-1 2-1 2 1m71-1v2c1 1 1 0 1-2l-1-1v1m-5 1c1 1 1 1-1 1-1 0-2 0-1-1h2m-95 0 1 2v-1l-1-1m188 2h-1 1c1 0 1 0 0 0m25 0h-3 3m-146 1 1 2c-1 1-3-1-3-2h2m-65 1c0 1 0 1 0 0v-1 1m60 1c0 4 0 4 6 4 5 0 6-1 6-2s0-1 0 0c1 3 1 3-6 3s-7 0-7-5c0-3 1-3 1 0m11-1c0 2-1 2-2 1s0-2 1-2l1 1m84 0v4l1 1h2l-1-3c0-2-1-3-2-2m-43 1v4h9v-2l-1-3v2c0 3-1 3-3 0-2-2-3-2-5-1m11 3v4l-1 2v2h-4c-5 0-6-1-1-1 3 0 5-2 3-3-1-1-3 0-3 1s-2 2-6 2h-5l3 2c1-1 4 1 4 2s0 2 1 1h11v-5l-1-5v-6l-1 4m14-3v4l1-2c0-3 0-3-1-2m-68 0v2h-6l2-1h1c1-2 2-2 3-1m7 0c0 1-1 2-2 1v-1h2m4 1h-3l1-1 2 1m13 0h-1l1-1v1m124-1c1 2 0 3-2 3l-2-1c0-2 3-3 4-2m-128 0-1 2v2l-1-2v-1l2-1m9 2v2h5-2c-2 0-2 0-3-3v1m-14-1h-1l1-1v1m7 1-1 1c-2 0-2-2-1-2 2-1 2 0 2 1m-49-1c-1 2 0 4 2 3l1-3h-3m29 1-1 1v-2c1-1 1 0 1 1m-27 0-1 2-1-2h2m175 2-1 2h-1 2l2-4-2 2m-144-1-1 1-1-1 1-1 1 1m41-1c1 1 0 2-1 1l1-1m59 1v9l-2 1h-2l1 1v1c-2 0-2 1-3 2 0 2-6 2-6 0l-1-1v-9c2-2 3-1 3 3v7l2-1v-2l2-1h2-2c-3 0-4 0-4-4v-6h10m-65 0-2 1-2 1v1h8-3c-4 0-6-2-3-2l2-1c0-1 0-1 0 0m-30 1-1 1-1-2 2 1m4-1v1c-1 0-2 0-1-1h1m3 1h-1l-1-1 2 1m116-1v8h7v-8h-7m7 4v4h-3c-4 0-4 0-4-4v-3h3c4-1 4-1 4 3m-183-2 1 1v-1l-1-1v1m48-1-1 2v-1l1-1m9 1-1 1c-3 1-2 5 2 4 3 0 2 1-1 1-4 1-4 1-4-2 0-4 2-6 4-4m99 0 2 2 1-2h-3m2 0v1h-1l1-1m-112 1v1h-3l-2-1h-1 6m6 0v1l-1-1h1m10 0h-1 1m2 0h-1s-1 0 0 0h1m-25 0-1 1v5l-2-4c0-2 1-3 3-2m148 2 1 2c2 0 1 2-1 6v1l2-4c1-3 1-3-1-3v-4c1 0 1 0 0 0h-1v2m-115-2h3-3m37 1 1 1v1l5 1c4 0 5 0 3-2l-2-2h-3l-4 1m13 0c-1 2-2 2-1 3v2h-9l-2 2c0 1 2 2 3 1 1-2 2-1 2 0v2c2 0 3 0 3 2 0 3-4 3-5 0 0-2 0-2-3-2-7 0-7 0-5 3 1 1 2 1 2 3 0 3 0 4 2 4 2 1 1 3-1 3-3 0-3 1-1 1l1 1c0 2 2 3 3 1 1-1 2 0 3 2l2 1v-1l1-2h5v3l1 2h-4c-1-2-2-1-2 2l1 2 2 2c0 2-2 3-4 3l-1-1 2 3 9 7c6 4 6 4 6-2v-2h2c3 0 3 0 3 2v2h-2c-2 1-2 2 0 3l2 2c0 1 1 2 3 2 3 0 6-2 5-3l-1-3-1-6-1-1v2c2 2 2 7 1 7l-1 1h2l-2 2c-3 0-5 0-4-1s0-2-1-2v-2c2-1 1-6-2-6l-2-1 2-1h2c0-2 0-2 1-1h2l1 1h1v-1l-1-1-1-1c-2 0-4-1-4-4 0-2 0-2-2-2v4l-1 2c1 1 0 2-1 2v-6c0-2-1-2-3-2l-4-1h-1v-6l1-7v-2h6v-7l-1-11-1 2c0 2 0 3-2 3h-1c-1 1-3-1-3-3 1-2 0-2-1-1m42 9v5a242 242 0 0 0 0-5m-106-8c0 2-1 2-1 0v-2l1 2m-16 0c0 2 0 2-2 2l-2-2 2-1h2v1m-32 0c-1 2 0 4 3 4l3 1 1 1c1-1 0-2-1-3v-2l-1-2h-2l-3 1m4 0 1 2v2h-2l-2-2c0-2 1-3 3-2m20 0v1c-1 1-2 0-1-1h1m11 1h-2l1-1 1 1m4-1-2 3v-3h2m3 0c1 1 0 2-1 1l1-1m114 10c0 12 0 12 2 12l2-5c0-3 4-4 6-2l3 1 3-1 1-1 3-2-4 2-2 1-2-1-3-1c-2-1-6 1-6 4l-1 1v1l-1 2-1-11v-10 10m-160-7 1 1-1-3v2m58-2-2 2-1-1 3-1m10 0-2 1v9l-1 2 1 1v1l-1 1h-7l-6 1v2l1 2c1 1 1 0 1-1l1-2v6h-2l-2-1 3 4 5 3 4 2 1 1h1l2 1c2 2 3 1 3 0 1-3 4-3 5 0 2 2 3 1 3-4 0-6 0-6 5-6 6 1 6 0 6 6s1 7 1 2v-4l1-2 3-1 2-1h1c2-1 1-1-4-1-6 0-6 0-6-7v-7h-4c-6 0-7 0-5-2l-1-1h-1v4h4l2 1c3 1 2 4-1 4-1 0-2 0-2-2v-1h-11v-4c0-4 0-5 1-4l1-1v-2h-2m34 1-1 1h-2v2l2 1c1 1 1 0 1-3v-1m-64 1-1 1-1-1h2m2-1c0 1-1 2-2 1v-1h2m6 1v1l-1-2 1 1m99 0c-1 3 0 4 2 4s3-1 3-3c-1-2-5-2-5-1m-50 2c0 2 0 3 1 2l-1-4v2m54-1c0 1 0 2-2 2s-2-1-1-2c0-2 3-2 3 0m15-1v1-1m20 2-1 2 2-2v-2l-1 2m-149-1-1 1-1 1v-2h2m8 1-1 1c-2 0-2-2-1-3 0 0 2 0 2 2m1-1h-1l1-1v1m12 0h-4l2-1h2v1m69 1c0 2-1 4-2 3v5l2 2-3 1h-2v-6l1-2 1-2 1-2c1-1 2-1 2 1m-114-1-1 1c0 1 0 1 0 0v-1h1m-8 2c2 3 4 5 6 5l2 1c2 2 4 3 8 3l5 1h-1l-1-1h-1c-3 1-7-1-7-3l-1-1-3-1h-2l-5-4-1-2 1 2m20 0c-1 1 0 3 2 3s3-2 2-3h-4m3 1-1 2c-2-1-2-4 0-3l1 1m88-1v1l-1-1h1m6 0c1 2-1 5-2 3v-3h2m14 1-1 1-1-1h2m-132 1c2 2 3 4 2 5-1 2 2 6 4 6l2 1h2v-1h1l1-1c-3-2-1-2 5-1h2-9c-2 3-8 0-7-3 0-3-1-5-3-6l-1-1 1 1m171-1v4l2 1h3l-1-2c0-3-2-4-4-3m-59 3v1l-1-3c1-1 1 0 1 2m26-2c1 2 0 4-1 4l-2-2c0-2 2-3 3-2m37 0c1 2 0 3-2 3h-2v-1c0-3 2-3 4-2m5 1v1l1-1c0-1 0-2-1 0m-92 0v1h2l-2-1m5 0c0 1 0 2 1 1v-1h-1m23 1c2 1 1 2 0 1-2 0-2 0-1-1h1m34 0c-1 1 0 3 2 3l1-2-3-1m10 1 2 2v-3l-2 1m-7 0-2 2v-3l2 1m9 1h-1v-1c0-1 1-1 1 1m17 0v3c1 3 0 5-1 5l-1 1c-1 0-2 0-3-2-2-2-4-1-6 1l-2 1c-2 0-3 1-3 4s0 3-2 4-3 0-5-2l-2-2h-7c-7 0-8 1-8 2l-1 2v1l-1 1v5l-1 1v7a99 99 0 0 1 2 6l1 1 1 2c3 2 2 6-1 6l-3-2c0-2-6-2-8 0s-3 2-5 1l-2-2v-2l-2-3v5l1 1 2 1c3 2 6 2 7-1 1-1 6-1 6 1l4 2c4-1 5-8 1-8l-1-2-1-1v-2l-1-2-1-5 1-2 1-1 1-1v-4c-1-1 0-2 1-4l1-1c1-1 11-2 12-1h1l1 1c1 5 9 3 9-1l1-2 1-1 1-1 1-1h6c1 1 5 0 6-1v-9l-1 1m-220 1v1s2-2 1-3l-1 2m164-1-1 1-1-1 1-1 1 1m-9 2h2l1-1v2l-1 2v2h-2c-2 0-2 0-2 3l-1 3-1-1-1-1v-7c-1-1 0-2 1-2l2-1 1-1 1 2m1-1c0 1 0 1 0 0v-1 1m-39 1c2 2 1 5-1 5h-1v9h-7c-1 0-2 0-2 2 0 1-1 2-3 1s-1-3 0-4l2-1-1-1-1-2v-2c0-4 1-4 6-4h4v-3h4m64 1c-1 1 0 2 1 3l3-1c0-1 0-1 0 0h-3c-1-2 1-3 2-2h1c-1-2-3-2-4 0m-31 2c1 3 0 5-3 5s-4-1-3-5c0-2 5-1 6 0m-89 0c5 1 7 2 6 3l-1 1 1 2v3l1 1 3 1 1 1h1l1 1h1l2 1h6l1-1 2-1 2-1c1 0 1 0 0 0-1-1 0-2 1-1l6 4h1l3 2 3 2v1l-2-1-1-1h-1l-1-1c-1-1-1-1-1 1l1 1v2l1 2 1 2v1l1 2v2l1 2v1l1 1v2l1 2 1 2v1l1 1v2l1 2 1 2v2l1-1 1-2 1-1v-1h1c0 1 0 1 0 0l1-1v-3l-1-1-1-2h2l1 1 1 1h1l1-1v-1l-1-1h2l1-1 2-3c2-1 2-1 1-2s0-1 1-1h1c0 1 0 1 0 0l3-3h2l4 4 1 1h3l1 1h6l3-1 2-1c0 1 0 0 0 0 0-1 2-3 3-2l-2-2c-3-2-3-2-4 0l-3 1-3 1h-1l-1-1-1-1h-1l-4-4-4-1c-6 1-8 1-8 3 0 3-6 7-7 4h-1c-3 0-5-5-4-6s-1-3-4-4a55 55 0 0 1-6-4l-3-2c-5-3-7-4-9-3l-1 1h-1c-2 2-10 0-10-2l-1-1-1-2v-2l-1-1h-2l-2-1-3-1h-2m187 1v1c-1 1 0 1 0 0v-2 1m-252 2-1 2 1-2 2-2-2 2m195-2c-1 1 0 3 2 2h-1l-1-1h1l1-1h-2m-68 1v1l-1-2 1 1m62 1-2 3-1-3h3m-63 1c1 1 0 2-1 1h-1c-1 1-1 0-1-1h3m32 1v-1c0-1 0-1 0 0v1m-54 0 1 1v1c0 1-2 2-3 1-2 0-2-3-1-4l3 1m18 0-1 1v-1h1m7 0h-2 2m31 1-1 1v-1h1m-39 2h-1c0 1 0 1 0 0v-1l1 1m-14 0-1 1-1-1h2m-7 2h-1 1m3 0v2c1 0 1 0 0 0l-2-2h2m2 2v2l-1-2 1-2v2m15 1v2l-1-1-1-1-2 1h-2l-2-1h-1l4-1 5-1v2m128 0v1l1-1v-1l-1 1m-86 1 3 1c3 0 5 2 3 3-1 0 0 0 0 0v4c2 1 0 11-1 11s-6-3-7-5l-1-1h-1l-1-1v-3l1-2 1-2v-5h3m-51 2v-1h1c2 1-1 3-2 2l-2-1v-1l3 1m-123 4-2 1 2-1 1-2-1 2m173-2v2-2m-38 1h-2v1h6-1l-2-1h6-7m-14 1v1l-2-2 2 1m64 1-1 1-1-1c0-2 0-2 1-1l1 1m-67 0-1 1-1-1h2m3 2c-1 0-2 0-1-1l1 1m51-1c-2 2 0 4 2 4 2-1 2-4 0-4l1 3c-2 1-4 0-3-2v-1m13 1v1c-2 0-3-2-1-2l1 1m-44 0h-4 4m-22 2-1 1v-2l1 1m21 0-1 1c-1 0-2-1-1-2l2 1m117 0v1c0 1 0 1 0 0v-1c0-1 0-1 0 0m-136 2-1 1v-2l1 1m18 0-2 1c-1-1 0-2 1-2l1 1m-20 1-1 1v-2l1 1m49 0a53 53 0 0 0 6 5l-6-5m-175 2s0 1 0 0v-1 1m130-1c0 1-1 2-2 1l1-1h1m13 1h-1v-1l1 1m-16 1h-1l-1-1c1-1 2 0 2 1m2 1h-1v-1l1 1m3 0-1 1-1-1 1-1 1 1m2 0-1 1-1-1 1-1 1 1m3 0c2 2 2 3 1 3s-4-3-3-4l2 1m3 0-1 1-1-1 1-1 1 1m2 0-1 1-1-1 1-1 1 1m-15 1-1 1v-2l1 1m134 0v1l1-1v-1l-1 1m-262 1v2l1 4c2 4 2 3 0-2l-1-3v-3 2m131 0v2l-1-1-1-1h2m3 0v2l-2-3 2 1m8-1-1 2-1-1 2-1m-4 2v2l-2-2h2m121 3-1 1 1-1 1-2-1 2m-127-1-3 3c-1-1-1-1 1-2 0-1 1-2 2-1m2 1h-2l1-1 1 1m-1 2-1 1-1-1 1-1 1 1m2 0-1 1-1-1 1-1 1 1m-2 2h-2l1-1 1 1m2 0-1 1-1-1h2m119 2-1 1 2-3-1 2m-121 0-1 1-1-1h2m-129 1 1 1-1-1c-1-1-1-1 0 0m4 3 5 3-2-2-3-1m239 4-1 2 1-2 1-1-1 1m-235 4v2-2m226 8-1 1 2-2-1 1m-230 4c-1 1-1 1 0 0v-2 2m4 7 3 2-1-1-2-1m4 3 1 1v-1h-1m209 2-1 2 3-4-2 2m-212 2-3 2a47 47 0 0 0 6-4l-3 2m-2 5 3 4-3-5v1m203 7-1 2 2-2 1-3-2 3m-199-1 1 1v-1l-1-1v1m196 5-1 2v2-2l2-2v-1l-1 1m-195 0v1-1c0-1 0-1 0 0m195 7 1 1-1-1c0-1 0-1 0 0m1 3v2-2m-198 3v1-2 1m199 1v1-2 1m-200 2 1 2c0 1 0 1 0 0v-2h-1m71 6h2-2m4 1c0 2 0 2 1 1l-1-2v1m-7 0h1-1c-1 0-1 0 0 0m-13 2h1l1-1-2 1m-2 0h1-1c-1 0-1 0 0 0m-49 1 3 1h-1l-1-1h-1m45 0c-1 0-1 0 0 0h1v-1l-1 1m-8 1h3-3m-32 1 1 1-2-2 1 1m29 0h1l-1-1v1m-26 1 2 1v-1h-2m15 0v1l1-1h-1m49 3c0 1 0 1 0 0v-2 2m1 10v1-2 1m129 3s0 1 0 0v-1 1m-129 4v2-4 2m0 6 1 2v-2h-1m1 4v1-1c0-1 0 0 0 0m0 8v1-2 1m1 4v1-2 1m0 4v1-2 1m-1 9v4l1-4v-4l-1 4m0 11v1-2 1m-1 4v1-2 1m0 9v1-3 2m-1 10v1-1c0-1 0-1 0 0m-1 5v1-1c1-2 0-2 0 0m-1 4 1 1v-2l-1 1m0 3v2-3 1m-1 5 1 1v-1c-1-2-1-2-1 0" fill="#538bc7"/><path d="M217 13a308 308 0 0 0-31 2l-13 2-4 2-3 1v1h-2a443 443 0 0 1-31 14l-6 6a158 158 0 0 1-15 15l-2 3c-3 2-4 4-6 9a232 232 0 0 1-9 24l-3 6c-1 4-2 5-1 7l1 3 1 1 1 1 1 3 1 4 1 3 1 1 1 1v2l2 4v2c0 1 0 1 0 0l1-1a775 775 0 0 0 16-16v-2l-1-2-1-2v-5l-1-1v-4l-1 1h-1l1-1 1-1-1-1c-1 0-2-1-1-2v-3c-1-1 1-4 2-4v2l-1 1h2v1l1 1 1 1 1 1 3 2c1 2 2 2 2 1h3c0-1 0-1 0 0v1l-1 4v3l-1 3-1 2v1l-1 4v2l2-8 1-4 1-5 1-5c1-2 1-4-1-4-2 1-6-4-6-6v-3c-1 0-1 0 0 0v-2l1-2v-1l1-1v-1l1-1 9 3c2 1 3 1 5-1a175 175 0 0 1 11-9l7-7 3-3 1-1 6-4v-5c0-2 2-4 3-4l1-1h3l1 1 3 2h1a177 177 0 0 1 8-1 205 205 0 0 1 22-6h2l-1-1h1c5 0 8-1 7-3v-3l1-2c2-2 2-2 3 1 0 2 0 3 1 2 2-1 3-2 5-1 1 0 3 1 3 3l2 2a293 293 0 0 1 3 0l-1-1v-3h-1v1l-1-1c0-3-8-6-9-3-1 1-2-3-2-6 0-5 0-5 4-5h4l4-1 6-1h5c6 0 4 0-5-1a1429 1429 0 0 1-22-1m9 0-6 1h-4v-1h10m-18 1-1 1v-1h1m6 2v1-2 1m36 0h2-1l-1-1v1m-69 1h-2 2m6 0h-2l-1 1c-1-1 0-2 2-2l1 1m66 0h2-2m-76 0 3 3 1 1 2 1h1l2 2 2 2h2c0-1 0 0 0 0l3 3 2 1 2 2 1 1 2 1 2 1 2 2h1l-1 1h-2l-3 1h-2l-2 1h-2l-2 1-3 1h-3a73 73 0 0 0-3 1l-1-4v-2l-1-3v-1l-1-1-1-3v-2l-1-1v-2l-1-1v-2l-1-1v-3h2m79 1 5 1-5-1m7 2 1 1v-1h-1m2 1 7 2-4-2h-3m8 3 5 1h1-2l-2-1h-1l-1-1v1m7 2 2 1h1l6 3-1-1h-1l-1-1-4-2h-2m14 7 2 1a20638 20638 0 0 1 11 7l3 4a122 122 0 0 1-7-8 99 99 0 0 1-9-4m-78 5h-4l-4 1-3 1h-1 6v2c1 0 1 0 0 0v1l3 1h2l1 1 2 2h-4c-5 0-6 0-7-3l-4-1c-4 1-4 1-4 5s0 4 5 4h3v-2h11l-2 2c-2 2-3 2-5 1h-16v1l1 2v1l1 2v1h-4l-2-1-1 2c0 2-1 3-1 1l-1-1v-4l1-3c0-2 0-3-2-2-1 0-3-1-2-2v-3c-2-1-1-2 1-2h2v-1h-1l-2 1h-2l-3 1c-2 0-2 1-2 2a4069 4069 0 0 0-2 10v4h3l4 1 3 1h2v1h-3c-1 0-2 1-1 2v1l1 1 3 1h1v9h2l1 4c0 4 0 5-2 5l-3 1 8 1c1-1 2-4 0-4-1 1-2 0-1-1l1-2v-1 1c0 2 2 2 2 0l1-1h1c-2 1-2 1-1 2h9l-1-1-2-2 2-2 1-1c-1-1-4-1-5 1 0 2-1 2-4 2-4 0-5 0-4-5 0-4 0-3 4-4 3 0 4 0 4 2 1 3 5 2 5-1 0-1 0-2-2-2s-4-1-3-2l1-6c0-7 1-8 1 0 0 6 0 6 2 6h12V58c0-3 0-3-2-2l-2-1h-10l2-1h11c3 0 3 0 3 4 0 3 1 4 2 4l1-13-3-1c0 1 0 1 0 0h-1 1c3 0 5-4 2-4l-2-2-1-2-1-2h1-3m13 1-1 2c0 3-1 4-2 4v17h1l2-1 3-1c3 0 3 1 2 5l-6-1c-1-2-2-1-2 3 0 5 0 5 3 5h6v11c1 11 1 11-2 11-1 0-1 1 1 1l1 2 2 2 1 1 2 1-1-11v-2l1-5c0-4 0-4 2-4 1-1 1-2-1-2l-1-2c0-2 2-2 3 0l1 1 1-9c0-4 0-5-2-4h-1l-1-1c-1-1 0-2 2-2h13c4 0 5-1 3-2l-1-4v-3h2c4 0 5 3 3 6-2 2-1 3 1 3h20v-1l-3-4c0-2-4-4-6-4l-2-1-6-2h-2l-2-1h-2l-2-1h-1l-5-2-1-1h-2v1h-3l-2 1h-2v8-4c0-4-1-5-2-4l-5 1h-3v5l-1-2c2-1 0-2-2-2s-3 1-2 2l-1 1v-1l-1-2c-1-1 0-2 1-2s2 0 2-2c1-2 2-3 2 0 0 2 4 3 5 1 1-1 0-6-1-5h-2v-1l3 1h1l-3-1c-3-1-4-1-5 1m13-1 2 1 2 1 5 1-3-1-1-1h-2l-2-1h-2 1m-3 2h2l2 1 6 2-3-2h-2l-2-1h-2l-1-1v1m-4 0c2 2 1 4-1 4s-2 0-3-2c0-2 2-3 4-2m-34 1-3 1a43 43 0 0 0-8 2c-1 0-1 0 0 0l3-1h3l3-1h2l2-1h-2m51 1h2-1l-1-1v1m4 1 4 1 3 1 5 2 5 2c4 1 8 2 10 1 4-1 8 2 7 5l2 5a590 590 0 0 1 16 18c6 7 5 7 7 7 4 0 5 3 3 5-1 2 0 6 1 8l1 2v2h1l-1-1v-2l-1-2v-5l1-1 1-1c1-2-1-6-4-6l-1-1-1-1v1c-1 2-5-2-10-8l-1-2-5-5-2-3-4-5-1-2h1c2-1 1-4-2-7l-4-3v-1h-2l-1 1h-2l-2 1c0 1-5 0-9-2h-2l-2-1h-2l-2-2-3-1h-4c-1-1-1-1 0 0m-49 3c1 1 1 2 6 2h5-5c-5 0-6 1-6 2l-4 1c-3 0-3 0-3-4v-2h3l4 1m47 0v10h-10v-5l1-5 2-1c1-1 6 0 7 1m-31 0-1 1-1-1 1-1 1 1m33 0 2 1c1 0 1 0 0 0l-4-2 2 1m-66 1c-1 1-1 2 1 1l1-1c0-2-1-2-2 0m-6 0v2h-2c-1-2 1-3 2-2m56 2c0 3-1 4-3 4-3 0-3-1-3-4 0-2 0-2 3-2h2l1 2m1 2v-2 2m24-2h3c8 2 13 5 9 5h-1v1l1 2 2 1 2 1h-15v-1l-1-2v-3l-1-3v-2l1 1m-74 2c-1 1 0 2 1 2l2-1c0-2-3-3-3-1m65 1v-1c0-1 0-1 0 0v1m11-2c-1 2 0 7 1 7l1-1h1c1 1 3 0 2-2l-2-4h-3m-74 1-1 1v-1h1m78 1c1 2 0 3-2 3s-3-2-2-3h4m-104 1-3 3-2 1h11v-4h-6m20 0v4c-2 2-5 0-5-2 0-3 3-4 5-2m44 1c0 2 0 2-2 2h-1v-4h1c2 0 2 0 2 2m-2-1v1c1 0 2 0 1-1h-1m-31 2c-1 1-2 0-2-1h2v1m80 0-1 1-1-1 1-1 1 1m-136 3v-2 2m101-2 3 1h3-2c-3 0-3 2 0 2h2-3l-2-1-1-1-1-1h1m-34 1h2l-3 3-2 3h-1c-1 0 0-7 1-6h3m-65 2v-2 2m110-2h-2c-1 0-1 0 0 0h2m17 0 1 1h1l-2-1m-28 1-1 1-1-1h2m-13 1 2-1h3v1h-5l-2 1-1 2v-4l3 1m7 2v3h3-4v-6l1 3m-76-2v14l1 3 1 3v3h-6l-1-1-1-1h-2l2 1v7l-2-2-1-2c-2 0-2-1-1-2v-2c-1-2 0-2 3-2l2-1 1-1c2-1 3-3 2-3v-3l1-1-1-2a206 206 0 0 0 0-5c1-2-1-2-3 0l-1 2h-1l-1 1-2 2-12 9c-2 2-1 2 4 2 4 0 3 0 3 1h-3l-2 1h-1 10v2l-1 2c0 2-1 3-2 2h-1v-1l-2-2-3-1v3c-1 1 0 2 3 2l4 1c0 3 3 4 5 3l3-1h3c2-1 2 0 2 1l-3 1h-3v20h1c2 1 2 1 2 5s0 4-2 5h-1v7a351 351 0 0 0-1 20c-2 0-3-3-2-4v-23l-1-1-1-1-3-2h-8c-1-1-2 1-1 3l-1 3-1-2v-4h-9c-2-1-3 0-3 3 0 2 1 3 2 2 2-1 3 1 3 2l-2 1c-2 1-2 2 5 11 7 10 9 11 10 11h2l3 1 1 1c0 2 5 4 7 3h1l4 1h3l1-3c0-3 0-3 2-3l1-2-1-2-1-1c-2 0-7-6-6-6h4c1-1-3-2-4-1h-2v-2l1-4v5h1l1-7c0-8 0-8 7-8s7 0 7 4c0 2 0 2 7 2h5v-5c0-7 0-7-4-7l-4 1-3 1c-4 0-4 0-4-6l1-1h1v-9l-1-8-1 3c0 2 1 2-6 2-5 0-5 0-5-2v-2l1 1c0 2 6 2 8 1l1-3v-2c0-3 0-3-5-3l-4 1h-1c-1-1 1-3 2-2h2l3-1c4 0 4 0 4 4 1 5 2 2 2-4v-6h-3c-4 0-4 0-4-9s0-8 4-8h3v-4h-6l-6 1m-23 2h2c0-1 0-1 0 0h2l1-1v1h2l1-1 1 1-7 1-7-1h1c1 1 3 0 3-1v-1l1 1v1m64 2c0 5 0 6-2 4h-2l-1 1h-6v-3l3 1h4c3 0 4 0 3-4l1-3v4m-71-2v1l-1-1v-1c2 0 2 0 1 1m64 0c1 2 0 4-1 4-3 0-4-2-3-4h4m6 1c0 2 0 3-2 3s-3-1-2-2c0-3 4-3 4-1m-74 0a855 855 0 0 1 22 3l-2 2-4 3c-5 5-8 6-8 5l-2-1c-2 0-5 0-7-2a95 95 0 0 1-15-7c-3-2-3-2-3 1v3l1 2v2c1 0 1 0 0 0v4l1 2 1 1c-2 1 0 3 2 3v1l-3 2h3l-1 1h-3l1 2c2 2 2 3 0 5l-1 1v5h-1v-6l-1-1-1-1v5l-1 1-1 1c0 1 1 2 2 1 0-1 0-1 0 0l-1 1-1-1-3-3v2l1 1 1 2v1c0 1 0 1 0 0h-2l3 4v-1l1-1c0-1 0-1 0 0 0 2 1 2 2 2v-5l1 3v4l-1-1h-3l-2-1-1-1h-2l-2-1h-1l-4-2h-1l1-1v-2l1-2 1-1v-1l1-2v-2l1-1v-1l1-1v-2l1-1 1-2v-1l1-2v-1l1-2 1-1v-1l1-2v-1l1-1v-2l1-1v-2l1-2 1-1v-1l7-1h13m151 0v5h-3v-5h-5l-5 1h-1c-2 0-3 0-2 1l2 1 2 1h2c1-1 1 0 1 3 0 4 1 5 4 5 1-1 2 0 2 1v10c-1 1-2 0-2-1v-9c-2-2-4 0-4 4v4h-3c-4 0-4 0-4 2l2 1 3 1-1 3v1c2 1 2 3 1 4-2 0-4-1-3-3v-1h-2a600 600 0 0 0 3 14h8l1-3v-1h1l2-1c0-2 0-2 1-1s0 4-1 3l-3 1c0 2 1 3 5 3 5-1 5 0 5-4s0-4 9-4c8 0 8 0 8 4l2 5c1 0 2-2 2-7l1-5v6l1 5v1h1l-2 1c-4 0-5 0-5 4 0 3 0 3-3 3-4 0-4 1-4 4v2h-5c-5 0-6 0-6 2h-3c0-1 0-1 0 0h1l1-2v-4l1 1v1c9 1 10 1 9-2 0-2-1-2-2-1h-5l-1-4v-4l-9 1c-1 1 1 3 3 3h2v2l1 2-2 1c-2 1-3 1-3-1l1-1h1l1-1 1-1h-7l1-3c0-1-1-2-2-1h-8l-1 1-2 2 2 1c2 0 3 1 3 2 0 2 0 3 1 2l1 1 1 2 1 1v1l2 1 2 1 1 1 8 1h36v-3c-1-1 0-2 1-2l1-1h1l2-1-2-5v-1l-1-2v-2l-1-2v-2l-5-12-7-1-1 1h-1a3565 3565 0 0 1-21 2c-4 0-4 0-4-3v-3l3-1h4v3h23c2-1 1-6-1-7-1-1-1 0-1 2 1 3 0 3-4 3l-3-1v-3c0-3 1-4 4-3 2 0 2-1 0-4l-4-4-11-12a65 65 0 0 1-13 0m-43 2c0 1 0 0 0 0v-1 1m5-1h-2 2m7 0v10c0 6 0 6 2 5h2c1 1 1 0 1-4l-1-4h-2l-1-1h1c0-1 1-2 2-1v-1c1-1 2-2 5-2l3-1c2-1 1-1-4-1h-8m46 1 2 3a69 69 0 0 0 7 8 50 50 0 0 0 5 5l1 1h-7l1 3 1 5 2 1h-3l-2-1-1-1-1-2-3-4v-1l-1 1h-1v-2l-1-1a216 216 0 0 1-4-5c-1-4-1-4-5-4h-4v1l-1 1v6l-1 5V70c-1-1-1 0-1 1l-2 1h-1l1-2 1-1h9c0-1-1-2-3-2l-1-2c-1-2-1-2 4-2h5l2-1 2 2m34 0 5 8 3 4h1l-4-6a481 481 0 0 1-5-6l-1-1 1 1m-159 0v13l13 1V64h-5l-1 1-2-1h-5m53 1-1 3v2c-1 1 0 1 2 1l1-3c0-4-1-5-2-3m28-1-1 1v1c0 1 0 1 0 0v-2h1m24 0v2c0 1 0 1 0 0h-2l-1-1-2-1h-1 6m-45 6v1l-1-3v-3 2l1 3m-74 6-1-5v-6 5l1 6m79-10h-2 2m33 1h-2l-4 3c0 2-4 3-5 1s-1-1-1 3c0 5 0 5 4 5h3v2h7v-2l-1-3-1-2 1-2 1-3c0-2-1-3-2-2m23 0v1l1-1h-1m-138 6c1 5 0 6-1 5h-6c-6-1-6 0-3-3 6-6 9-8 9-7l1 5m1-2v-2 2m12 3 1-2v2l1 6-1 1v3h-7v1l-1 1v-3h7v-4l-1-5-1-1v-4c1-1 1 0 1 2l1 3m128-4c-1 2 0 3 1 3 2 0 2-2 1-3 0-2-2-1-2 0m-21 1c0 1 0 3-1 2l1-4v2m-113 0h-1v-1c1-1 1-1 1 1m12 0-1 1c-1 1-1 1-1-1l1-1 1 1m95 0h-1l-2-1h1l2 1m-31-1c1 1 1 1-1 1l-3-1h4m52 0v7h-7v-7h7m8 0c1 1 0 2-1 2v-2h1m-96 1-2 1h-2v2c-1 2-2 1-2-2v-2h3l3 1m-13 1-1 2-1 3v2h-4l-3 1v10h3c3 0 3 0 2-2-1-1 0-5 1-5l2-2 2-1 2-3-1-3c0-3-1-4-2-2m-29 2h2-1l-1 1-1 1 1-3v-1 2m52-2c-1 2 0 3 1 4 1 0 2-1 2-3s-3-2-3-1m4 0 1 4 1-2v-2h-2m24 4v-5 5m54-3c-1 0-1 0 0 0h1-1m-98 4c-1 1-1 0-1-2v-2l1 1v3m102-2c0 3 0 3 2 3 4-1 4-5 0-5h-2v2m-148 0c0 3 2 3 3 0l-2-1-1 1m1 0v1l-1-1 1-1v1m34 0-1 1h-1l1-1v-1l1 1m117 0c0 1 0 2-2 2-1 0-2-1-1-2h3m-184 3v-2 2m55-2v1l-1-1h1m6 0h1l-2 1-2-1h3m12 2-1-2 1-1v3m84-2v4l-1 4v-5l1-4v1m2 5v-4 4m-167-3h1l-1-1v1m230 0v2l1 2c1 1 1 1 0 0v-2l-1-2m-128 0 1 19 1-5v-5h1c2 0 2 0 2-5v-4h-5m-59 1h-1v-1l1 1m87 1c0 1 0 1 0 0v-1 1m-128-1v1h2l-2-1m131 2-1-1 1-1v2m43-2v8h2l2-1 2-1c0-1 0-1 0 0l-1 2-1 1h-5v-4l-1-5h2m3 0-1 1v-1h1m-112 1-1 1v3-2l-1-1c-1-1 0-1 1-1h1m5 0v1l-2-1h2m-72 1 1 1v-2l-1 1m8 0h-2 2m54 0h-1v-1l1 1m2 0v1l-1-1 1-1v1m113 4v-3 3m-117-2v1c-1 0-1 0 0 0v-2 1m124 1v-2 2m-187-1 1 1v-2l-1 1m4 0c-1 1 0 1 1 1l-1-2v1m2 0 1 1 1-1h-2m229 0v2h1-1v-2m-44 1-2 2v-2h2m-58 2v-2 2m-134 0h2l-1-1-1 1m4 0h1l-1-1v1m2-1v1h2l-2-1m203 1v1-2 1m-39 0v1c0 1 2 3 4 3l-2 1c-3 0-4 0-4-2 0-3 0-4 2-3m-121 0v2l-2-1 2-1m188 1 1 3 2 10v3-3l-1-8a48 48 0 0 1-2-5m-201 0v1l-3 2c-2 0-2 1-1 2s-1 3-2 4c-2 0-3 2-3 3v3l-1 1h1l2-2v-4l4-1c1 1 3 0 3-2l1-2v2c0 2 0 2 6 2h4v-4h4l-1 5v4h-8v-3l-5-1c-5 0-5 0-5 6v4h10v-3h8v6l-1 1-1 1-1 2c0 1-1 2-2 1h-8l-1-1 1-1v-5c-3-1-7 2-4 3v4h-4v-3c0-3-1-3-2-3s-2 0-1-1v-4l-1 2c-1 4 0 4 1 4 2 0 2 0 2 2v2h-2l-3 1 6 1c6 0 7-1 5-4-1-2-1-3 1-3s2 1 1 3c-2 3-1 4 6 4l6-1 1-1c2-1 2-2 2-11v-9c1-2 0-2-2-2-3 0-3 0-3 2v1h-8v-8h-2m-36 1h2l-1-1-1 1m2 0 1 1 1-1-1-1-1 1m3 0 1 1v-1h-1m-7 0c-1 1 0 2 1 2v-1l-1-1m54 1-3 1c-2 0-3 0-2-1h5m155 1h-2l1-1h3l-2 1m-206 0 1 1v-2l-1 1m3 0v1l1-1h-1m2 0v2c-1 0 0 2 1 1 2-1 2-2 1-3h-2m172 3-1 2-2-1h1c3-1 2-2-1-2l-3-1h5c0-2 1-1 1 2m-179-2v1c1 1 2 0 2-1h-2m13 0c-1 1 0 2 1 1l-1-2v1m159 2v1l-1-2c0-1 0-1 0 0l1 1m-170-1 1 1v-1h-1m73 8v9h1l1 2 1 1h2l5-1c1-1 0-3-1-3-2 0-2-6-1-7s0-2-1-3c-2 0-3 0-3-2 1-1 1-2 3-2h2l1-2h-10v8m-79-7c0 1 1 2 2 1l-1-1h-1m4 0 1 1v-1h-1m13 1h1l-1-1v1m2-1v1c1 1 2 0 1-1h-1m70 1-1 4v1c-1 1 1 2 3 2l3 1h3v-9h-6c0 1 0 1 0 0l-2 1m129 0 2 5 1 1v1l1 2v3l1 1v2l1 2 1 2v2c1 3 1 3-1 1l-2-2-1-2c-2-1-2-1-1-2 2-3 0-7-3-7h-3l2-1 1-5h-6l-1 1v-5l8 1m-25 0-1 1v-1h1m2 0v1h-1l1-1c1 0 1 0 0 0m-189 1c-1 1 0 3 1 3v-2l1-1h-2m92 0 1 2v-2c0-2-1-1-1 0m18 0 1 2 1-2-1-1-1 1m83 1v1h-4c-3 0-3 0-2-1h6v-1 1m-196 0h2-2m117 0 1 1v-2l-1 1m2 0 1 1v-2l-1 1m67 0-1 1h-3l-1-1h5m-170 1v1l2-1h-2m-20 0 1 1v-2l-1 1m53 0 1 1 1-1-1-1-1 1m-50 1v1l1-1h-1m48-1 1 2h2l-3-2m124 2v1l1 1h-1v-3 1m3-1v1h1c0-1 0-1 0 0l-1 1h-1v-1l1-2v1m7 2v-2 2m-130-1v1-1c0-1 0-1 0 0m44 0v1c1 1 1 0 1-1h-1m6 1h2l-1-1-1 1m109 1h-1l-1-1h1l1 1m-215-1 1 1v-1h-1m2 0c0 1 1 2 2 1l-1-1h-1m3 0v1c1 1 2 0 1-1h-1m186 0v10l1 2h1v-1l1 1 3 1h8l-1-4v-3c1-2 2-5 1-6h-14m18 1h-1v-1c1-1 1-1 1 1m-163-1v4h-5v-4h5m106 2-2 1c-3 0-3 1 0 2l2 1 1-2 1-1c2 0 2 0 2-2-1-1-3-1-4 1m5-1c-1 1 0 2 1 2 2 0 2 2 2 6v2l1 1 4-1-2-1h-1v-4l1-3c2-1 1-2 0-2h-6m47 0h-10l5-1 5 1m-103 1v1c1 0 2 0 1-1h-1m87 0-1-1 1 1m-139 0v1h-2c0-2 1-2 2-1m-34 4v-3 3m2 0v-3 3m169-2v1l-1-2v-1l1 2m-186-1 1 1 1-1-1-1-1 1m3 0v2c1 0 3-2 2-3l-2 1m53 0h-4l2-1 2 1m50-1 2 1-1-1h-1m2 1h2l-1-1-1 1m-68 1c0 1 0 1 0 0v-1 1m30-1v6l-6 1v-7h6m21 1c-1 2-1 3 1 3 3 0 3 0 2-3l-2-2-1 2m21-1 1 1v-1h-1m114 0v2l1 2 1 2v2l1 1v1l1 2 1 2c0 1 1 2 2 1l2 2c1 3 1 5-1 6l-1 2c0 1-1 2-2 1l-2 1v1l-1 1-1 4-1 2-2 5c-4 6-4 8-3 9v6c-1 1-5 2-6 1h-6l-1 1-1 1-1 1-1 2c0 4-8 6-9 1l-1-1h-1c-1-1-11 0-12 1l-1 1c-1 2-2 3-1 4v4l-1 1-1 1-1 2 1 5 1 2v2l1 1 1 2c4 0 3 7-1 8l-4-2c0-2-5-2-6-1-1 3-4 3-7 1l-2-1-1-1v-4l-9-7c-1-1-3 1-3 2 0 0 0 1 0 0l-2 1-3 1h-6l-1-1h-3l-1-1-4-4h-2l-3 3c0 1 0 1 0 0h-1c-1 0-2 0-1 1s1 1-1 2l-2 3-1 1h-2l1 1v1l-1 1h-1l-1-1-1-1h-2l1 2 1 1v3l-1 1c0 1 0 1 0 0h-1v1l-1 1-1 2-1 1v-2l-1-2-1-2v-2l-1-1v-1l-1-2-1-2v-2l-1-1v-1l-1-2v-2l-1-2v-1l-1-2-1-2v-2l-1-1c0-2 0-2 1-1l1 1h1l1 1 2 1v-1l-3-2-3-2h-1l-6-4c-1-1-2 0-1 1 1 0 1 0 0 0l-2 1-2 1-1 1h-6l-2-1h-1l-1-1h-1l-1-1-3-1-1-1v-3l-1-2 1-1c1-1-1-2-9-3-5-1-8-1-5 1l-1 1h-1v1h-2l-2-1c-2 0-5-4-4-6a57 57 0 0 0-13-19c-1-2-1-2-3-2-3 1-4-6-2-7l3-4h-1l-1 1c-1-1-2 0-2 1v1l-1 2-1 1v3l1 1 1 1 2 2c0 2 3 2 3 0h1l1 1 1 1 1 2 2 2 2 3 1 1 3 4v2l-1 1v5l1 2v2l2 1h1l2 1h1l-1 3v2l-1 2v2l-2-2-2-2c-1 1-1 1 1 3a134 134 0 0 1 14 15l3 3 5 6 5 6 5 5 5 5c1 2 5 3 6 2l4-1h3l3-1h3l9-1h2c0-1 0-1 0 0h2l2-1h1l1-1v1l1 1 1-1c-1-1 0-1 2-1l1-1h3l3-1h3l4-1h3l2-1 3-1h3l4-1h3l3-1 3-1h3l4 3 2 1h1l2-1h1l1-1 1-1 1-1 2 2 2 1 1 1h3l1-1 3-2 2-2v-3l-1-4-1-1 1-1 1-1 4-1 2-1c2 0 2 0 2-2l-1-3v-3l-1-3v-2l-1-2v-1l-1-2v-1c1-1 2 0 2 1 0 2 3 4 4 4l1 1h4l1-1h1l1-1 2-1v-1l1-2 2-3 1-1c1-1 2-1 3 1h7l2-2 2-2v-3l-1-3v-2h-2v-2l1-2v-1l1-1h1l2 1 2 1h1l1 1 2 1h2l1 1 3 1 8 3 1 2-1 2-1 2v3l-1 1v2l1-2a58 58 0 0 0 2-7 291 291 0 0 0-1-6l-1-2v-1l-1-2-2-2v-1l-1-1v-1l-3-4-3-3-1-2v-2l2-2 1-1 1-3-1-3-1-1-2-2-1-2h1l1-1h-1l-1-1c-1-1-2-1-2 1l-1 2-1-2-1-1v-2l-1-1v-2l-1-2-1-3m22 2-1-2 1 2m-27-1c2 2 0 6-3 6-2 0-3-1-3-5v-1h6m-6 1h-3 3m-164 0c-2 2-2 3 0 4v2l-1 2 1 1h1l1-1v-2h2v-4l1-1-1-1-1 1v1h-1l1 1v1h-1l-2-2h1c2-2 1-3-1-2m45 0v2l-1 2c-2-1-2 1-1 3 1 1 4 0 5-1h1c1 1 1 1 1-1l1-2c2-1 0-3-2-3h-4m65 3v-2 2m-161-2v1h-1c-1-1 0-1 1-1m16 3-1 1v-1h1m170 0h1c1 0 2 5 1 6s-1 0-1-2l-1-3-1-1h1m-141 1 1 2c2 2 3 1 3-2 0-2-3-2-4 0m137-1-1 1v-1h1m-134 1c1 1 0 2-1 2l-1-1c0-1 1-2 2-1m170 7v5h-5a562 562 0 0 1-8-2l1-1 1-4v-3h4l6-1h1v6m-149-3v2c-2 1-3 0-2-1l2-1m25 1v11h1l1-1-1-5c0-4 0-5 1-4l1-1h-3m4-1v1h2l-2-1m2 0v1h2l-2-1m-65 1-2 1c-2 0-3 0-2-1h4m187 0c1 1 1 3-1 3-1 0-2 0-2-2 0-1 2-2 3-1m-122 2v1l1-2-1 1m-10 4v4h-9v-2c-1-3 2-5 4-3v3l1 1 1-2 1-2v-2l-2 1v-1h1l1-1c1-2 2 0 2 4m6-4v1h1l-1-1m104 2v-1c0-1 0-1 0 0v1m-164 0h5v1l-1 1-2 1-1 5c0 5 0 5 5 5 4 0 4-1 5-3v-1c2-1 0-7-2-7-2 1-2 1-2-1v-1h11v2h-5c0 1 0 1 0 0s-1-2-2-1l1 2 1 2c-1 1-1 4 1 5h1l-2 1c-2 0-2 1-2 3v2h4v-2c0-3 1-3 2-2l2 1v1l1 1v8-4c0-4-1-6-2-2v2l-1 2-1 3v2l-2 1h-1l1-1 1-1v-2l-1-1-1-2v-2l-3-1c-3 0-3 1-3 4 0 2 0 3 3 3 2 0 3 1 1 1l-2 1-4-4-2-2-2-2-1-2-1-2h-1v-1l-1-3 1-3v-3h-1l-1-1-1-1-1-2h6m150 0h-2 1l1-1v1m-87 1 1 1v-2l-1 1m-4 1 1 1c1 0 2 0 1-1h-2m-40 1 1 1c0 1 0 1 0 0h-1l-1-1h1m44 0 1 1v-1h-1m103 1-2 1c-1 0-2 0-1-2 1-1 3-1 3 1m-135 0v7l1 3 1-3 1-3 1-1h1c-1 1 1 4 2 3v-2c-1 0-1 0 0 0v-2l1-1v2c-1 1 0 2 1 2l1-4v-2h-2l-8 1m-14 1-1 1-2 1c0 1 0 1 0 0l1-2h2m-10 1h1v1c2 1 0 4-2 4s-3-1-3-4c0-2 1-2 2-2l2 1m12 0v1c-1 1-2 0-1-1h1m42 0c-1 1 0 1 1 1 2 0 2 0 1-1h-2m86 0v1l-1-1h1m4 0v1l-1-1h1m15 1h-2 2m-133 2c0 1 2 3 3 2l-1-2h-2m113 0-3 1h-1c0 1-1 2-3 2l-1 1h3c5 0 5 0 5 6v4l-1 1c-1 1-2 1-1 2v4l-6 1-1-1v1h-2c-1 0-2 0-2 2l-1-2c0-4-1-4-1 0l1 3 2 1c4 0 4 0 4 2s0 2 1 1h5l2 1c2-1 4-1 3 2l1 1h1l8 1h2v-3a438 438 0 0 1 0-17v-13l-2-1h-13m-107 1 1 1 1-1h-2m124 0c0 2 1 4 2 3l2 1h-2l-1 1 1 1 1 1-1 1c-2 0-2 0-2 10l1 11 1-1v-1l1-1c0-3 4-5 6-4l3 1 2 1 2-1 2-1 5-8-1-3-1-2v-2h4l1-2 2-3v-1c1-1 0-2-2-2l-2 1c1 4 0 6-4 4v-3l1-1h-21m-9 0h-1c-1 0 0 0 0 0h1m-118 2h-1l-2 1h6c0-2-2-3-3-1m8-1v1c1 1 2 0 2-1h-2m4 0-1 1h3l-2-1m14 0 1 1v-1h-1m-5 0v2l1 2v-2l1-2h-2m-4 1h1v-1l-1 1m-38 0-1 3c-2 1-3-1-2-3h3m25 0v2l1-1c0-1 0-2-1-1m119 2v1h-1l1-2c-1 0-1 0 0 0v1m-116 0 1 1 1-1-1-1-1 1m5 0 1 2 1-1-2-1m5 0c-1 1 0 1 1 1v-1h-1m2 0 1 1h1l-2-1m125 4v4h-7c-1-8-1-8 4-8h3v4m-136-2v1l1-2-1 1m112 0-1 2-2-2h3m-119 1h1l2 1h3c0-1-4-2-6-1m11 0 1 1v-1h-1m10 0v-1 1m2 0c-1 0 0 0 0 0h1-1m-92 1v1l1-1v-1l-1 1m66-1c-2 0-1 6 1 6v-5c2-1 0-2-1-1m98 1v9l1 1c0 2 6 2 6 0l2-2c3 0 1-2-2-2l-2 1v2l-2 1v-7c0-4-1-5-3-3m38 0h1v3l1 1h9l2 1 2 1-1 1v2l-1 1-1 1c0 1 0 1 0 0l-1-2v-2h-6v3h-4l-1-1-1 1c1 1 1 1-1 1-3-1-4 0-4 2v2-13h1l1 1v4c-1 0 0 2 2 2v-3c2-1 2-2 0-3v-2c0-2 0-2 1-1h1m-116 1v1-3 2m-41 1v2c1 1 2 2 1 3l-1-1-3-1c-2 0-3 0-3-2s1-3 3-3h2l1 2m12 4v-4 4m126-4h-1v-1c0-1 0-1 0 0l1 1m8 4a688 688 0 0 1-1 18l-2 1c-2 0-3-3 0-3 2 0 2 0 2-4h-2c-2 0-2 0-2 2l-1 1v-10h1v4h5v-5h-2l-2-1h1c1 1 3 0 3-1l-1-1-1-1v1h1l1-2v-3l-2-2h2v6m-129-5c-1 1 0 2 1 1v-1h-1m10 0v1h2l-2-1m4 0v3l2-3h-2m4 0v1h1c1-1 0-2-1-1m121 0c-1 1 0 2 1 1v-1h-1m-201 2-1 2v1l1-3c0-2 0-2 0 0m90 0 1 1 2-2-3 1m96 1v3l-1-2 1-2v1m2 1-1-1 1-1v2m-117-1 1 1 1-1h-2m2-1v1c1 1 2 0 2-1h-2m7 0 1 2v-1l-1-1m105 2c0 3-4 4-5 2-1-3 0-4 2-4l3 2m15 0h-1v-1l1 1m-132 0v2l1-1 1-1h-2m10 0h1v-1l-1 1m11-1-2 1h4v-1h-2m69 1-1 2-1 2-1 2v6h2l3-1-2-2v-5c1 1 2-1 2-3s-1-2-2-1m44 1-1 2 3-2h-2m-203 1a81 81 0 0 1-1 2l1-2c0-1 0-1 0 0m63 0v2c-1 2-4 2-4-1 0-2 2-2 4-1m142 0v2l2-2h-2m8 1v3l1 2h-3l-2-1v-1c0-3 2-4 4-3m-27 1-1 1-1-1 1-1 1 1m-188 3v2l1-3-1 1m155-1c-1 1-1 1 1 1 1 1 2 0 0-1h-1m38 1-1 2c-2 0-3-2-2-3l3 1m9-1v3l-2-2 2-1m-41 2 1 1 1-1-1-1-1 1m-9 1-2 1c-1 0-2 1-1 2v7l1 1 1 1 1-3c0-3 0-3 2-3h2v-2l1-2v-2l-1 1c0 1-3 0-3-2l-1 1m-153 2-3 4 3-5v1m184-1c2 2 0 5-2 4-1-1-2-2-1-3l3-1m6 1c0 1 0 2 1 1v-2l-1 1m2 0 1 1h1l-2-1m1 4c0 1-1 2-2 1v-2c1-1 2 0 2 1m-197 2-1 1 2-3-1 2m43 1 1 1 1-1h-2m-45 2-2 3a155 155 0 0 1 2-3m41-1 1 1 1 1c1-1-1-3-2-2m7 0v1c1 0 2 0 1-1h-1m74 2c0 1 0 1 0 0h1l-1-1v1m-78 0v1c1 1 2 0 2-1h-2m4 0v2l1-2h-1m2 0 1 2v-2h-1m57 0 1 1 1-1h-2m-6 2h1l-1-1v1m2-1c-1 1 1 4 2 3 1 0 1 0 0 0v-2l-2-1m3 3 1 2v-4l-1 2m16-1-5 1-4 1h1l2 1h2l2-1 1 1 1 1v-4m128 0v3l-2 5-1 3v1l-1 2v2l-1 2-1 3h1l1-1a175 175 0 0 1 4-18v-2m-89 3v5l-1 2-1 2v3l1 1h1l1 1c1 2 6 5 7 5s3-10 1-11v-4s-1 0 0 0c2-1 0-3-3-3l-3-1h-3m-51 1v1l2 1c1 1 4-1 2-2h-1v1l-3-1m54 4h-1v-1l1 1m-38 0 3 1 1-1h-4m-17 0 2 2v-1l-2-1m64 2 1 1 1-1-1-1c-1-1-1-1-1 1m-67 0 1 1 1-1h-2m4 1c-1 1 0 1 1 1l-1-1m56 1c0 1-2 3-4 3v-4l4 1m-39 0h4-4m49 1h-2l-2 1 2 1c3 0 4 5 2 6v2c1 0 2 1 1 2s1 1 4 1l2-2h-2l1-1c1 0 1-4-1-8v-1c0-2-1-2-2-2h-2c-1-1-1-1-1 1m-68 0v2l1-1-1-1m20 0c-1 1 0 2 1 2l1-1-2-1m-18 3v1l1-1h-1m17 0v1l2-1h-2m-20 1c0 1 1 2 2 1v-1h-2m-124 1a285 285 0 0 1 0 9l1 4c1 3 2 3 7 6l5 4h1l-5-4h-1l-2-2c-4-2-5-5-6-13v-4m128 0c-1 1 0 2 1 1v-1h-1m14 1h1l-1-1v1m78-1c-1 1 5 6 6 6v1l4 5 3 2 3-1 3-1 2-1 4-2 4-1 1-1 3-1 3-1 3-2-1-1-3 1-3-1-1 1h-1c0-2-2-1-2 1v1-1c0-2 0-2-2-2h-5l-1-1h-8l-3-1h-9m-95 1 1 1h1c0-1-1-2-2-1m3 2h1l-1-1v1m2 0 1 1 1-1-1-1-1 1m2 0 1 1 1-1-1-1-1 1m3-1c-1 1 2 4 3 4s1-1-1-3l-2-1m3 1 1 1 1-1-1-1-1 1m2 0 1 1 1-1-1-1-1 1m-14 0v2l1-1-1-1m2 2 1 1h2l-3-1m3-1 2 3v-2l-2-1m8 0 1 2 1-2h-2m121 1v1l-1 1a68 68 0 0 0-7 8l-2 3-1 1-1 1v1a604 604 0 0 1 12-16m-125 1 2 2v-2h-2m-6 3c-2 1-2 1-1 2l3-3c-1-1-2 0-2 1m2 0h2l-1-1-1 1m-1 2 1 1 1-1-1-1-1 1m2 0 1 1 1-1-1-1-1 1m-1 1-1 1h2l-1-1m2 0v2l1-1-1-1m-3 3 1 1 1-1h-2m101 2-1 2-1 2h-1l-2 3-2 2-1 2-2 2-2 3-3 3-5 7-1 3-2 2-2 3-2 2-2 3-3 3-1 2-1 1-1 1-1 1a106 106 0 0 0-4 6c-2 1-1 3 0 2l14-1h4a97 97 0 0 1 2 12l1 1-1-2-1-6v-7l4-5h-1l-1 2a5680 5680 0 0 0 19-49m-86 4v1l2-1h-2m5 0v1l1-1-1-1v1m5 0 1 1 1-1h-2m4 0 1 1v-2l-1 1m-11 1v1h1l-1-1m17 0v1l1-1h-1m-22 0v1c2 0 2-1 1-1h-1m9 0 1 1v-1h-1m-17 1c-1 1 0 2 1 1v-1h-1m6 0c-1 1 0 2 1 1l-1-2v1m-9 2-1 1 3 2-1-2v-1l1-1c0-1-1-1-2 1m6-1 1 2v-2h-1m5 0v1c1 1 2 0 1-1h-1m3 0 1 2 1-2h-2m5 0c0 1 0 2 1 1v-1h-1m6 0v2l1-2h-1m4 0v1c1 1 2 0 2-1h-2m-26 1c-1 1 1 3 2 3v-2l-2-1m6 0c-1 1 0 2 1 2l-1-2m8 0c-1 1 0 2 1 1v-1h-1m5 0v1h2l-2-1m-16 2 1 1v-2l-1 1m8 0h2v-1l-2 1m-6 1 1 1 1-1-1-1-1 1m3 0 1 1v-1h-1m9 0 1 1 1-1h-2m15-1 1 1-1-1m-35 2v1l1-1-1-1v1m2 0v1l1-1-1-1v1m2 0v1l2-1h-2m2 0 1 1 1-1h-2m10 0 1 1 1-1-1-1-1 1m11 0 1 1v-2l-1 1m-17 1v1l1-1h-1m3 0v1l2-1h-2m-9 1-1 3c1 0 3-2 2-3h-1m20 0v1l1-1h-1m-24 1h2l-1-1-1 1m7-1c0 2 2 2 2 1l-1-1h-1m12 1c2 0 2-1 1-1l-1 1m-8 0c-1 1 0 2 1 1v-1h-1m-10 1c-1 1 0 2 1 2l-1-2m8 0c-1 1 0 2 1 2l-1-2m4 0v1h2l-2-1m4 0c-1 1 0 2 1 1v-1h-1m-14 2 1 1c1-1 0-2-1-2v1m3 0v1l2-1h-2m-130 1v2-1l1-2-1 1m144 0 1 1v-2l-1 1m-18 1v1-2 1m3 0c-1 1 1 2 1 1l1-1h-2m5 0v1l1-1-1-1v1m4 0v1l2-1h-2m-139 3-1 2c-1 1 0 2 5 4 5 3 6 4 4 5l-3 2-3 3 2 3a21 21 0 0 1 3 4l2 5v2-2l-1-3v-11c-1-1-1 0-1 4v3l-1-1h-1l-1-3c-2 0-1-1 0-2l1-1 1-1h1l1-1 1-3-7-4-3-3a3321 3321 0 0 0 1-2m128-1c-1 1 0 2 1 1v-1h-1m4 1h2l-1-1-1 1m5 0v1h2l-2-1m-9 1c-1 1 0 2 1 2v-1l-1-1m2 2 1 1 1-1h-2m4 0 1 1-1-2v1m6 0 2 1v-1h-2m-13 2v1l1-1h-1m4 1 1 1 1-1h-2m0 5 1 1v-2l-1 1M87 256v4l1-5c-1-1-1-1-1 1m-1 6v2-3 1m-1 7v3c1 2 2 2 1 0l-1-3c0-2 0-2 0 0m199 1a75 75 0 0 0 2 9l-2-9v-1 1m-198 4 1 1 1 1-1-1-1-1m70 1h3l-2-1-1 1m-3 0v1l1-1h-1m-8 1-1 1h1l2-1h2-4m-57 1v1h1l-1-1s0-1 0 0m72 3v1-3 2m-19-3h2-2m-7 1-2 1h-1l4-1h-1m-44 2h2-2m35 0h2l1-1-3 1m-31 1 1 1h2l-1-1h-3 1m24 0h1c3 0 3-1 1-1l-2 1m168 1 1 3v-3c-1-2-1-2-1 0m-171-1h2-2m-15 2 2 1-1-1-2-1 1 1m8 0h2-2m-4 0h3-3m183 5a662 662 0 0 1 2 9v1l1-1-1-3-1-3v-3h-1m3 11v2-2m-129 7 1 3v-5c-1-1-1-1-1 2m1 9v1-3 2m133 3 1 2v1-1l-1-1v-1m-132 5v3-5 2m133 0 1 1v-1h-1m2 3v2-2m-135 8v3-5 2m140 10 1 2v-1l-1-1m1 4 1 2v-1l-1-1m2 3v2-2m1 4v2l1 1-1-3m1 4 1 1v1-1l-1-1m1 4 1 1v-1h-1m-148 1v1-1c0-1 0 0 0 0m-1 3v4-1l1-3h-1m152 5 3 6-1-4-2-2m-152 2-1 4 1-4c0-2 0-2 0 0m155 5v2l1 1-1-2v-1m-157 5v3l1-5-1 2m158-1 1 2v1-1l-1-2m2 6" fill="#3c6ca4"/><path d="M219 12h-4 15-11m12 0h1-1s-1 0 0 0m-22 1h2-2m26 0h5a35 35 0 0 0-5 0m-34 0h7-7m-6 1h3-3m48 0h2-2m-53 0 2 1 2-1h-4m-5 1h2-2c-1 0-1 0 0 0m-4 0h2-2m-3 1h1-1c-1 0-1 0 0 0m-7 1v1l1-1 1-1-2 1m-4 2h1l1-1-2 1m-2 1-1 1 1-1h1-1m-5 2h2-2m-7 3-1 1h1l1-1h1-2m66 6v2l-3 3h1l2-1h2l2-1 5-1 2 2 1 1h2l-3-3c0-2-5-3-6-2-3 4-4 4-4 1l-1-1m-84 3c-1 1-1 1 0 0l1-1-1 1m-3 1-13 13a337 337 0 0 1 13-13c2-1 2-1 0 0m87 1h-3c-5 0-9 1-8 2h4-1l-2-1h3l9-1h2c1 1 1 1-1 2l-1 3 1 1 1 2v10a344 344 0 0 1 0 13c0 5 0 5-5 5s-4 0-4 7c0 8 0 8-2 9h-1v5h2l2 1h1c3-1 6 0 6 2s-5 3-6 1c0-2-1-2-1 0l1 3c1 2 2 8 1 9v3c0 2 0 3-1 2h-4v-5l1-6c-1-2-6-3-7-1l-5 1c-4 0-5 1-4 2l1 1 2-1c3-1 6 0 5 2l3 1 1 1h-1l-4 2-2 1h-1l-1-2v-3h-1l-2 1c-1 2-1 3 1 4h-4c-4 1-6 1-6-1l-2 1c-2 1-8 1-8-1l-1-1-1-13-1-17-2 15-1 15v6c1 1 5 0 6-1l3-1c6-1 6 0 6 7 0 6 1 6-6 6a533 533 0 0 0-8 0c-1 2 1 4 2 2h6l2 1 1-1h5l2 1 1-1 2 1h2c1-1 2 0 2 4l-1 2h-1l-3 1c-1 2-5 0-5-2h-1l-1 1 1 2c0 2 0 2 2 1h6l1 2v1h-2c-2 0-2 1-1 2l1 1c1-2 2-1 2 3s0 4-4 4h-2c-1 1-4-1-4-2l-2-3h-4l-5-1h-3c-1-1-2 1-2 3v2l-1-1c-1-3-5-3-5 0 0 1 0 2 2 2l2 2v1h-3l-4-1h-1l-3 1h-3 3l4 1 2 1h2l1 1v2l1 2 1 1c0 2 8 4 10 2h1l1-1c1-1 4 0 7 2h1l-1-1h-1c0-1 1-1 3 1l2 1 3 2 2 1 2 1 1 1h1l-1-1h-1l-1-1-4-2-5-3-3-4 2 1h2v-6l-1 2c0 1 0 2-1 1l-1-2v-2l6-1h7l1-1v-13h2l1-1 1 2-1 1c-1-1-1 0-1 4v4h11v1c0 2 1 2 2 2 3 0 4-3 1-4l-2-1h-4v-4h1l1 1c-2 2-1 2 5 2h4v7c0 7 0 7 6 7 5 0 6 0 4 1h-1l-2 1-3 1-1 2v4c0 5-1 4-1-2s0-5-6-6c-5 0-5 0-5 6 0 5-1 6-3 4-1-3-4-3-5 0 0 1-1 2-3 1 0-1 0-1 0 0l1 1h1l4 1h3l4 1h2l-1 1-4 2-2 2c-1 1-4 0-4-2s-1-3-3-4l-3-2-2-1-3-2-2-1-1-1h-1l2 1 2 2 4 2c3 1 5 3 4 4s1 6 4 6h1c1 3 7-1 7-4 0-2 2-2 8-3l4 1 4 4h1l1 1 1 1h1l3-1 3-1 2-1 8 5 1 1 1-1 1 1 2 3c2 2 3 3 2 4v1l2 2c2 1 3 1 5-1s8-2 8 0l3 2c3 0 4-4 1-6l-1-2-1-1-1-2 1 2v1l1 3c3 2 1 5-2 3l-2-1 1-1c2-1 3-4 1-5v-2c0-3 0-4-1-3v4l1 3c1 1-2 3-5 3-2 0-3-1-3-2l-2-2c-2-1-2-2 0-3h2v-2c0-2 0-2-3-2h-2v2c0 5 0 6-2 5a65 65 0 0 1-8-6c0 2-3 0-4-2l-1-1-2-1-2-1h-1l-1-1h-1v-1l-1 1v1h-1l-2 1-1-1h-1l-2-2c0-1-2-2-5-1-1 0-3 0-2-1h2l2-1 1-1 1-3v-5h4l1 2c0 1 3 2 4 1 2-2 6 0 6 2l1 3 1 3h-2c-1-2-2-2-3-1h-1v1l4 4 4 3-2-2-3-4 1 1c2 0 4-1 4-3l-2-2-1-2c0-3 1-4 2-2h4l-1-2v-3h-5l-1 2v1l-2-1c-1-2-2-3-3-2-1 2-3 1-3-1l-1-1c-2 0-2-1 1-1 2 0 3-2 1-3-2 0-2-1-2-4 0-2-1-2-2-3-2-3-2-3 5-3 3 0 3 0 3 2 1 3 5 3 5 0 0-2-1-2-3-2v-2c0-1-1-2-2 0-1 1-3 0-3-1l2-2h6c1 2 4 0 3-2-1-1 0-1 1-3 1-1 2-1 1 1 0 2 2 4 3 3h1c2 0 2-1 2-3l1-2 1 11v7h-6v2l-1 7v6h1l4 1c2 0 3 0 3 2v6c1 0 2-1 1-2l1-2v-4c2 0 2 0 2 2 0 3 2 4 4 4l1 1 1 1v1-3l1 2v4h1v-1c0 1 0 1 0 0v-6l1-1v-5l1-1v-1l1-2c0-1 1-2 8-2h7l2 2c2 2 3 3 5 2s2-1 2-4 1-4 3-4l2-1c2-2 4-3 6-1 1 2 2 2 3 2l1-1c1 0 2-2 1-5v-3l1-2h-1c0-1 0-1 0 0l-1 1v1l-3 2-1 1h-6c-2-2-6-1-6 2l-2 5c-2 0-2 0-2-15a200 200 0 0 0 0-17c1-1-1-2-3-2l-1 1 1 1 1 1v15a302 302 0 0 0-1 18h-1 4c3-1 5-3 6-7v-1h2l10-1c1-1 2-1 2 1 1 3-2 4-3 2h-7l-3 2-4 5c0 3-2 3-4 1l-11-1-8 1-2 1-1 2v8h-2l-2-1-1-2c0-3-3-4-4-3-1 2-2 2-2 1l-3-1h-3v-12h4l1 1v6c-1 0-1 0 0 0v2l2 1c3 1 4 0 4-1v-1l1-3 1-3 1 5c0 4 0 4 1 3l1-3c-1-3 2-5 5-3l5 1h5-4c-4 0-5-1-6-2-1-2-4-2-5-1s-1 0-1-3c-1-2-1-2-4-2s-3 0-3-8c0-9 0-10 2-10 1-1 0-1-1-2v-5c1-1 2 0 2 1l3 1c3 0 4 0 4-2l2-1c3-1 2-1-1-2v-1l-4-1-4 1-2 1c-2 0-2 0-1-1v-1h2l2-1c3 0 4-2 1-4-2-1-2-1-2-3l-1-2c-3-1-4 1-4 5 0 6-1 7-2 7l-1-2c0-5 0-5-4-5h-6l-1-1-1-2c-1-1-1-1-1 1l-4 2h-1v4l-1 3-1-1h-2v1h-4c-1 0-2-1-2-3h1c0 1 2 2 5 1h3v-2c0-4-1-5-5-5-3 0-3 0-3 2h-1v-2c-1-1 1-3 3-3 1 0 2-1 1-7v-9l1-2a900 900 0 0 0-5-3c5 0 6 0 6-3V72h-7l-2-1-1-13V45l1-1h1l2-6 5-1h2c1 0 1 0 0 0l-1-1h-16m18 1-2 1h2l2 1-1-2h-1m67 1 2 1 1 1-1-1-2-1m-98 0 2 1h-1v-1h-1m34 0v1l1 1 3 1h3l1 1h1c1 0 1 0 0 0 2 0-1-2-2-2h-3l-1-1h-2l-1-1m-38 1c-1 0-2 0-1 1h-1l-5 1h5l3-1 2-1h-3m30 2v2h2l1-1-1-2-2 1m-41 1h-3l1 1h1-1c1 1 3 0 3-1h-1m60 0c-1 0 0 0 0 0l1 1 1 1h2l2 1h3l2 1h-2l2 1h2l1 1h3v-1h-5c1-1-1-2-3-2l-1-1h-3l-3-1-1-1h-1m-82 2-1 3c0 2-1 3-3 5l2-1 2-3c0-3 3-5 4-3l3 1 3-1 2-1h-6l-2-1h-2l-2 1m17-1-1 1c-1 0-1 0 0 0l3-1h-2m39 2h-1v-1l1 1m-44 0-1 1c-3 0-3 0-3 2l-2 6-2-2c-2-3-3-3-5-1l-1 1h-1l-1 1h1c3-2 4-3 5-1l2 1v9c-1 1 1 2 2 2l1-2V52l1-3c0-3 1-3 3-3l2-1h1v-1l-2 1m22 0h-3v3l1 2 2 1c2 0 3 0 4-2 1-3 0-4-4-4m43 1h-2v5c0 5 0 5 5 5s5 0 5-5v-5h-8m-39 1-1 2-2-2h3m-25 1v1c1 1 2 0 2-1h-2m43 2-1 2v-5l1 3m9-2 1 4h4v-5h-2l-3 1m36 1h2c1 0 1 0 0 0h-2m3 1h2-2m11 1h-7l1 1h1l1 1 1 1c1 2 4 5 5 4l3 1c1 1 0 1-1 1h-3a92 92 0 0 1-24 0h-19c-1 2-1 2 1 2l2 1h17l20-1h7c3 0 4 0 4 2h1c0-1 0-1 0 0h1v1l1 1 1 1v1l1 1 1 1h1l-4-5-1-1-1-1-1-1-1-2-3-5c1-3-3-6-5-4m0 1c3 0 4 1 4 2l1 3c1 2 1 2-1 0l-3-1-2-2-2-2h-1v-1l4 1m-25 0c-1 3 0 7 2 6s3-5 2-6h-4m9 0v2c0 1 3 1 3-1l-3-1m-84 1c-2 1-1 4 1 4s3-3 2-4h-3m41 1h-1v-1h1v1m-63 0-2 1-1 2-2 2-2 1a224 224 0 0 1-7 8l1-1 2-1 2-2 2-2c1 0 1 0 0 0v-1h2c1-2 2-2 2-1 1 2 2 1 2 0l1-3 1-2v-1l1-1-2 1m100 1-1 2c-2 0-3-2-2-3s3 0 3 1m-46 0h1-1c-1 0-1 0 0 0m2 0c1 2 1 2 1 0v-1l-1 1m58 0h2l-1-1-1 1m-51 1h-1v-1h1v1m-63-1-3 3 1-2 2-1m14 3-2 1c-1-1 0-2 1-2l1 1m116 3v1l-1-1h1m-74 1v2l1 2 1-1 1-2c1 0 1-1-1-1-1-2-1-2-2 0m11-1c-1 2 0 3 2 3 3 1 3 0 3-1v-1c1-1-3-2-5-1m-37 0c-1 0-1 3 1 3 1 1 2 0 2-1 0-2-1-3-3-2m33 5v6c2 3 1 3-1 3s-2-1-1-3l1-8v-2c1-2 1-1 1 4m21-5v1h-3c-1 0-2 0-1-1h4m17 0-2 1-2-1h4m-66 1c0 2 0 2 2 2l2-1c-1-2-3-2-4-1m61 0h-5c-1-1 0-1 2-1l3 1m30 0h-1v-1c2 0 2 0 1 1m-113 0v1c-1 1-2 0-1-1h1m-15 1v2h1c1-2 0-4-1-2m61-1-1 2-2-1 3-1m-69 2c-1 2-2 2-2 1l2-1 2-2-2 2m15 2c0 4 1 4 1 0l-1-4v4m108-2c-1 2 0 3 1 3 3 0 3-4 1-4l-2 1m-16 1-3 1-3 1h1l1-1 1 1 1 1 1 1h2v-1l2-1 1-1-1-1h-3m2 1h1l-1 1h-2c-1-1 1-2 2-1m-102 1 1 2 1-2h-2m109 2-1 3v3l1 7h-4a325 325 0 0 0-10-1c0-2-1-3-2-2-2 2 0 4 4 4 3 0 5 0 3 1v14h-4c-2 2-4-1-2-3 1-1 0-3-1-3-3 0-3 1-2 3s1 4-1 4l-2-2-1-1h-2c-4 0-4 0-4 4l2 3c5-1 4 0 5-2l2-1h8c3 0 4 2 2 3s-2 6-1 6l2 1 4-2h19l2-1v-1h-19c-1 0-2 0-2-2l-1-1-1-6c0-7 0-7 2-7h1l1-4h-4l-1-2c0-1 1-2 5-2h3v-3l1-4 1-1-1-1-1-3-1-3v2m-87 0 1 3v1l2-1 1-1-1-2-2-1-1 1m22 0v1l12 1-5-1h-6l-1-1m16 1v-1 1m27-1v1h1l-1-1m7 0v1h1l-1-1m-70 1v2l-1 1v-2c-1-2 0-2 1-1m-23 0v2l1-1-1-1m27 0v1l1 2v1l1-3-2-1m93 2v5h6v-2c1-4 0-5-3-5s-3 0-3 2m20-1c0 1 0 0 0 0h1v2l1-1c0-1-1-2-2-1m-54 1v5l1-3c0-3 0-3-1-2m-49 1c-2 0-2 0-3 4 0 3 0 3 4 3h3l1-2v-4l-2-2-3 1m105 0 1 1c1 0 1 0 0 0v1-2h-1m-33 1v1c-1 0-2-1-1-2l1 1m-131 1c-2 2-3 3-5 1-4-2-5-1-7 1l-2 2v3l1 3v2l1 1c3 0 3 2 2 7 0 3 0 3 1 2 1-2 2-2 3-2 2 0 2-3 0-3l-1-1 2-2h3c0-2 1-2 3-3 3-1 4-4 1-4l-1-2c1-1 0-1-1-2l1-2 2-2-3 1m135-1 1 1 1-1h-2m-114 1c-3 3-3 3-5 3l-2 1-1 3 1 2 1 2c1 2 2 2 2-1l-1-4-1-1c0-1 3-1 4 1l3 1h3v-3l-1-3-1-1h-2m81-1c-1 1 1 3 2 2 1 0 1-2-1-2h-1m-80 2v-1 1m135-1 1 2 1-1c0-1-1-2-2-1m9 0 1 2 2 2c1 0 1 0 0 0l1 1h1l-4-3v-1c1 0 1 0 0 0v-1h-1m-97 1-1 1h6c2-1-2-2-5-1m-70 3-1 2-1 2v1l-1 1-1 1-1 1-1 1-1 3v1c1 1 0 4-1 4l1-6-1-5-1-1v-5l1-1h7l1 1m30-1v1l1-1-1-1v1m78 0-1 1-1 3c0 3 1 3 2 3h2c1 1 2 0 2-3l-1-3-1-1h-2m-104 1h1v-1l-1 1m33 0h2l-1-1-1 1m13 0-1 1c-2 1-2 7 0 8h1l2-1 2-1c2-1 1-6 0-6h-2l-2-1m18 1v2l2-1c0-1-1-2-2-1m-16 1c2 1 2 2 1 2l-1 1-1 1c0 1-1 2-2 1-1 0-1-3 1-5 1-2 1-2 2 0m59 1v2h-4v-2c0-2 0-2 2-2h2v2m-21-1v5l-3 1h-4l-1-4v-3l8 1m82 0-1 1-1 2 1-1 3 1v-2l-2-1m-169 1c1 1 1 2-1 3l-2-2c0-1 0-2 3-1m13 0c1 0 1 0 0 0h-1 1m150 2v3l4 1c2 0 2 0 2-2s-2-2-2 0l-1 1c-1 0-2-3-1-4v-1h-2v2m-128-1v6c-1 0-1 0 0 0v11c-1 1-1-5-1-13 0-4 0-5 1-4m-78 2v1l1-2-1 1m164 8-1 9V85c1-3 1 0 1 8m31-9 1 1v-1h-1m20 1v1l1 2v2l-4 1-1 1h3l2 1h3c-1 0-2-1-1-2l-1-3-1-3h-1m-115 0-1 2-1 3-1 1 1 1c1 2 2 2 2 5v3l1 2 1-1 1-2v-2h3c5 0 5 0 5-7v-5h-11m53 0v3c2 0 2-1 2-2l-2-1m64 1 1 1c2 0 2 1 1 2v2l1 2v1-1l1-3v-3l-4-2v1m-112 0a55 55 0 0 1 4 0l1 9h-7c-1 1-2 0-3-2l-1-2 1-2 1-2c-1-1 0-1 2-1h2m-32 2v8c1 1 1-6 1-8s-1-2-1 0m47 0 1 1 2 1 1 1-3 1h-3c-2-1-1-6 1-5l1 1M96 88v1-2 1m44 0v7h6c1 0 2-1 1-2v-5h-2l-3-1-2 1m130 0 1 2v-3l-1 1m-28 0v4c1 1 3 0 3-2s-1-2-3-2m40 3c0 4 0 4 3 4l2-1 9-1 8-1c0-1-8-2-10-1 0 1 0 1 0 0h-3l-4-1-3-1h-2v2m-78-1h1v-1l-1 1m40 0-1 1v-1h1m-43 0-1 1 1 1 1-1h1l-2-1m-48 1c-1 1 0 2 2 1v-1h-2m6 0c-1 1-1 1 1 1l1-1-1-1-1 1m129 0-1 1c0 2-1 2-1 0 0-1 1-2 2-1m17 0c-1 1 0 2 1 2l1-1-2-1m-41 1 1 2 2-1c0-2-2-2-3-1m-61 1 1 1 1-1-1-1-1 1m49 0c0 2-1 2-1 0l1-1v1m-99 5v9c0 5 0 6-2 7l-1 1v1h-25v-1l2-1c3-1 4-3 1-3-1 0-2-1-2-3v-1 4-1h-1v3l-1 3v3c0 1 0 0 0 0 0-1 5-2 6-1l5-1 1 1 1 1 1-1 1-1h5l1 1h2c1-1 3 0 3 1l1 2 1 1a212 212 0 0 1 0 11v12l2 4 1-2a330 330 0 0 1 1-26c1 0 2 0 2-4v-3l-2-1-2-1V95c-1-1-1 1-1 3m28-3 1 3 2-1c0-2-1-2-3-2m162 3v1-2 1m-97 0c1 2 0 2-2 2s-3 0-3-2 5-2 5 0m-118 0v1-1c0-1 0 0 0 0m71-1v3c-2 0-2-1-1-2l1-1m-71 3v1h-1 2v-2l-1-1v2m92-1c1 1-1 3-2 2v-2h2m99 0-1 1h1v-1m-62 0v1l-1-1h1m-82 2v10l-1-2v-5c0-3 0-4 1-3m62 0c-1 2 0 2 1 2l1-1-1-1h-1m-53 1h2-2m5 0c-1 0-1 0 0 0l1 2c0 2 0 2 1 1l2-1h2-2c-2 0-2 0-2-2h-2m33 4-1 5v-1l-1-1c-1-1-1-7 1-7l1 4m121-4v3h1l-1-2v-1m-216 1v2l1-2-1-1v1m84 2v2h-4v-2c0-3 0-3 2-3h2v3m109-3v4l1 2v1c1-1 1-1 0 0l1 1v-3l-1-2-1-2v-1m-93 1h-5l3-1 2 1m-101 1 1 2v-1c0-3-1-3-1-1m33 0-1 3 1 2h6v-3c0-3-1-3-4-3l-2 1m91 0c-2 0-3 6-1 6 4 1 5 0 5-3s-1-4-4-3m-19 0 1 4-1 2v2l-1-1c-2-1-3 0-5 1h-1v-3l1-3 1-2h5m-141 0 1 2 1 3v1h1l1 3 1 3 1 1-2-3-1-4v-1l-1-1-2-4m221 1c-1 2 0 6 2 5l1-1c1 1 2 0 2-2l-1-3h-2l-2 1m-11 0v4l1 1v-5h-1m-56 1v4l1-4h-1m57 1h-1v-1c1-1 1 0 1 1m4-1 1 1v-1h-1m-36 1-1 1v-1h1m3 0-1 1-1-2 2 1m2 0v1-2 1m8 0c0 1 0 1 0 0v-1 1m-96 0 1 1h1l-2-1m158 1v1-1c0-1 0-1 0 0m-93 0v1l-2-1h2m-37 1v-1 1m-14 1c0 1-1 2-2 1v-2c1-1 2-1 2 1m-64 0c-1 1 0 1 1 2l1-2c0-1-2-2-2 0m83 0v1c-1 0-2-1-1-2l1 1m17-1v7c3 1 7 0 7-1l1-1 2-1-2-2h-1c0-2 0-2-4-2h-3m-25 2v5c-4 1-7-1-6-4 1-2 5-2 6-1m4 0 1 2v-3l-1 1m27 0c2 3-3 6-5 4v-4h5m42 1c0 3 0 3 4 3l4 1h2l4-1h3v-1c0-2 0-2-1-1h-8l-4 1h-2v-2c0-2-2-3-2 0m-10-1c-1 1 0 3 1 3v-3h-1m-27 1c-1 1 1 2 2 1v-1h-2m76 0h-1v1l1 2a827 827 0 0 0 0 6c-1 0-3 1-2 2 3 2 3 4-1 4h-3l3 1h3v1l-1 1h1v-1l1-2v-3c-1-1 0-2 1-3l1-1h1v5l-2 3-1 1 3-2 3-4-2-4c-1 1-3-1-3-2v-1l-1-2-1-2m-94 0c1 1 0 3-2 3v-3h2m31 1v1l1-1-1-1v1m47-1c-5 0-5 0-4 6v3l4 1c6 0 6 1 5-5l-1-5h-4m-119 1v2l-2-2h2m-33 0c2 2 2 3 1 3h-4v-1l1-1c1-2 0-2 2-1m96 0 1 1 2-1h-3m4 0 1 1v-2l-1 1m-35 1v2c-1 1-3 0-2-2h2m4 0h1c1 0 2 2 1 4v1-1c0-2-2-4-3-3h-2l1-2 2 1m120 1c1 3 1 3 1 1l-1-2v1m-146-1v2c-1 1-2 6-1 8 0 2-1 3-6 3h-2l-1-6c0-7 0-7 6-7h4m96 0-2 1v-1h2m-89 1 3 1h3v3h-4l-3-1-1-1c-2-1-3-2-2-3l4 1m-43 0 1 1v-1h-1m153 1 1 2c1 0 2-1 1-2h-2m-190 1h-1c-1-1 0-2 1-1v1m139-1-1 1-1-1h2m-135 1h-2l1-1 1 1m9 0h-2l1-1 1 1m3 0h-2l1-1 1 1m2 0h-1c-1-1-1-1 1-1v1m4 0h-2c-1 0-1-1 1-1s2 1 1 1m3 0h-2l1-1 1 1m65 0c0 2 1 2 1 0h1c1 1 0 2-2 2h-2l1-2v-1l1 1m-6 1 1 1v-1h-1m-113 0a32 32 0 0 0 3 6l-3-6m131 4v2-7 5m35-1v1l-1-1 1-2v2m-43 0h-1l-1-1c-1 0-1 0 0 0 2-1 3 0 2 1m-96-1-2 3c-2 3-2 7 1 7h4v-1l-1-2v-3l-1-2v-1l-1-1c0-1 0-1 0 0m76 0-1 2-1-2h2m4 0-3 1v-1h3m11 0c1 0 1 0 0 0h-3 3m41 0v3l1 4v1l-1 4v4c-1 0 0 0 0 0 2 0 1 4 0 4-2 0-2 0-2-2v-2h-4l-1 1-1-1h-4l-4-1v-6h-13c-17 0-16 0-16 1l-1 2-2 1h-2l-3-1-2-1v-6c0-3 1-3 3-2h4c3 0 3 0 3 2s1 2 5 2l4-1h9l6 1h5v-7h16m27 0 3 1 3-1h-6m10 0h1-1m-115 1c-1 1 0 2 1 2 1 1 2 0 2-2 0-1-2-2-3 0m29-1h-2 2m-45 1 1 1 1-1h-2m4 0 2 1 3-1h-5m6 0 1 1 1 2v-1c0-2 0-3-2-2m8 0-1 2v-2h1m56 1c1 1 0 2-2 2l-1-3c1-1 3 0 3 1m-81 12v14h-1a1749 1749 0 0 1 1-14m57-12c0 1 0 1 0 0l-4-1h-3 4l3 1m-74 0v2l1-1c0-2 0-2-1-1m80 1c0 2 0 3-1 1h-2c0-2 3-3 3-1m5 1-1 2v-4l1 2m4 0-1 1c-2 0-2-1-1-1l2-1v1m68-1 1 1 1-1h-2m-171 1 2 6-1-1-2-1c-1 0-2-2-1-4l1-1h1v1m3 0c0 1 0 2 1 1 2 0 2-1 1-1h-2m74 2c-1 1-1 0-1-2v-1l1 1v2m72 0v2l-1 1-3 1-2-1-1-2v-1l1-1c0-1 5-1 6 1m-11 1v17c0 10-1 11-1 2 0-21 0-21 1-19m-72 1h-3l1-1 1-1v1l1 1m10-1-1 2h-2l-2-1 1-1h4m94 0v2c-1 0-2-1-1-2h1m-119 1h-1l2-1-1 1m112-1h1c1 0 1 0 0 0h-1m23 0 2 1c1-1 1-1-1-1h-1m-127 1h-1c-1 0-1 0 0 0h1m3 1s-2 0-1-1h1v1m8-1-2 1v-1h2m-33 2c0 5 0 5 7 5s7 0 6-3c0-1 0-1 0 0s-1 2-6 2c-6 0-6 0-6-4 0-3-1-3-1 0m18-2v1l-1-1h1m80 3 1 3h-2l-1-1v-3c0-1 1-2 2-1v2m-40 0c2 3 3 3 3 0v-2l1 3v2h-4c-5 0-5 0-5-2 0-3 2-4 5-1m7 4 1 5v5h-11c-1 1-1 0-1-1s-3-3-4-2l-3-2h5c4 0 6-1 6-2s2-2 3-1c2 1 0 3-3 3-5 0-4 1 1 1h4v-2l1-2v-4l1-4v6m14-3-1 2c-1 0-1-5 1-5v3m76-2-1 2c0 2 4 2 4 0 1-2-2-3-3-2m-115 3 2 1h2-5v-3l1 2m28-2-1 9v-10l1 1m95-1v2-2m-133 1c-1 0-1 2 1 2l1-1c0-1 0-2-2-1m103 4v3l-1-4c0-5 1-4 1 1m-167-4v1h1v1l1 1 1 1v-1h-1v-1l-2-2m17 1v1h2c0-2-2-2-2-1m49 0-1 1v-2l1 1m130 0-1 1v1h1l-1 1-1 1h-2c-1-1-3 0-3 2l1 1 2 2v2-1l-1 1v2s0 1 0 0l-1 1v1l3-7-1-1v-1h2v1-1l2-3v-3c0-1 0-1 0 0m-106 1h1v-1l-1 1m50 0v6l1 3h9v-9h-10m79 0v1-2 1m-134 1h-2c-3 0-1 2 3 2h3-8v-1l2-1 2-1c0-1 0-1 0 0v1m96 0h-3v3c0 4 0 4 4 4h3v-4c0-4 0-4-4-3m-125 1v6h3c3 0 4-1 1-1-4 1-5-3-2-4 2-1 1-1-1-1h-1m-52 0h-1v1l1 1v-2m155 1h1v-1l-1 1m60 0v1-1c0-1 0 0 0 0m-142 0h-3 3m43 2c2 2 1 2-3 2l-5-1v-1c-2-1-1-2 3-2h3l2 2m-115-1v1l1 1v-1l-1-1m35 1 2 2c2 0 2 0 2-2v-1h-2l-2 1m3 0-1 2-1-2h2m37 0-1 1v-2l1 1m10 0-1 1v-1h1m-77 0c-1 2 0 3 2 4h2v-2l-1-2h-3m60 8-1 8c-1 0-2-1-1-2v-14c2-1 2 0 2 8m35-8c0 1-2 2-3 1v-1h3m-101 2v1l2 1v2h1l1 2 2 6c-1 3 5 6 7 3l6-1h7-9l-4-1-2 1c-1 1-2 1-3-1v-3l6 3h3l-5-3-2-1-4-2-1-1-1-1-1-1h1v1l-1-2-2-2h-1 1v-1h-1m103 4h-1l-2-1v-2h2l1-1v4m-138-3v1-1c0-1 0-1 0 0m132 2c0 2 0 3-1 2v-4l1 2m50-1c-1 1-1 2 1 2s2-1 2-2c0-2-3-2-3 0m-105-1c-1 1-1 3 1 3l1-1c0-2-2-2-2-2m169 5a49 49 0 0 1 0 6l1-6v-5l-1 5m-200-4v1c0 1 0 1 0 0v-1m64 1v5h-5l-1-2 1-3 2-1 3 1m-50 1c-1 1-1 2 1 3l1-2-2-1m89 0 1 1v-1h-1m6 0h-1v3c1 2 3-1 2-3h-1m13 1 1 1 1-1h-2m-12 1-1 1v-2l1 1m-7 0 1 3v-1c0-2 0-3-1-2m25 0v3c1 1 2 0 3-1 0-1-2-3-3-2m35 0v3h2l2-1c0-2-2-3-4-2m-34 1v1l-1-1h1m-133 2h-1v-1l-1-1 1 1 1 1m86-1h-2v-1l2 1m4 0c-1 1-1 0-1-1h1v1m-49-1 3 1v1l1 3v4c0 2-1 2-3 3-2 0-2 2-1 2l4 3c1 0 0 0 0 0h-1c-1-2-6-3-7-1h-5l-1-1-1-2v-1l-1-1-1-1 2-1 1-1 1-1 2-5c0-2 1-2 7-2m64 1-1 2c-1 1-2 0-2-1 0-2 2-2 3-1m-16 1 2 1c2 0 3 4 2 7v2c1 1-1 1-6 1s-5 0-5-5 0-5 2-5l2-1h3m57 0 2 1c1 0 1-1-1-2l-1 1m11 0v1h1c0-2-1-2-1-1m-129 1-1 2c-2 0-2-1-2-2 0-2 2-2 3 0m48 0c1 1 0 2-1 2v-2h1m35 0v1c0 1 0 1 0 0v-1m64 0-1 1v-1h1m-107 3v2h-4c-5 0-6 0-6 4v2l1 2 1 1-2 1c-1 1-2 3 0 4s3 0 3-1c0-2 1-2 2-2h7v-9h1c3 0 3-5-1-5h-2v1m69 0c-1 1-1 2 1 2 1 0 2 0 1-2h-2m-65 1-2 2c-1 0-2-1-1-3l3 1m49-1 1 1c3 2 2 3-1 3s-4-1-2-2l1-2h1m-22 2c-1 4 0 5 3 5s4-2 3-5c-1-1-6-2-6 0m-73 1h-4 4m77 0v1h-1l1 1 1 1h-4v-4l3 1m-26 0 1 2v-1l-1-1m69 1 1 1 1-1-1-1-1 1m-9 1 1 3 2-3h-3m17 1-1 1-1-1 1-1 1 1m-80 0c0 1 0 2 1 1h1c1 1 2 0 1-1h-3m35 0v1-1c0-1 0-1 0 0m-57 0c-1 1-1 4 1 4 1 1 3 0 3-1v-1l-4-2m19 1 1 1v-1h-1m7 0h2-2m-23 1c1 1 0 2-2 2-1 0-1-2 1-3l1 1m14 0 1 3v1h-4v-1c0-2 1-3 2-3h1m40 0 1 1v-1h-1m92 3-1 1 1-1c1-1 1-2 0 0m-119 0v8h-9v-4l1-4h8m26 1c1 1 0 1-1 1l-2-1h3m-48 2-1 2-1-3c1-1 2 0 2 1m18 0h-1v3h1v-4 1m-10 4-1 3-2-2c0-2 3-2 3-1m53 2h-1v-1l1 1m-40 1h-1c-1 1-1 1 1 1s2 0 0 1h-3l-1 1 1-1v-1h-6l-1-1h10m40 3h-1v-1l1 1m-10 1c-1 2 1 3 3 2v-3h-1l-2 1m12-1c-2 0-1 2 1 2v-1l-1-1m73 3v2c0 1 0 1 0 0l1-2h-1m-265 6c0 1 0 1 0 0v-1 1m185 2v1l2 1h2c2 0 5 2 5 3l-2 2-2 1-1-1-1-2-4-5h-1 2m73 6-1 1 1-1 1-1-1 1m-257 1 1 2-1-2m2 4 1 1 1 1-1-1-1-1m250 1-1 1 1-1 2-1-2 1m-2 3-1 2 1-2 1-1-1 1M86 235l-2 1h1a29 29 0 0 1 3-2l-2 1m209 2-1 1 2-1 1-2-2 2m-214 2v2c1 0 1 0 0 0v-2l1-1-1 1m211 2-1 2 1-2 1-1-1 1m-208 4 1 1-1-1-1-1 1 1m2 3 1 2-1-2-1-1 1 1m0 9v2l1-2v-2l-1 2m-1 4v1h1c0-2 0-2-1-1m200 14 1 3v-4l-1 1m-126 1c0 1 0 1 0 0v-1 1m-18 2h-1 2-1m18 2v1-2 1m-28-1h2-2m-12 2v1l2-1h-2m-4 1h1c1 0 0 0 0 0h-1m45 8v4-6 2m129 0v1-2 1m2 12v1-2 1m5 16v2h1l-1-1v-1m-136 49v1-2 1m-1 10v1-2 1m-1 4v2-2m-1 5s0 1 0 0v-1 1m41 4" fill="#6cb4ec"/></g></svg>