<svg xmlns="http://www.w3.org/2000/svg" width="400" height="400"><g fill-rule="evenodd"><path fill="#d65124" d="M172.803 95.195c-.263.492-.39 3.349-.333 7.506.117 8.474.87 7.699-7.48 7.699-7.717 0-7.79.026-7.79 2.76 0 1.785.707 1.964 8.002 2.02 3.624.027 6.748.21 6.944.406s.327 3.5.29 7.342c-.075 7.983.111 8.548 2.683 8.13 1.918-.311 1.822.094 1.853-7.843.017-4.45.188-7.335.449-7.596.254-.254 3.159-.46 7.315-.52 7.387-.106 7.644-.181 7.658-2.225.016-2.409-.189-2.474-7.784-2.474-8.375 0-7.593.823-7.677-8.084-.036-3.896-.182-7.271-.323-7.5-.481-.778-3.34-.493-3.807.379m30.373 26.305c-.013.385-.022 4.251-.019 8.59.007 10.02.9 9.11-8.943 9.11-8.626 0-8.219-.145-8.208 2.933.011 2.883-.164 2.823 8.661 2.976 4.352.076 8.008.232 8.123.347.169.169.301 5.539.402 16.444.007.84.181.9 2.594.9 3.453 0 3.414.108 3.414-9.386 0-9.316-1.049-8.3 8.634-8.364 8.274-.056 8.149-.011 8.16-2.917.011-3.078.416-2.933-8.188-2.933-9.466 0-8.574.933-8.638-9.03-.062-9.569.01-9.37-3.382-9.37-2.187 0-2.59.108-2.61.7m-30.64 30.98c-.185.286-.426 3.94-.536 8.12l-.2 7.6-7.194.2-7.194.2-.233 1.438c-.481 2.965-.543 2.938 7.461 3.162l7.16.2.099 7.2c.119 8.603.248 9 2.926 9 2.428 0 2.375.182 2.375-8.2 0-9.137-.865-8.2 7.563-8.2 7.813 0 8.037-.067 8.037-2.4 0-2.327-.239-2.4-7.856-2.4-8.308 0-7.494.905-7.744-8.6l-.2-7.6-2.064-.12c-1.368-.079-2.178.056-2.4.4"/><path fill="#6ba2b4" d="M204.8 88.151c0 5.996.184 5.785-5.181 5.934-3.396.095-4.211.238-4.567.804-.823 1.308.274 1.711 4.668 1.714 5.357.004 5.08-.302 5.08 5.613v4.969l1.019.255c1.494.376 1.557.173 1.643-5.302.094-6.016-.338-5.516 4.871-5.636 5.011-.115 5.364-.21 5.195-1.4-.123-.864-.327-.911-4.796-1.102-5.608-.24-5.11.206-5.16-4.627-.059-5.689-.184-6.173-1.604-6.173H204.8zm30.135 6.73c-.184.285-.425 3.849-.535 7.919l-.2 7.4-7.2.2-7.2.2v4.4l7.068.2c3.887.11 7.194.326 7.347.481s.251 3.346.215 7.094c-.076 8.013.049 8.425 2.551 8.425 3.174 0 3.019.41 3.019-8 0-8.926-.924-8 7.99-8 7.402 0 7.21.069 7.21-2.584 0-2.062-.432-2.187-8.029-2.306l-6.971-.11-.2-7.8-.2-7.8-2.265-.119c-1.528-.08-2.373.05-2.6.4m17.039 33.422c-.693.485-.775 1.055-.78 5.42-.008 6.185.306 5.826-5.209 5.963l-4.585.114-.121 1.651c-.192 2.636.396 2.949 5.55 2.949h4.371v4.971c0 5.895.227 6.338 3.149 6.149l1.851-.12.098-4.6c.148-6.889-.312-6.307 5.116-6.466 5.042-.146 5.369-.301 5.38-2.554.01-1.953-.532-2.18-5.194-2.18-5.403 0-5.2.236-5.2-6.056 0-3.638-.143-5.189-.5-5.42-.797-.516-3.082-.412-3.926.179m4.115 5.997.111 5.5 5 .2 5 .2.129 1.124c.227 1.982-.407 2.276-4.902 2.276-5.552 0-5.387-.185-5.519 6.2l-.108 5.2h-3.6l-.113-5.193c-.136-6.278.15-5.961-5.605-6.207l-4.682-.2v-3.2l4.576-.114c5.878-.146 5.624.131 5.624-6.135V128.8h3.977zm-100.203-4.452c-.157.157-.286 2.405-.286 4.995 0 5.626.261 5.353-5.123 5.371-4.364.014-4.998.277-4.779 1.986.094.737.447.809 4.478.914 5.615.147 5.424-.055 5.424 5.721 0 5.196.467 6.2 2.4 5.165.731-.391.8-.838.8-5.165 0-5.776-.191-5.574 5.424-5.721L168.6 143l.124-1.073c.152-1.315-.813-1.931-2.754-1.758-.753.067-2.63.012-4.17-.124l-2.8-.245-.2-5-.2-5-1.214-.119c-.668-.065-1.343.01-1.5.167m78.61 22.216c-.36.36-.496 2.606-.496 8.216V168h-6.951c-5.083 0-7.058.134-7.348.5-.701.884-.943 3.29-.404 4.029.426.584.503.334.503-1.62V168.6l7.2-.2 7.2-.2.109-7.57c.127-8.778.102-8.714 3.255-8.548l2.236.118.2 8 .2 8 7.4.223c4.07.123 7.445.258 7.5.3.312.24.032 4.044-.31 4.214-.225.112-.18.157.1.102.676-.134.904-3.723.284-4.47-.373-.45-1.866-.57-7.123-.575-8.421-.008-7.612.871-7.742-8.412l-.109-7.782-2.604-.116c-1.681-.075-2.78.06-3.1.38m-.996 21.401c.376.151.5 2.113.5 7.888 0 7.836.147 8.647 1.569 8.647.425 0 .341-.188-.28-.623-.867-.607-.889-.816-.889-8.4 0-7.152-.056-7.774-.7-7.745-.418.018-.499.112-.2.233m6.5 7.486c0 8.371-.016 8.434-2.2 8.754-.989.144-.909.186.457.235 2.174.079 2.143.205 2.143-8.739 0-5.653.125-7.585.5-7.736.299-.121.218-.215-.2-.233-.644-.029-.7.592-.7 7.719m-36.2-5.672c-.104.287-.237 2.771-.295 5.521l-.105 5-4.668.2c-5.277.226-5.333.252-5.275 2.471.057 2.168.417 2.316 5.632 2.323l4.488.006.112 5.5.111 5.5h4.4l.113-4.975c.141-6.208-.067-5.973 5.411-6.112l4.447-.113.375-1.309c.804-2.809.088-3.291-4.888-3.291-5.404 0-5.203.226-5.345-6.025L208.2 175l-2.104-.121c-1.456-.084-2.164.04-2.296.4m4.289 5.421.111 5.5 4.8.2 4.8.2v3.6l-4.8.2-4.8.2-.2 5.4-.2 5.4h-3.6l-.111-5.5-.112-5.5h-4.781c-5.266 0-5.717-.269-5.032-3 .251-.997.265-1 5.044-1H204v-5.333c0-6.038-.066-5.867 2.255-5.867h1.722zm-6 42.723-.889.622v72.737l.909.595c1.657 1.086 7.941.526 7.859-.701-.022-.343-.087-.337-.233.024-.212.526-6.262.733-7.502.257-.969-.372-.969-72.742 0-73.114.348-.134 2.148-.243 4-.243h3.367l.086 5.1.087 5.1.127-4.996c.11-4.359.038-5.06-.563-5.5-1.015-.742-6.139-.658-7.248.119m-58.351 7.994c-.13.34-.125.73.013.867.137.137.249-.057.249-.432 0-.603.449-.668 3.9-.566l3.9.114.107 9.915c.116 10.71.087 10.586 2.293 9.917l1.2-.363-1.5-.035-1.5-.034v-9.367c0-5.152-.109-9.652-.243-10-.354-.923-8.065-.937-8.419-.016m-.041 28.454c-.084 23.533-.017 27.344.489 27.8 1.496 1.349 1.869 1.529 3.174 1.529.766 0 1.504.18 1.64.4s.822.391 1.524.381l1.276-.019-1.6-.531a72 72 0 0 0-3.492-1.031c-2.871-.758-2.692 1.065-2.808-28.638l-.106-27.162zm-111.394-25.8c-.629.477-.707 1.622-.8 11.729L31.4 257l-10.567.107c-12.383.125-11.633-.154-11.633 4.318 0 4.251-.863 3.94 11.6 4.175l10.6.2.2 12.367c.17 10.517.29 12.396.8 12.565.473.156.502.078.141-.367-.321-.395-.471-4.124-.495-12.365-.02-6.49-.038-12.025-.041-12.3-.004-.387-2.36-.5-10.431-.5-12.488 0-11.974.16-11.974-3.734 0-4.093-.674-3.866 11.456-3.866 5.773 0 10.596-.16 10.716-.355.121-.196.245-5.191.277-11.1.067-12.825-.151-12.145 3.889-12.145 4.76 0 4.439-.858 4.559 12.2l.103 11.2 10.781.107c12.282.121 11.404-.184 11.413 3.969.008 3.728.745 3.491-11.594 3.724l-10.6.2-.106 12.38c-.079 9.293-.229 12.458-.6 12.694-.387.246-.383.315.019.32.821.01.852-.401.972-12.994l.115-12 10.8-.216c5.94-.119 10.823-.254 10.851-.3 1.059-1.719 1.13-6.302.117-7.523-.378-.455-2.448-.561-10.99-.561-9.682 0-10.54-.056-10.719-.7-.108-.385-.17-5.421-.139-11.192.042-8.004-.065-10.613-.452-11-.735-.736-7.258-.925-8.165-.237M209.789 261.6c0 15.29.05 21.545.111 13.9s.061-20.155 0-27.8-.111-1.39-.111 13.9m1.555-12c0 2.09.068 2.945.15 1.9a29 29 0 0 0 0-3.8c-.082-1.045-.15-.19-.15 1.9m-102.3.895c-.806 1.03-1.115 1.194-1.509.8-.272-.272-.763-.495-1.091-.495-.447 0-.402.147.18.587 1.205.912 2.498.772 2.648-.287.146-1.03 6.295-1.574 7.925-.701.442.236.803.308.803.159 0-1.898-7.478-1.951-8.956-.063m209.656-.735c-.385.29-.7.746-.7 1.013 0 .318.216.268.629-.144.691-.692 6.312-.907 7.302-.28.647.41.705 36.285.06 37.062-.34.41-1.613.885-4.291 1.602-.495.132-.9.409-.9.614 0 .496.688.477 1-.027.136-.22.867-.4 1.624-.4s1.376-.137 1.376-.305.405-.483.9-.7c.889-.39.901-.505 1.008-9.095.066-5.345.259-8.7.5-8.7.216 0 .392-.45.392-1s-.18-1-.4-1-.387-.495-.372-1.1c.025-.975.067-1.009.372-.3.294.684.348.624.372-.42.015-.671-.197-1.462-.472-1.759-.4-.431-.4-.482 0-.256 1.128.637.663-13.323-.48-14.381-1.171-1.086-6.655-1.38-7.92-.424m-224.699.54c0 .165 2.52.314 5.6.332s5.599-.117 5.599-.3-2.52-.332-5.6-.332-5.6.135-5.599.3m62.399 0c0 .165 2.52.3 5.6.3s5.6-.135 5.6-.3-2.52-.3-5.6-.3-5.6.135-5.6.3m90 .026c0 .179 2.34.318 5.2.309s5.2-.157 5.2-.326c0-.17-2.34-.309-5.2-.309s-5.2.147-5.2.326m56.8-.026c0 .165 2.43.306 5.4.314s5.4-.127 5.4-.3-2.43-.314-5.4-.314-5.4.135-5.4.3m-213.365 1.435c-2.375 1.312-7.035 6.043-7.035 7.142 0 .257.698-.468 1.551-1.611 1.746-2.341 4.432-4.534 6.953-5.679.962-.436 1.35-.758.896-.743-.44.015-1.504.416-2.365.891m80.458-.149c3.465 1.573 7.169 5.916 9.147 10.727.73 1.775.943 2.046.951 1.211.005-.592-.171-1.188-.391-1.324s-.4-.597-.4-1.024-.18-.776-.4-.776-.4-.36-.4-.8-.141-.8-.314-.8c-.172 0-.656-.58-1.075-1.289-.999-1.692-5.284-5.911-6.002-5.911-.309 0-.673-.18-.809-.4s-.642-.396-1.124-.391c-.627.006-.395.227.817.777m73.107-.386c-.136.22-.597.4-1.024.4s-.776.18-.776.4-.211.4-.469.4c-.784 0-6.331 6.234-6.331 7.115 0 .199-.312.975-.693 1.724-1.145 2.248-1.695 4.076-1.701 5.661-.003.825-.186 1.5-.406 1.5-.222 0-.4 1.059-.4 2.376 0 1.307.18 2.488.4 2.624s.403.642.406 1.124c.007 1.036.901 3.729 1.384 4.169.185.169.213-.039.06-.461-3.606-9.987.885-22.443 9.55-26.49q2.003-.935 1.124-.938c-.482-.002-.988.176-1.124.396m16.6.533c3.868 1.997 6.846 5.726 8.841 11.067.919 2.461 1.124 2.771 1.14 1.724.01-.702-.161-1.388-.381-1.524s-.4-.597-.4-1.024-.18-.776-.4-.776-.4-.368-.4-.817-.331-1.172-.736-1.606-.989-1.282-1.299-1.884c-1.205-2.342-5.843-6.096-7.526-6.091-.352.001.171.42 1.161.931m38.8-.072c-.77.442-1.85 1.277-2.4 1.856-.55.578-.64.757-.2.397.44-.359 1.853-1.207 3.141-1.884 1.287-.676 2.007-1.217 1.6-1.202s-1.371.391-2.141.833m17.146-.245c1.76.764 2.582.75 1.108-.018-.63-.329-1.44-.591-1.8-.582-.36.008-.048.278.692.6m31.921-.349c-.491.49-.306 27.756.198 29.305.914 2.808 1.274 3.441 2.496 4.402l1.239.975-1.019-1.175c-2.527-2.912-2.76-4.594-2.771-20.041-.008-10.246.104-13.312.49-13.468.279-.113.309-.216.067-.233-.239-.018-.554.088-.7.235m25.833-.002c-.388.157-.479 3.078-.406 13.068l.094 12.867.112-12.566c.075-8.45.257-12.741.555-13.1.469-.566.438-.589-.355-.269m8.29-.002c.977.485.489 26.845-.554 29.906-.82 2.406-.846 2.642-.198 1.8.409-.533.748-1.248.753-1.589s.191-.802.414-1.025c.647-.647.34-29.059-.315-29.192-.28-.057-.326-.011-.1.1M356.176 263.8c0 6.16.056 8.624.123 5.476a308 308 0 0 0 0-11.2c-.068-3.012-.123-.436-.123 5.724m-61.981-7.968a21 21 0 0 0-1.425 2.164 43 43 0 0 1-1.3 2.154c-.369.562-.67 1.298-.67 1.636s-.18.614-.4.614-.382.675-.359 1.5c.04 1.483.044 1.486.336.3.426-1.731 2.991-6.662 4.233-8.138.583-.694.908-1.262.72-1.262-.187 0-.698.464-1.135 1.032M99 258.09c-.88.213-2.028.469-2.551.569-1.011.193-5.649 4.37-5.649 5.087 0 .234.765-.382 1.7-1.368 3.773-3.977 9.601-5.081 13.946-2.642l1.754.985.107 10.43.106 10.43-1.106.31c-6.059 1.693-12.765-.304-15.786-4.702-.373-.544-.688-.783-.7-.532-.039.851 3.752 4.66 5.37 5.395 1.884.856 8.548 1.038 11.007.301l1.491-.446.253-3.254c.139-1.789.254-6.523.256-10.519l.002-7.265-1.91-1.176c-1.051-.646-2.784-1.306-3.851-1.466s-2.143-.343-2.39-.407-1.169.058-2.049.27m59.2.011c-2.55.493-5.124 1.45-3.98 1.478.451.012 1.007-.166 1.235-.394.662-.662 8.113-.525 9.801.181 1.736.725 4.744 3.517 4.744 4.403 0 .347.18.631.4.631s.4.9.4 2 .18 2 .4 2 .4.889.4 1.976-.18 2.088-.4 2.224-.4.856-.4 1.6-.18 1.464-.4 1.6-.4.597-.4 1.024-.18.776-.4.776-.4.204-.4.453c0 .576-2.037 2.346-2.7 2.347-.275 0-.5.144-.5.32 0 .413-2.113 1.137-4.4 1.507-.99.16-1.557.375-1.261.478s1.557-.028 2.802-.292c11.887-2.523 11.77-22.508-.141-24.118-.88-.119-1.87-.298-2.2-.399-.33-.1-1.5-.008-2.6.205m149.2.166c-2.332.561-3.815 1.333-2.56 1.333.33 0 .794-.194 1.031-.431.777-.777 7.823-.526 9.375.335 1.596.885 2.754 1.343 2.754 1.09 0-.419-3.933-2.101-5.465-2.336-.916-.141-1.906-.326-2.2-.412s-1.615.104-2.935.421m-57.6.083c-3.077.803-7.8 4.935-7.8 6.824 0 .289 3.013.426 9.4.426h9.4v-1.058c0-4.095-6.031-7.49-11-6.192m6.896 1.058c1.401.699 1.704 1.028 2.861 3.104 1.552 2.785 1.838 2.688-7.957 2.688-9.981 0-9.86.05-7.068-2.907 3.237-3.426 8.552-4.687 12.164-2.885m-104.453.825c-.134.348-.243 5.217-.243 10.82v10.188l1.5.642c.825.353 2.49.699 3.7.769l2.2.128-2.4-.531c-1.32-.293-2.895-.734-3.5-.98l-1.1-.449v-10.21c0-6.54.144-10.21.4-10.21.22 0 .4-.18.4-.4 0-.633-.689-.465-.957.233m149.782.792c-.905.818-1.562 1.571-1.46 1.674s.646-.273 1.207-.835 1.336-1.196 1.721-1.412.583-.509.439-.653-1.002.408-1.907 1.226m-220.183.612c-.353.707-.642 1.608-.642 2.001s-.18.826-.4.962c-.236.146-.4 2.545-.4 5.847 0 3.632.141 5.513.4 5.353.224-.139.4.175.4.715 0 .959 1.148 3.67 1.434 3.385.082-.083-.294-1.579-.836-3.325-1.367-4.401-1.361-8.752.017-12.857 1.077-3.21 1.09-4.214.027-2.081m217.843 2.536c-.67 1.471-.607 1.779.145.706.346-.495.565-1.095.485-1.335-.08-.239-.363.044-.63.629M90.303 265.2c-.472 1.617-.388 2.789.135 1.89.227-.391.355-1.201.285-1.8l-.128-1.09zm90.253 4.69c.005 2.69.149 4.67.32 4.4.384-.603.351-6.917-.042-8.29-.158-.55-.283 1.201-.278 3.89m108.821-3.34c-.474 1.886.415 11.45 1.063 11.45.198 0 .36.45.36 1s.158 1 .351 1c.194 0 .575.537.847 1.194.501 1.211 4.464 5.606 5.054 5.606.176 0-.59-.945-1.702-2.1-4.13-4.287-6.161-10.275-5.565-16.4.261-2.677.051-3.578-.408-1.75m9.275 1.55c-.522 1.949-.138 5.5.595 5.5.194 0 .353-.45.353-1s-.18-1-.4-1-.4-.54-.4-1.2.18-1.2.4-1.2.4-.45.4-1c0-1.245-.623-1.311-.948-.1m-28.585 1.367c-.144 2.71.871 2.533-14.522 2.533-14.868 0-15.066.027-13.991 1.876.37.634.423.588.434-.376l.012-1.1h13.751c15.287 0 14.828.084 14.542-2.672-.144-1.385-.165-1.409-.226-.261M90.04 273.676c.119 1.57.68 2.54.72 1.248.022-.702-.14-1.388-.36-1.524s-.382-.012-.36.276m151.976 1.652c-.085 3.859 6.852 8.053 12.849 7.77l2.935-.139-3.276-.08c-1.802-.043-3.388-.259-3.524-.479s-.777-.4-1.424-.4-1.176-.18-1.176-.4-.27-.4-.6-.4-.6-.18-.6-.4-.27-.4-.6-.4-.6-.18-.6-.4-.276-.4-.613-.4-.728-.315-.87-.7-.405-.8-.584-.921c-.18-.122-.68-.932-1.114-1.8-.469-.942-.794-1.285-.803-.851m57.629.781c.663 1.275.755 1.324.755.4 0-.453-.274-.929-.609-1.057-.512-.197-.536-.092-.146.657m-119.949 1.118c-.431 1.673-1.481 3.78-3.176 6.373-.63.965-.616.962.413-.083.587-.595 1.067-1.27 1.067-1.5s.136-.417.302-.417c.167 0 .504-.495.75-1.1 1.178-2.901 1.408-3.691 1.267-4.368-.09-.437-.342.005-.623 1.095m176.804.182c.302 2.678 3.938 7.086 4.983 6.041.125-.125-.226-.4-.781-.611-.554-.211-1.428-.981-1.941-1.711-.512-.731-1.074-1.388-1.247-1.461-.172-.074-.314-1.019-.314-2.1 0-1.196-.177-1.967-.452-1.967-.299 0-.383.611-.248 1.809m-55.733.929c1.033 1.931 5.961 4.49 8.537 4.434 1.737-.038.302-.703-1.604-.744-.715-.015-1.3-.208-1.3-.428s-.373-.4-.829-.4c-.982 0-1.971-.889-1.971-1.771 0-.346-.191-.629-.424-.629s-.312.18-.176.4.102.394-.076.387c-.561-.022-1.724-1.055-1.724-1.531 0-.251-.186-.456-.414-.456-.279 0-.285.242-.019.738M234 279.511c0 2.205 7.53 9.689 9.748 9.689.333 0 .704.16.825.356.224.364 1.977.742 4.827 1.044.952.101.42-.127-1.312-.562-3.528-.885-7.683-2.932-9.035-4.45-.547-.613-1.264-1.267-1.593-1.452-.33-.185-1.243-1.405-2.03-2.712s-1.43-2.168-1.43-1.913m32.4.489c0 .22-.349.4-.776.4s-.888.18-1.024.4-.657.4-1.157.4-1.042.135-1.204.3-1.227.505-2.367.755c-1.939.426-1.979.458-.622.5 1.448.045 3.761-.618 6.292-1.804 1.805-.845 2.121-.419 2.236 3.02.115 3.415-.084 3.728-3.178 5.005-1.852.764-2.154.994-1.324 1.007.592.009 1.188-.163 1.324-.383s.597-.4 1.024-.4.776-.151.776-.336c0-.184.45-.541 1-.791 1.867-.851 1.301-8.473-.629-8.473-.204 0-.371.18-.371.4m105.492.752c-.374.633-1.327 1.458-2.118 1.834-.792.375-1.343.779-1.225.896.375.376 2.722-1.238 3.755-2.582.549-.715.834-1.3.634-1.3-.201 0-.672.518-1.046 1.152m-289.092.343c0 .823.284 1.286 2 3.264.33.38 1.5 1.299 2.6 2.043 1.1.743 2.06 1.497 2.133 1.675.074.178.479.323.9.323s.767.18.767.4.439.4.976.4 1.088.18 1.224.4.822.394 1.524.386c1.179-.014 1.124-.07-.724-.738-4.969-1.797-9.309-4.824-10.571-7.374-.626-1.266-.828-1.456-.829-.779m234.4.45c0 .189-1.305.523-2.9.742-2.497.342-2.65.405-1.1.453 2.065.064 4.8-.596 4.8-1.159a.39.39 0 0 0-.4-.381c-.22 0-.4.155-.4.345m60.833 4.19c-1.118.954-3.068 2.243-4.333 2.864-1.377.676-2.067 1.208-1.72 1.325.319.108.649-.011.733-.264.085-.253.411-.46.726-.46.558 0 2.162-.77 2.561-1.23.11-.127.891-.694 1.735-1.261 1.357-.911 3.03-2.709 2.52-2.709-.104 0-1.104.781-2.222 1.735m-204.036-.075c-1.639 1.407-6.476 3.793-8.197 4.045-.977.143-.889.186.476.235.922.033 1.788-.12 1.924-.34s.597-.4 1.024-.4.776-.18.776-.4.346-.4.769-.4 1.309-.54 1.969-1.2 1.317-1.2 1.46-1.2c.362 0 1.531-1.205 1.347-1.388-.083-.083-.779.389-1.548 1.048m177.603.723c0 .229.236.417.525.417.288 0 .873.315 1.3.7.426.385 1.315.946 1.975 1.247.66.3 1.513.705 1.895.9.889.452 1.105.445 1.105-.039 0-.216-.495-.511-1.1-.656-.605-.144-1.28-.386-1.5-.538-1.653-1.141-4.2-2.372-4.2-2.031m-53.2 1.184c.55.448 1.225.819 1.5.824s.5.189.5.409.45.4 1 .4 1 .18 1 .4.495.392 1.1.383c.896-.014.693-.187-1.1-.935a79 79 0 0 1-3.6-1.607l-1.4-.689zm-182.4.457c-.77.406-1.771.746-2.224.757-1.081.025-2.718 1.187-1.7 1.206.372.007.788-.167.924-.387s.867-.4 1.624-.4 1.376-.16 1.376-.357.45-.469 1-.607 1-.428 1-.644c0-.519-.33-.448-2 .432m-19.061 2.47c.573.365 9.703.326 11.04-.047.538-.15-1.83-.267-5.262-.26s-6.032.145-5.778.307m56.261-.058c1.341.381 10.079.429 10.661.058.254-.162-2.266-.305-5.6-.318s-5.611.103-5.061.26m106.6-.036-1.2.305 1.2.042c.66.022 1.47-.134 1.8-.347.743-.48.087-.48-1.8 0m46.741.094c.584.374 9.33.322 10.659-.064.55-.159-1.726-.276-5.059-.26-3.332.017-5.852.162-5.6.324M362 290.4c1.338.429 5.202.429 6.2 0 .515-.221-.625-.34-3.2-.332-2.584.008-3.646.125-3 .332m-326.909.689c.71.088 1.97.09 2.8.003s.249-.159-1.291-.161-2.219.069-1.509.158m174.637 2.111c0 1.43.073 2.015.161 1.3s.089-1.885 0-2.6c-.088-.715-.161-.13-.161 1.3"/><path fill="#042a92" d="M235.467 152.667c-.147.146-.267 3.62-.267 7.72 0 9.227.781 8.413-8.08 8.413H220v3.982l7.5.109 7.5.109.2 7.8.2 7.8 1.9.122 1.9.122v-7.389c0-9.676-.925-8.655 7.843-8.655h7.357v-4h-7.186c-8.792 0-8.064.782-7.996-8.586.028-3.838-.065-7.167-.207-7.396-.283-.458-3.117-.579-3.544-.151M202.4 260.4v36.431l3.409-.115 3.41-.116-.006-36.2-.006-36.2-3.404-.116-3.403-.115zm-58.068-28.115c-.073.173-.022 7.065.114 15.315s.271 20.516.3 27.257c.05 11.272.11 12.28.754 12.534 9.17 3.628 22.358 2.942 27.319-1.419a56 56 0 0 1 2.258-1.848c1.352-1.042 4.123-5.934 4.123-7.28 0-.438.18-.908.4-1.044.659-.407.488-10.115-.214-12.129-1.725-4.953-5.433-9.658-9.073-11.511-2.361-1.202-13.435-1.453-16.042-.364-2.997 1.252-3.146.722-3.038-10.766l.084-8.83-3.426-.115c-1.884-.063-3.485.027-3.559.2M32.8 245.986c0 11.045-.036 11.605-.774 12-.476.255-4.778.414-11.2.414H10.4v6h10.426c6.422 0 10.724.159 11.2.414.74.396.774.966.774 13.016v12.601l3.418-.115 3.419-.116.081-12.467c.045-6.856.232-12.616.415-12.8.182-.183 5.222-.423 11.2-.533l10.867-.2.118-2.9.117-2.9H40.818l-.626-.957c-.534-.813-.619-2.545-.573-11.578.064-12.424.369-11.465-3.643-11.465H32.8zm76.949 5.114c-.082.275-.233.77-.336 1.1-.264.843-1.52.746-2.737-.212-1.594-1.253-12.653-1.219-15.169.048-4.036 2.032-8.307 6.585-8.307 8.857 0 .395-.158 1.03-.351 1.412-2.239 4.433-1.423 15.083 1.522 19.848 3.979 6.438 17.38 9.495 28.184 6.429 2.109-.599 4.012-1.302 4.229-1.563.385-.463.665-35.704.287-36.082-.463-.462-7.181-.313-7.322.163m209.074.597c-.746 1.314-.824 1.323-2.823.303-1.371-.699-2.358-.8-7.832-.8h-6.264l-2.952 1.68c-1.624.923-2.953 1.868-2.954 2.1s-.503.96-1.117 1.62c-6.359 6.845-5.861 21.796.934 28.034 5.421 4.977 16.477 6.641 25.785 3.882l3.8-1.127.249-8.795c.137-4.837.272-13.055.3-18.264l.051-9.469-3.277-.131c-3.213-.127-3.289-.109-3.9.967m-75.905.894c-4.607 2.564-9.291 9.411-9.312 13.612-.003.661-.169 1.771-.368 2.466-1.102 3.84 2.223 14.156 4.964 15.405.501.228 1.121.808 1.378 1.289.577 1.077 6.094 3.738 8.935 4.309 5.826 1.171 10.29.826 15.685-1.214l2.8-1.059.12-2.76c.164-3.786.061-3.961-1.799-3.054-9.242 4.505-23.706.809-23.719-6.061-.001-.592-.182-1.188-.402-1.324-.687-.424-.441-2.15.367-2.582.482-.258 5.648-.404 13.9-.392 7.223.01 13.358.009 13.633-.004.581-.026.724-5.036.154-5.389-.19-.117-.446-.826-.567-1.575-1.352-8.329-7.567-13.061-17.145-13.053l-6.142.004zm105.624-.784c-.611 1.592.128 27.975.827 29.553 4.009 9.043 19.558 11.286 28.197 4.069.94-.786 1.829-1.429 1.974-1.429.276 0 .806-1.205 1.595-3.628.317-.974.465-5.844.465-15.3V251.2h-7.2v12.623c0 13.427-.212 15.437-1.865 17.663-2.428 3.272-9.073 4.121-13.098 1.673-3.45-2.098-3.898-4.561-3.836-21.106.021-5.419.029-10.078.018-10.353-.03-.796-6.77-.694-7.077.107m-243.168 6.235c.454.202 1.546.796 2.426 1.322l1.6.955.113 10.141c.149 13.485.581 12.74-7.393 12.74-6.501 0-10.706-2.572-12.097-7.4-.699-2.425-.706-9.861-.012-11.361.265-.571.611-1.301.768-1.622 1.994-4.057 10.176-6.734 14.595-4.775m57.506-.395c12.441 2.621 13.277 21.757 1.097 25.112-3.737 1.029-11.421.107-12.205-1.464-.59-1.185-.725-19.532-.153-20.928.552-1.349 4.355-2.745 8.461-3.107.374-.033 1.634.141 2.8.387m94.237 1.011c2.942 1.706 5.237 5.752 4.064 7.165-.412.497-2.002.574-9.936.484l-9.445-.107-.121-1.045c-.092-.789.374-1.586 1.906-3.262 4.158-4.549 9.19-5.752 13.532-3.235m58.956.225c2.953 1.559 2.826.898 2.497 12.992l-.284 10.475-1.087.45c-1.173.486-9.304.347-11.399-.195-2.864-.741-5.982-4.1-7.061-7.605-3.675-11.936 6.801-21.677 17.334-16.117"/><path fill="#456eab" d="M252 133.951c0 6.266.254 5.989-5.624 6.135l-4.576.114v3.2l4.682.2c5.755.246 5.469-.071 5.605 6.207L252.2 155h3.6l.108-5.2c.132-6.385-.033-6.2 5.519-6.2 4.495 0 5.129-.294 4.902-2.276l-.129-1.124-5-.2-5-.2-.111-5.5-.112-5.5H252zm-17.127 18.561c-.295.356-.493 3.204-.564 8.118l-.109 7.57-7.2.2-7.2.2v4.4l7.3.109 7.3.109v7.768c0 8.837.127 9.189 3.143 8.726 2.488-.381 2.457-.272 2.457-8.761V173.2h6.967c8.447 0 8.233.064 8.233-2.443 0-2.4 1.064-2.073-7.6-2.334l-7.4-.223-.2-8-.2-8-2.236-.118c-1.527-.081-2.38.056-2.691.43m4.138.306c.142.229.235 3.558.207 7.396-.068 9.368-.796 8.586 7.996 8.586h7.186v4h-7.357c-8.768 0-7.843-1.021-7.843 8.655v7.389l-1.9-.122-1.9-.122-.2-7.8-.2-7.8-7.5-.109-7.5-.109V168.8h7.12c8.861 0 8.08.814 8.08-8.413 0-4.1.12-7.574.267-7.72.427-.428 3.261-.307 3.544.151m-34.744 22.649c-.147.146-.267 2.666-.267 5.6v5.333h-4.792c-4.779 0-4.793.003-5.044 1-.685 2.731-.234 3 5.032 3h4.781l.112 5.5.111 5.5h3.6l.2-5.4.2-5.4 4.8-.2 4.8-.2v-3.6l-4.8-.2-4.8-.2-.111-5.5-.112-5.5h-1.722c-.947 0-1.842.12-1.988.267m-2.167 48.398c-.85.343-.719 72.765.133 73.092 1.262.485 7.366.272 7.381-.257.127-4.661-.084-71.703-.226-71.846-.11-.11-.192 15.988-.181 35.773l.02 35.973-3.413.116-3.414.115v-72.888l3.601.129c1.98.07 3.6-.007 3.6-.172-.001-.329-6.695-.36-7.501-.035m-58.218 8.144c-.173.66-.107.744.311.397.318-.264 1.844-.393 3.827-.323l3.297.117-.084 8.83c-.108 11.488.041 12.018 3.038 10.766 2.607-1.089 13.681-.838 16.042.364 3.64 1.853 7.348 6.558 9.073 11.511.702 2.014.873 11.722.214 12.129-.22.136-.4.606-.4 1.044 0 1.346-2.771 6.238-4.123 7.28a56 56 0 0 0-2.258 1.848c-4.961 4.361-18.149 5.047-27.319 1.419-.644-.254-.704-1.263-.755-12.534-.031-6.741-.176-18.917-.324-27.057-.25-13.804-.273-12.979-.344 12.251-.062 21.858.023 27.134.446 27.485.288.239 1.503.7 2.7 1.025s2.73.759 3.406.966c8.613 2.637 21.724-.593 26.148-6.441 4.4-5.816 5.208-15.715 1.84-22.531-4.169-8.436-10.459-11.3-21.417-9.754-1.87.264-3.76.506-4.2.539-.775.058-.806-.248-1-9.94l-.2-10-3.85-.114c-3.617-.107-3.863-.063-4.068.723M32.467 234.7c-.199.385-.387 5.535-.418 11.445-.032 5.909-.156 10.904-.277 11.1-.12.195-4.943.355-10.716.355-12.13 0-11.456-.227-11.456 3.866 0 3.894-.514 3.734 11.974 3.734 8.071 0 10.427.113 10.431.5.003.275.021 5.81.041 12.3.041 13.679-.241 12.802 4.103 12.794 4.612-.009 4.224 1.154 4.345-13.014l.106-12.38 10.6-.2c12.339-.233 11.602.004 11.594-3.724-.009-4.153.869-3.848-11.413-3.969L40.6 257.4l-.103-11.2c-.12-13.058.201-12.2-4.559-12.2-2.557 0-3.174.124-3.471.7m6.946.121c.144.232.236 5.202.206 11.044-.046 9.033.039 10.765.573 11.578l.626.957h21.617l-.117 2.9-.118 2.9-10.867.2c-5.978.11-11.018.35-11.2.533-.183.184-.37 5.944-.415 12.8l-.081 12.467-3.419.116-3.418.115V277.83c0-12.05-.034-12.62-.774-13.016-.476-.255-4.778-.414-11.2-.414H10.4v-6h10.426c6.422 0 10.724-.159 11.2-.414.738-.395.774-.955.774-12V234.4h3.176c1.794 0 3.29.183 3.437.421m70.054 15.446c-.147.146-.267.596-.267 1 0 .937-1.274.965-2.657.059-1.715-1.124-12.497-1.017-15.03.149-3.789 1.744-8.713 6.598-8.713 8.589 0 .395-.45 2.06-1 3.698-2.464 7.342-.08 17.714 4.945 21.511 5.247 3.964 10.754 5.446 18.255 4.91 2.42-.173 4.85-.345 5.4-.382.551-.036 1.394-.277 1.874-.534s1.157-.467 1.504-.467 1.439-.38 2.426-.844l1.796-.844V268.97c0-17.527-.026-18.156-.774-18.556-.847-.453-7.33-.577-7.759-.147m209.197.326c-.326.326-.663.804-.749 1.063-.113.337-.717.255-2.136-.292-1.628-.628-3.015-.761-7.823-.752l-5.844.011-2.679 1.36c-8.984 4.56-12.535 19.298-6.998 29.044 2.388 4.205 8.159 8.135 13.033 8.876 4.146.63 14.79.22 15.661-.603.29-.275.853-.5 1.251-.5.879 0 3.484-1.056 3.778-1.532.527-.852.307-36.581-.227-36.919-.953-.604-6.609-.414-7.267.244m-201.593.344c.378.378.098 35.619-.287 36.082-1.145 1.38-7.939 2.652-14.125 2.644-7.001-.008-10.334-.989-15.062-4.432-3.256-2.371-3.856-3.384-5.422-9.151-1.048-3.86-.696-11.063.674-13.775.193-.382.351-1.017.351-1.412 0-2.272 4.271-6.825 8.307-8.857 2.516-1.267 13.575-1.301 15.169-.048 1.217.958 2.473 1.055 2.737.212.103-.33.254-.825.336-1.1.141-.476 6.859-.625 7.322-.163m130.129-.169c-12.965 1.471-19.883 24.107-10.078 32.972a41 41 0 0 1 1.957 1.933c4.803 5.125 17.987 6.629 26.213 2.992 2.553-1.129 2.6-1.22 2.49-4.796-.106-3.445-.399-3.751-2.634-2.751-5.217 2.332-13.307 2.688-17.238.758-3.196-1.57-5.084-3.847-6.28-7.574-.758-2.364-1.134-2.302 13.951-2.302 15.787 0 14.419.342 14.419-3.609 0-6.102-5.067-14.436-10.2-16.779-1.874-.855-8.556-1.303-12.6-.844m78.749 9.562a966 966 0 0 1-.3 18.264l-.249 8.795-3.8 1.127c-9.308 2.759-20.364 1.095-25.785-3.882-6.795-6.238-7.293-21.189-.934-28.034.614-.66 1.116-1.389 1.117-1.62s1.33-1.177 2.954-2.1l2.952-1.68h6.264c5.474 0 6.461.101 7.832.8 1.999 1.02 2.077 1.011 2.823-.303.611-1.076.687-1.094 3.9-.967l3.277.131zm22.551-9.265c-.661.267-.715 25.495-.06 28.546.939 4.38 4.632 8.267 8.863 9.329.603.151 1.097.424 1.097.605 0 .182 2.875.348 6.388.368l6.388.038 2.465-1.312c8.254-4.392 8.523-5.112 8.678-23.203.138-16.059.568-14.621-4.37-14.63-4.605-.008-4.256-1.179-4.413 14.826l-.136 13.831-1.121 1.469c-1.709 2.24-2.879 2.668-7.297 2.668-8.218 0-8.992-1.814-8.942-20.932.016-6.122-.06-11.221-.169-11.331-.312-.311-.334 20.207-.027 24.275.506 6.701 4.89 10.188 11.056 8.793 7.066-1.599 7.5-2.79 7.5-20.582V251.2h7.2v13.872c0 9.456-.148 14.326-.465 15.3-.789 2.423-1.319 3.628-1.595 3.628-.145 0-1.034.643-1.974 1.429-8.739 7.301-24.494 4.908-28.252-4.291-.633-1.55-.71-3.251-.712-15.738l-.002-14 3.4-.225 3.4-.226-3.2-.043c-1.76-.024-3.425.048-3.7.159m-88.809 1.143c4.044 2.031 8.294 7.723 8.996 12.05.121.749.377 1.458.567 1.575.57.353.427 5.363-.154 5.389-.275.013-6.41.014-13.633.004-8.252-.012-13.418.134-13.9.392-.808.432-1.054 2.158-.367 2.582.22.136.401.732.402 1.324.013 6.87 14.477 10.566 23.719 6.061 1.86-.907 1.963-.732 1.799 3.054l-.12 2.76-2.8 1.059c-5.395 2.04-9.859 2.385-15.685 1.214-2.841-.571-8.358-3.232-8.935-4.309-.257-.481-.877-1.061-1.378-1.289-2.741-1.249-6.066-11.565-4.964-15.405.199-.695.365-1.805.368-2.466.021-4.201 4.705-11.048 9.312-13.612l2.482-1.382 6.142-.004c5.772-.005 6.263.056 8.149 1.003m-161.777 5.534c-2.226.494-6.312 3.401-7.135 5.075-.157.321-.503 1.051-.768 1.622-.694 1.5-.687 8.936.012 11.361 1.391 4.828 5.596 7.4 12.097 7.4 7.974 0 7.542.745 7.393-12.74l-.113-10.141-1.6-.955c-3.312-1.978-6.174-2.447-9.886-1.622m60.286-.267c-6.721.869-7.022 1.452-6.934 13.435.091 12.274-.188 11.81 7.311 12.176 10.111.494 15.168-5.552 13.624-16.286-.651-4.522-4.286-8.092-9.321-9.153-2.124-.448-2.452-.46-4.68-.172m92.2.092c-3.638.791-8.971 5.432-8.721 7.588l.121 1.045 9.445.107c10.436.118 10.676.065 10.164-2.267-.933-4.249-6.415-7.472-11.009-6.473m56.6.177c-9.774 2.46-12.441 16.999-4.249 23.16 2.664 2.003 11.417 3.152 14.448 1.896l1.087-.45.284-10.475c.157-5.761.17-10.771.031-11.134-.85-2.2-7.718-3.975-11.601-2.997m-203.561.483c1.067.16 2.8.82 3.851 1.466l1.91 1.176-.002 7.265c-.002 3.996-.117 8.73-.256 10.519l-.253 3.254-1.491.446c-9.982 2.991-17.284-2.287-17.235-12.457.026-5.551 2.914-10.554 6.486-11.237.523-.1 1.671-.356 2.551-.569s1.802-.334 2.049-.27 1.322.247 2.39.407m59.561.068c11.909 1.61 12.028 21.595.143 24.117-2.834.602-7.671.342-9.643-.517l-1.5-.654.006-10.321c.003-5.676.138-10.515.3-10.753.571-.841 7.318-2.651 8.494-2.278.33.104 1.32.287 2.2.406m149.535-.037c.916.14 2.52.683 3.565 1.205l1.9.95v21.549l-1.5.417c-7.643 2.123-18.123-2.646-16.989-7.731.092-.414-.075-.902-.372-1.085-.765-.473-.75-5.862.018-6.337.344-.212.467-.689.322-1.244-.85-3.251 7.118-9.223 10.856-8.136.294.086 1.284.271 2.2.412m-55.159 1.036c1.625 1.066 3.424 3.823 3.424 5.248v1.058h-9.4c-9.706 0-9.843-.025-8.981-1.636 2.63-4.913 10.728-7.442 14.957-4.67"/><path fill="#b3b8a5" d="M203.893 81.598c-1.041.819-1.072.968-1.181 5.721L202.6 92.2l-4.466.2c-4.847.217-5.639.623-6.249 3.2-.527 2.232.571 2.691 6.028 2.523l4.887-.151.013 4.914c.015 5.954.283 6.516 3.104 6.509 3.364-.008 3.283.14 3.283-5.982V98h3.12c1.716 0 3.293.173 3.505.385.248.248.958.188 1.98-.166 1.721-.596 1.878-1.199 1.178-4.519-.314-1.49-.132-1.448-5.683-1.312l-4.1.099v-5.194c0-5.761-.034-5.843-2.619-6.269-1.303-.215-1.827-.103-2.688.574m3.441 2.702c.108.605.216 2.888.238 5.073.05 4.833-.448 4.387 5.16 4.627 4.469.191 4.673.238 4.796 1.102.169 1.19-.184 1.285-5.195 1.4-5.209.12-4.777-.38-4.871 5.636-.086 5.475-.149 5.678-1.643 5.302l-1.019-.255v-4.969c0-5.915.277-5.609-5.08-5.613-4.394-.003-5.491-.406-4.668-1.714.356-.566 1.171-.709 4.567-.804 5.365-.149 5.181.062 5.181-5.934V83.2h1.168c.96 0 1.204.196 1.366 1.1m-36.37 8.785a10 10 0 0 1-.548 1.337c-.179.342-.192 3.492-.028 7s.219 6.468.122 6.578-3.347.233-7.222.273c-6.852.072-7.064.099-7.757 1-.916 1.19-.972 4.92-.102 6.666l.63 1.261h6.921c5.581 0 7.016.113 7.407.584.483.582.375 6.453-.207 11.221-.393 3.22.625 4.199 4.349 4.182 4.45-.019 4.375.116 4.302-7.763-.082-8.89-.734-8.181 7.644-8.315l6.857-.109.668-1.2c2.111-3.795.319-9.591-2.434-7.872-1.421.888-11.853.631-12.353-.304q-.414-.775-.014-1.023c.52-.322.521-2.48.001-2.801-.5-.309-.505-4.262-.008-6.414.269-1.164.222-2.055-.171-3.2l-.545-1.586-3.645-.115c-3.21-.101-3.671-.03-3.867.6m62.412-.247c-.149.241-.24 3.728-.203 7.748l.068 7.31-.921.247c-.506.135-3.62.254-6.92.264-7.446.023-7.394-.006-7.684 4.263-.307 4.538-.405 4.483 8.305 4.62l6.979.11.122 7.2c.14 8.3-.13 7.695 3.654 8.17 4.853.61 5.224-.015 5.224-8.803 0-7.461-.801-6.754 7.651-6.762 6.935-.006 6.7.147 6.835-4.438.136-4.643.611-4.367-7.51-4.367H242V94.509l-1.055-1.054c-1.146-1.147-6.949-1.619-7.569-.617m-56.766 1.978c.141.229.287 3.604.323 7.5.084 8.907-.698 8.084 7.677 8.084 7.595 0 7.8.065 7.784 2.474-.014 2.044-.271 2.119-7.658 2.225-4.156.06-7.061.266-7.315.52-.261.261-.432 3.146-.449 7.596-.031 7.937.065 7.532-1.853 7.843-2.572.418-2.758-.147-2.683-8.13.037-3.842-.094-7.146-.29-7.342s-3.32-.379-6.944-.406c-7.295-.056-8.002-.235-8.002-2.02 0-2.734.073-2.76 7.79-2.76 8.35 0 7.597.775 7.48-7.699-.107-7.77.042-8.301 2.32-8.301.86 0 1.678.187 1.82.416M240 102.4l.2 7.8 6.971.11c7.597.119 8.029.244 8.029 2.306 0 2.653.192 2.584-7.21 2.584-8.914 0-7.99-.926-7.99 8 0 8.41.155 8-3.019 8-2.502 0-2.627-.412-2.551-8.425.036-3.748-.061-6.94-.215-7.094-.153-.155-3.46-.371-7.347-.481l-7.068-.2v-4.4l7.2-.2 7.2-.2.2-7.4c.235-8.678.158-8.475 3.135-8.319l2.265.119zm-38.454 17.3c-.342.638-.454 3.317-.385 9.2l.098 8.3h-7.858c-9.551 0-9.133-.219-9.14 4.795-.007 5.024-.425 4.805 9.166 4.805h7.884l-.194 7.72c-.253 10.093.079 10.729 5.483 10.514 4.17-.166 5.523-1.762 4.661-5.496-.72-3.123-.604-10.548.185-11.752.738-1.126 10.868-1.546 12.513-.519 1.518.948 3.641-.584 3.641-2.626 0-.947.178-2.243.396-2.881.287-.841.242-1.6-.163-2.76l-.558-1.6-7.993-.108c-7.887-.107-7.996-.12-8.232-1-.468-1.747-.272-11.868.246-12.697.395-.633.395-.957 0-1.59-.273-.437-.496-1.039-.496-1.338 0-2.036-8.221-2.895-9.254-.967m7.198 1.8c.205.385.396 4.287.424 8.67.064 9.963-.828 9.03 8.638 9.03 8.604 0 8.199-.145 8.188 2.933-.011 2.906.114 2.861-8.16 2.917-9.683.064-8.634-.952-8.634 8.364 0 9.494.039 9.386-3.414 9.386-2.413 0-2.587-.06-2.594-.9-.101-10.905-.233-16.275-.402-16.444-.115-.115-3.771-.271-8.123-.347-8.825-.153-8.65-.093-8.661-2.976-.011-3.078-.418-2.933 8.208-2.933 9.843 0 8.95.91 8.943-9.11-.003-4.339.006-8.205.019-8.59.02-.592.423-.7 2.61-.7 2.054 0 2.662.144 2.958.7m41.956 5.857c-.606.46-.7 1.257-.7 5.923v5.391l-4.882.092c-5.904.11-5.518-.114-5.518 3.199 0 3.845.284 4.038 5.931 4.038H250v5.12c0 6.145-.043 6.08 4.031 6.08 3.927 0 3.897.046 4.005-6.109l.089-5.091h4.524c5.274 0 5.438-.121 5.509-4.061.056-3.075-.053-3.139-5.481-3.184l-4.677-.038v-5.415c0-6.416-.037-6.477-4-6.477-1.544 0-2.884.216-3.3.532m-95.442.178c-1.138.331-2.406 3.477-1.689 4.194.237.237.431 1.723.431 3.302 0 3.779-.218 3.949-4.712 3.674-5.437-.332-6.162.157-5.784 3.901.221 2.194 1.204 2.594 6.376 2.594H154v4.938c0 5.624.3 6.262 2.946 6.262 3.106 0 3.454-.629 3.454-6.246V145.2l4.3-.009c5.422-.011 6.118-.407 6.189-3.52.067-2.949-.155-3.071-5.61-3.071H160.6l-.113-4.941c-.076-3.342-.278-5.107-.623-5.452-.639-.639-3.354-1.035-4.606-.672m100.642.589c.357.231.5 1.782.5 5.42 0 6.292-.203 6.056 5.2 6.056 4.662 0 5.204.227 5.194 2.18-.011 2.253-.338 2.408-5.38 2.554-5.428.159-4.968-.423-5.116 6.466l-.098 4.6-1.851.12c-2.922.189-3.149-.254-3.149-6.149V144.4h-4.371c-5.154 0-5.742-.313-5.55-2.949l.121-1.651 4.585-.114c5.515-.137 5.201.222 5.209-5.963.005-4.365.087-4.935.78-5.42.844-.591 3.129-.695 3.926-.179m-97.1 6.676.2 5 2.8.245c1.54.136 3.417.191 4.17.124 1.941-.173 2.906.443 2.754 1.758L168.6 143l-4.376.114c-5.615.147-5.424-.055-5.424 5.721 0 5.196-.467 6.2-2.4 5.165-.731-.391-.8-.838-.8-5.165 0-5.776.191-5.574-5.424-5.721-4.031-.105-4.384-.177-4.478-.914-.219-1.709.415-1.972 4.779-1.986 5.384-.018 5.123.255 5.123-5.371 0-5.2.046-5.332 1.786-5.162l1.214.119zm12.48 15.68c-.341.341-.48 2.773-.48 8.4v7.92h-7.376c-8.447 0-7.944-.242-7.98 3.843-.033 3.77-.51 3.557 7.989 3.557h7.366l.001 8.076c0 9.206-.322 8.521 4.097 8.704 4.155.172 3.89.758 3.897-8.613.006-7.749.118-8.678.969-8.025.534.411 13.645-.016 14.086-.458.539-.539.365-5.745-.216-6.444-.45-.543-1.614-.64-7.682-.64H178.8v-7.856c0-7.013-.075-7.913-.7-8.387-.899-.682-6.155-.742-6.82-.077m62.4 0c-.341.341-.48 2.771-.48 8.391v7.911l-7.5.109-7.5.109-.116 3.5-.115 3.5 1.115.045c.614.025 3.754.008 6.978-.038 5.479-.077 5.858-.034 5.8.655-.04.478.185.718.638.682 1.027-.081 1.069 12.786.045 13.917-1.175 1.298-.107 1.927 2.928 1.726 1.464-.096 2.963.018 3.418.262.679.363 1.005.24 2-.756l1.19-1.189-.38-6.94c-.514-9.378-1.379-8.39 7.247-8.267l7.252.103.119-2.995c.201-5.019.873-4.625-7.633-4.481l-7.349.124.149-1.724c1.162-13.448.693-15.124-4.233-15.124-1.872 0-3.282.189-3.573.48m6.629 9.102c.13 9.283-.679 8.404 7.742 8.412 7.602.007 7.666.033 7.472 3.075L255.4 173l-7.4.223c-4.07.123-7.445.258-7.5.3s-.1 3.482-.1 7.644c0 9.298.156 8.833-2.963 8.833-3.523 0-3.437.216-3.437-8.637 0-9.107.904-8.163-7.819-8.163-7.34 0-7.642-.122-7.121-2.867.443-2.335.434-2.333 7.989-2.333H234v-7.72c0-9.016-.106-8.761 3.596-8.596l2.604.116zm-63.109.218c.25 9.505-.564 8.6 7.744 8.6 7.617 0 7.856.073 7.856 2.4 0 2.333-.224 2.4-8.037 2.4-8.428 0-7.563-.937-7.563 8.2 0 8.382.053 8.2-2.375 8.2-2.678 0-2.807-.397-2.926-9l-.099-7.2-7.16-.2c-8.004-.224-7.942-.197-7.461-3.162l.233-1.438 7.194-.2 7.194-.2.2-7.6c.232-8.819.184-8.679 2.936-8.52l2.064.12zm25.462 14.131c-.539.597-.662 1.631-.662 5.588v4.856l-4.7.112c-3.5.084-4.674.241-4.6.613.055.275-.041.5-.213.5-.447 0-.079 5.7.407 6.3.279.346 1.776.5 4.855.499h4.451l-.122 4.96-.123 4.96 1.284.641c1.57.783 5.945.885 5.993.14.018-.275.049-2.79.069-5.589l.037-5.088 5.031-.112 5.031-.111v-7.6l-5.038-.111-5.037-.112-.055-5.039c-.034-3.106-.23-5.249-.512-5.588-.725-.874-5.263-.739-6.096.181m5.651 6.044c.142 6.251-.059 6.025 5.345 6.025 4.976 0 5.692.482 4.888 3.291l-.375 1.309-4.447.113c-5.478.139-5.27-.096-5.411 6.112l-.113 4.975h-4.4l-.111-5.5-.112-5.5-4.488-.006c-5.215-.007-5.575-.155-5.632-2.323-.058-2.219-.002-2.245 5.275-2.471l4.668-.2.105-5c.133-6.322.022-6.069 2.591-5.921l2.104.121zm-7.923 42.305c-.006.176-.001 16.83.01 37.01.015 28.115-.094 36.871-.466 37.467-.385.617-.377.909.039 1.411.711.856 10.475.938 11.176.094.322-.388.438-10.833.416-37.5-.016-20.329.085-37.253.225-37.609.173-.439-.001-.715-.54-.856-1.323-.346-10.849-.361-10.86-.017m8.836.934c.966.517 1.247 73.647.285 74.241-.98.606-6.447.548-7.402-.078l-.909-.595v-72.737l.889-.622c1.034-.724 5.908-.867 7.137-.209m-61.267 5.959c-6.218.333-5.562-3.366-5.32 29.963.114 15.765.197 28.965.184 29.332-.015.442.417.756 1.277.927.715.141 2.56.678 4.1 1.191 4.447 1.484 19.243 1.686 19.715.27.084-.253.312-.363.506-.243.526.325 4.045-1.383 3.769-1.829-.13-.211.127-.384.572-.384.783 0 6.038-4.606 6.038-5.292 0-.187.381-.856.847-1.486s.737-1.324.602-1.542c-.134-.218.025-.499.353-.626.329-.126.598-.674.598-1.218s.164-1.09.365-1.214.387-3.017.414-6.429c.027-3.411.165-6.502.305-6.867.193-.502.091-.602-.415-.408-.511.196-.669.03-.669-.707 0-.53-.16-1.062-.355-1.183s-.47-.834-.611-1.585c-.14-.751-.532-1.472-.87-1.602-.338-.129-.488-.44-.333-.691.163-.264-.471-1.147-1.51-2.102-1.011-.93-1.708-1.894-1.601-2.212.13-.388-.015-.485-.465-.312-.36.138-.655.077-.655-.137 0-.213-.236-.387-.525-.387s-1.035-.531-1.657-1.181-1.241-1.168-1.375-1.153c-1.493.175-3.243-.155-3.243-.612 0-1.233-6.858-1.404-10.2-.254-1.279.44-2.792.8-3.363.8l-1.037.001.134-7.101c.081-4.259.306-7.307.563-7.617.307-.37.297-.649-.034-.98-.615-.615-.591-2.176.037-2.47.4-.186.4-.28 0-.466-.275-.129-.5-.543-.5-.92 0-.688-.767-1.711-1.18-1.574-.121.041-2.128.176-4.461.3m4.198 2.26c.134.348.243 4.848.243 10v9.367h2c1.1 0 2-.18 2-.4 0-.248 2.133-.4 5.6-.4s5.6.152 5.6.4c0 .22.619.4 1.376.4s1.488.18 1.624.4.5.4.809.4c.718 0 5.003 4.219 6.002 5.911.419.709.903 1.289 1.075 1.289.173 0 .314.36.314.8s.18.8.4.8.4.272.4.605.165.918.367 1.3c1.608 3.046 1.437 11.803-.327 16.695l-.683 1.9c-.138.385-.409.7-.604.7-.194 0-.353.2-.353.444 0 .459-3.369 3.956-3.812 3.956-.137 0-.79.54-1.45 1.2s-1.546 1.2-1.969 1.2-.769.18-.769.4-.324.4-.72.4-.891.163-1.1.361c-1.362 1.295-18.414 1.279-19.215-.018-.117-.189-.844-.343-1.617-.343s-1.656-.225-1.963-.5a57 57 0 0 0-1.171-1.016c-.643-.54-.983-55.981-.347-56.617.617-.618 8.039-.29 8.29.366m-121.334 1.282c-.265.283-.473 1.093-.463 1.8.011.707.069 5.928.13 11.602l.11 10.317-11.22-.117-11.221-.117.063 4.69c.087 6.451-.989 5.91 11.746 5.91h10.671l-.042 10.1c-.023 5.555-.184 10.82-.357 11.7-.616 3.12.483 3.8 6.14 3.8 6.233 0 5.696 1.275 5.637-13.381l-.048-12.219 10.415-.05c11.404-.055 10.808-.03 11.516-.48.538-.341.724-8.251.25-10.62-.318-1.589-4.15-2.004-4.15-.45q0 .8.8.8c.44 0 .8-.18.8-.4 0-.601.683-.481.931.163.182.475-1.416.572-10.158.617L42 256.433l.032-11.516c.017-6.334.122-11.292.233-11.017.308.765.935.595.935-.253 0-1.349-11.198-2.192-12.377-.932m9.645 1.593c.387.387.494 2.996.452 11-.031 5.771.031 10.807.139 11.192.179.644 1.037.7 10.719.7 8.542 0 10.612.106 10.99.561 1.013 1.221.942 5.804-.117 7.523-.028.046-4.911.181-10.851.3L41 265.8l-.128 12.2c-.071 6.823-.292 12.368-.501 12.581-.521.532-5.043.745-6.971.329l-1.6-.345-.2-12.383-.2-12.382-10.6-.2c-12.463-.235-11.6.076-11.6-4.175 0-4.472-.75-4.193 11.633-4.318L31.4 257l.103-11.2c.093-10.107.171-11.252.8-11.729.907-.688 7.43-.499 8.165.237m76.732 13.654c-.777.436-11.032.835-11.468.446-.716-.64-10.976.164-11.515.901-.332.455-1.051.691-2.1.691-1.535 0-3.864.866-4.322 1.608-.121.196-.483.256-.804.133-.333-.128-.696.066-.843.451-.193.503-.338.548-.567.177-.237-.383-.463-.345-.97.163-.364.364-.545.851-.402 1.082s.042.683-.224 1.004c-.265.32-.336.582-.156.582s-.221.585-.893 1.3c-.671.715-1.331 1.615-1.466 2s-.521.7-.857.7c-.776 0-.775.295.003 1.073.554.554.554.661-.005 1.071-.445.327-.673 1.405-.807 3.804-.102 1.841-.39 3.594-.639 3.895-.34.408-.325 1.229.059 3.252.832 4.393 1.176 3.811 1.176-1.991 0-3.207.165-5.559.4-5.704.22-.136.4-.591.4-1.011 0-.421.36-1.406.8-2.189s.8-1.777.8-2.208c0-2.398 7.169-8.392 10.038-8.392.639 0 1.162-.18 1.162-.4 0-.248 2.133-.4 5.6-.4s5.6.152 5.6.4c0 .22.414.4.92.4s1.143.223 1.415.495c.394.394.703.23 1.509-.8.998-1.274 1.066-1.295 4.285-1.282 5.137.02 4.671-1.967 4.671 19.923v18.849l-1 .251c-.55.138-1 .411-1 .607 0 .197-.619.357-1.376.357s-1.473.155-1.59.344c-.798 1.292-18.862 1.304-19.66.014-.122-.197-.661-.358-1.198-.358s-.976-.18-.976-.4-.345-.4-.767-.4c-.421 0-.826-.145-.9-.323-.073-.178-1.033-.932-2.133-1.675-1.1-.744-2.27-1.663-2.6-2.043-1.701-1.96-2-2.432-2-3.151 0-.431-.36-1.425-.8-2.208s-.8-1.879-.8-2.436c0-.572-.174-.904-.4-.764-.22.136-.4.689-.4 1.229s.18 1.339.4 1.776c.976 1.939 1.115 2.298 1.392 3.608.309 1.458 1.62 3.187 2.416 3.187.258 0 1.092.585 1.852 1.3 1.481 1.392 2.577 2.173 3.54 2.523.33.12 1.11.479 1.732.797.623.319 1.468.58 1.877.58s.839.155.956.343 1.691.379 3.498.423 3.399.149 3.536.234c1.007.621 10.868-.562 12.831-1.54 1.17-.583 2.421-1.06 2.781-1.06 1.478 0 1.578-1.277 1.685-21.496.085-16.105.007-19.733-.429-19.9-.636-.244-.529-.257-1.267.158m209.469-.098c-.145.146-2.082.31-4.304.365-3.462.087-4.166.221-4.928.936-.517.486-1.421.835-2.163.835-.701 0-1.274.18-1.274.4s.529.4 1.176.4 1.288.18 1.424.4c.41.664 1.4.449 1.4-.304 0-3.405 9.284-1.95 9.704 1.521.128 1.05.183.877.232-.717.035-1.155.244-2.1.464-2.1.652 0 .455-1.493-.233-1.757-.812-.312-1.17-.307-1.498.021M356 249c0 1.227-5.213 1.51-7.346.398-2.744-1.432-3.032-1.077-2.846 3.502.092 2.255.351 9.32.576 15.7s.474 11.87.552 12.2c.524 2.2 1.974 4.843 2.538 4.627.293-.112.397.043.263.393-.128.332.011.58.324.58.301 0 .751.328 1.002.729.506.81 6.104 3.837 6.453 3.489.121-.122.645.057 1.164.397 1.285.842 11.825.796 13.127-.057.471-.308.967-.451 1.102-.316s.778-.134 1.43-.598 1.382-.844 1.623-.844.438-.18.438-.4.278-.4.617-.4c.816 0 4.983-4.152 4.983-4.965 0-.349.18-.635.4-.635s.4-.439.4-.976.17-1.082.378-1.211c.224-.138.392-5.174.41-12.278.018-6.624.12-12.186.227-12.36s.079-1.578-.065-3.12l-.26-2.804-3.321.009c-1.826.005-3.683-.106-4.125-.246s-1.489-.071-2.324.154l-1.52.408.115 13.384c.12 13.854.022 14.83-1.735 17.358-.045.064-.599.21-1.231.323s-1.548.465-2.035.782c-.998.65-3.767.768-4.819.206a10 10 0 0 0-1.404-.591c-.39-.121-.83-.539-.979-.929-.148-.39-.665-1.022-1.148-1.405-1.405-1.111-1.91-9.956-1.378-24.116.089-2.377-.036-3.934-.366-4.551-.404-.755-.403-1 .004-1.252.395-.244.366-.452-.131-.949-.874-.874-1.093-.801-1.093.364m-108.2.173c-.88.44-2.378.806-3.328.813-1.876.015-3.535.967-6.962 3.995-1.86 1.643-2.352 2.335-3.781 5.319-.395.825-.9 1.501-1.123 1.503-1.24.01-1.851 14.989-.698 17.097 1.134 2.073 1.306 2.554 1.06 2.952-.143.231.365 1.079 1.129 1.884s1.506 1.798 1.649 2.206c.157.446.497.651.853.514q.593-.228.84.758c.136.542.419.986.628.986s.266-.225.127-.5.021-.162.357.25c.826 1.015 5.483 3.849 6.325 3.85.372 0 .788.18.924.4s1.101.4 2.144.4 2.089.193 2.325.429c.476.476 7.472.267 11.531-.345 3.457-.52 6.047-1.824 6.75-3.397.858-1.921 1.187-8.875.449-9.488-.853-.708-4.518-.118-5.105.822-.377.603-.781.697-2.178.505-1.697-.232-2.512.407-1.016.798.641.168-3.084.447-4.17.313-.258-.032-.584.127-.723.352-.327.529-3.682.538-4.007.011-.136-.22-.957-.4-1.824-.4s-1.576.18-1.576.4.529.4 1.176.4 1.288.18 1.424.4c.545.881 10.065.152 11.18-.856.209-.189.783-.344 1.276-.344s1.008-.18 1.144-.4.597-.4 1.024-.4.776-.18.776-.4.167-.4.371-.4c1.93 0 2.496 7.622.629 8.473-.55.25-1 .607-1 .791s-.349.336-.776.336-.876.16-.997.356c-1.004 1.625-19.05 1.625-20.054 0-.121-.196-.492-.356-.825-.356-.87 0-3.69-2.028-6.231-4.481-1.939-1.871-2.765-3.164-3.908-6.119a206 206 0 0 0-.759-1.919c-.248-.615-.45-1.55-.45-2.076 0-.527-.18-1.069-.4-1.205s-.4-1.317-.4-2.624c0-1.317.178-2.376.4-2.376.22 0 .403-.675.406-1.5.006-1.585.556-3.413 1.701-5.661.381-.749.693-1.525.693-1.724 0-.881 5.547-7.115 6.331-7.115.258 0 .469-.18.469-.4s.349-.4.776-.4.888-.18 1.024-.4.867-.4 1.624-.4 1.376-.18 1.376-.4c0-.246 2-.4 5.2-.4s5.2.154 5.2.4c0 .22.602.4 1.339.4 2.357 0 6.775 3.273 8.226 6.093.31.602.894 1.449 1.299 1.884s.736 1.157.736 1.606.18.817.4.817.4.324.4.72.159.891.354 1.1c.602.646.959 8.161.42 8.812-.391.471-2.83.568-14.223.568H242v1.004c0 1.116 1.512 4.596 1.997 4.596.171 0 .404.36.519.8s.496.8.847.8c.35 0 .637.18.637.4s.255.4.567.4.637.212.724.472c.187.563 1.509.145 1.509-.477 0-.237-.225-.394-.5-.349-1.206.194-3.857-1.951-3.887-3.146-.007-.275-.205-.5-.44-.5-.234 0-.369-.495-.3-1.1l.127-1.1 13-.2c15.657-.241 14.8.013 14.8-4.39 0-1.74-.18-3.274-.4-3.41s-.4-.946-.4-1.8c0-.944-.47-2.458-1.2-3.865-.66-1.272-1.2-2.451-1.2-2.619 0-.65-5.091-6.316-5.675-6.316-.197 0-.745-.36-1.217-.8-.594-.553-1.412-.8-2.652-.8-1.077 0-2.073-.254-2.496-.636-1.174-1.063-6.577-1.183-8.56-.191m56.7-.36c-.496.199-1.202.246-1.57.105-.507-.195-.607-.094-.412.413.219.569-.035.669-1.707.669-1.08 0-2.063.16-2.184.356s-.716.479-1.323.629c-1.294.321-2.904 1.714-2.904 2.512 0 .384-.261.474-.839.29-.707-.224-.799-.138-.584.54.14.443.065.923-.167 1.067-.233.144-.319.429-.193.634.127.204.044.372-.183.372-.542 0-1.621 2.108-1.68 3.28-.035.678-.095.736-.23.22-.272-1.041-.924-.846-.924.276 0 .537-.157 1.074-.348 1.192-1.146.708-1.277 14.699-.15 15.944.357.395.703 1.026.77 1.403s.234 1.371.372 2.21c.18 1.103.408 1.464.823 1.304.323-.123.466-.045.328.179-.245.397.924 2.184 1.512 2.313.169.037.824.655 1.455 1.373 1.188 1.351 4.775 3.506 5.835 3.506.332 0 .603.159.603.354 0 1.441 18.386 2.62 19.739 1.267.232-.232.935-.421 1.563-.421 1.271 0 4.334-1.276 4.993-2.08.504-.614.617-3.044.553-11.82-.073-9.931-.811-8.204-.94 2.2-.107 8.59-.119 8.705-1.008 9.095-.495.217-.9.532-.9.7s-.619.305-1.376.305-1.472.155-1.589.343c-.786 1.272-19.435 1.289-19.435.018 0-.198-.45-.361-1-.361s-1-.159-1-.353c0-.195-.315-.454-.7-.576-2.222-.704-6.808-4.919-7.702-7.077-.272-.657-.653-1.194-.847-1.194s-.351-.45-.351-1-.162-1-.36-1c-.533 0-.918-3.274-.918-7.8s.385-7.8.918-7.8c.198 0 .36-.287.36-.638s.321-1.116.714-1.7.964-1.557 1.268-2.162c1.666-3.312 6.484-7.1 9.03-7.1.763 0 1.388-.18 1.388-.4 0-.246 2-.4 5.2-.4 4.119 0 5.2-.113 5.2-.544 0-.93-7.132-1.434-9.1-.643m51.9 14.387c0 8 .142 12.4.4 12.4.22 0 .4.885.4 1.967 0 1.081.142 2.026.314 2.1.173.073.718.707 1.21 1.409 2.566 3.655 10.955 3.422 13.193-.367.361-.61.797-1.109.969-1.109.173 0 .314-6.387.314-14.192v-14.193l.9-.225c.495-.123 2.61-.172 4.7-.107l3.8.117.105 14.375c.068 9.312-.037 14.517-.3 14.78-.223.223-.405.646-.405.941 0 .999-2.713 4.571-4.261 5.61-.846.568-1.629 1.137-1.739 1.264-.409.471-2.01 1.23-2.595 1.23-.333 0-.605.158-.605.352 0 1.17-12.462 1.226-15.4.07-1.904-.749-3.252-1.469-3.975-2.122-.427-.385-1.012-.7-1.3-.7s-.525-.254-.525-.564c0-.311-.495-.988-1.1-1.504-1.137-.971-1.663-1.909-2.445-4.36-.495-1.553-.67-28.823-.188-29.305.146-.147 2.126-.267 4.4-.267h4.133zm-314-8c0 .44.18.8.4.8s.4-.36.4-.8-.18-.8-.4-.8-.4.36-.4.8m285.32 2.8c0 1.21.075 1.705.167 1.1a9 9 0 0 0 0-2.2c-.092-.605-.167-.11-.167 1.1m-228.689.722c-3.613.186-7.902 3.765-8.417 7.023-.561 3.546-.679 7.15-.249 7.58.239.239.435.956.435 1.593 0 5.073 9.279 8.993 16.507 6.973l1.106-.31-.106-10.43-.107-10.43-1.629-.914c-1.753-.985-3.792-1.278-7.54-1.085m58.969.001c-1.21.068-2.371.293-2.58.5s-.717.377-1.129.377c-1.796 0-1.891.559-1.891 11.181v10.039l1.1.446c2.307.936 6.086 1.451 7.814 1.065 2.954-.659 4.686-1.249 4.686-1.595 0-.185.225-.336.5-.336.663-.001 2.7-1.771 2.7-2.347 0-.249.18-.453.4-.453s.4-.349.4-.776.18-.888.4-1.024.4-.856.4-1.6.18-1.464.4-1.6.4-1.137.4-2.224-.18-1.976-.4-1.976-.4-.9-.4-2-.18-2-.4-2-.4-.284-.4-.631c0-2.89-5.934-5.385-12-5.046m150 .002c-.99.069-1.971.294-2.18.5s-.612.375-.895.375c-.943 0-4.525 3.275-4.525 4.137 0 .339-.18.727-.4.863s-.379 1.182-.354 2.324.128 1.716.228 1.276c.099-.44.438-1.367.753-2.06s.579-1.414.586-1.6c.045-1.15 3.875-4.14 5.301-4.14.571 0 1.15-.18 1.286-.4s1.126-.4 2.2-.4 2.064.18 2.2.4.846.4 1.577.4c.903 0 1.411.224 1.583.7.139.385.503 1.129.809 1.652.374.639.516 1.891.433 3.8-.068 1.567-.167 5.503-.218 8.748l-.095 5.9h-4.55c-2.502 0-4.907-.18-5.344-.4s-1.173-.592-1.634-.828c-.461-.235-.933-.334-1.048-.219-.372.373 1.007 1.447 1.858 1.447.456 0 .829.18.829.4s.528.4 1.174.4 1.609.166 2.142.368c1.203.458 7.074-.307 7.784-1.013.373-.372.5-3.03.5-10.497v-9.999l-2.1-.995c-2.125-1.007-4.62-1.367-7.9-1.139m-60.368.933c-1.655.97-4.832 4.261-4.832 5.006 0 .432 1.708.536 8.8.536 9.795 0 9.509.097 7.957-2.688-1.157-2.076-1.46-2.405-2.861-3.104-1.862-.929-7.307-.779-9.064.25m-143.815.369c.145.235.511.333.812.217.301-.115.81.052 1.131.373s.866.583 1.211.583c.555 0 .629 1.176.629 10v10h-5.005c-3.291 0-5.293-.171-5.845-.5-1.432-.854-4.35-3.84-4.35-4.452 0-.32-.203-.649-.451-.732-.603-.201-.588-9.437.017-10.042.239-.239.434-.769.434-1.178s.181-.631.403-.494c.412.254 1.59-.68 1.606-1.273.026-.958 1.531-2.181 2.725-2.215.712-.02 1.389-.189 1.504-.375.305-.494 4.867-.416 5.179.088M162.6 260c.136.22.689.4 1.229.4 1.602 0 3.76 1.433 3.47 2.304-.091.273.06.496.336.496 1.219 0 1.965 1.314 1.965 3.462 0 1.634.142 2.138.6 2.138 1.298 0 .168 5.632-1.457 7.257-.409.409-.743 1.063-.743 1.454 0 .726-1.078 1.871-1.8 1.912-.837.048-2.6.975-2.6 1.367 0 .752-8.669.528-8.961-.232-.135-.352-.469-.555-.742-.45-.389.149-.472-1.709-.382-8.515l.114-8.705 1.189-1.244c.654-.684 1.537-1.244 1.962-1.244s.884-.18 1.02-.4 1.216-.4 2.4-.4 2.264.18 2.4.4m92.854.198c.769.401.916.598.446.6-.385.001-.7.182-.7.402s.382.4.849.4c.728 0 .774.09.326.63-.53.639-.073 1.267 1.025 1.41 1.721.224-3.85.716-8.2.724-5.298.009-5.383-.004-4.517-.728.486-.405.771-.849.633-.986-.137-.138-.052-.25.189-.25s.676-.225.966-.5c.291-.275 1.069-.746 1.729-1.046s1.47-.695 1.8-.877c.995-.547 4.233-.417 5.454.221m71.374 7.102c-.015.605.152 1.1.372 1.1.469 0 .469-.307 0-1.4-.305-.709-.347-.675-.372.3m-28.028 3.1c0 .66.18 1.2.4 1.2s.4-.54.4-1.2-.18-1.2-.4-1.2-.4.54-.4 1.2m.8 3.714c0 .817.18 1.486.4 1.486s.4.45.4 1 .18 1 .4 1 .4.205.4.456c0 .46 1.155 1.508 1.687 1.531.309.014-.069-1.256-.472-1.587-.134-.11-.822-1.364-1.529-2.786l-1.286-2.586zm-194 6.286c0 .22.36.4.8.4s.8-.18.8-.4-.36-.4-.8-.4-.8.18-.8.4"/></g></svg>