<svg xmlns="http://www.w3.org/2000/svg" width="400" height="400"><g fill-rule="evenodd"><path fill="#d65124" d="m173 95-1 8c1 8 1 7-7 7s-8 0-8 3c0 2 1 2 8 2l7 1v7c0 8 1 8 3 8s2 0 2-8v-7l8-1c7 0 7 0 7-2 0-3 0-3-7-3-9 0-8 1-8-8v-7h-4m30 26v9c0 10 1 9-9 9-8 0-8 0-8 3s0 3 9 3h8v17l3 1c3 0 3 0 3-10 0-9-1-8 9-8 8 0 8 0 8-3s0-3-8-3c-10 0-9 1-9-9 0-9 0-9-3-9h-3m-30 31-1 9v7h-7l-8 1v1c0 3 0 3 8 3h7v8c0 8 0 9 3 9 2 0 2 0 2-9s-1-8 8-8c8 0 8 0 8-2 0-3 0-3-8-3s-8 1-8-8v-8h-4"/><path fill="#6ba2b4" d="M205 88c0 6 0 6-5 6l-5 1c-1 1 0 2 5 2s5-1 5 5v5h1c1 1 1 1 1-5 1-6 0-5 5-5l6-2-5-1c-6 0-5 0-5-5s-1-6-2-6h-1zm30 7-1 8v7h-7l-7 1v4h7l7 1v7c0 8 0 8 3 8s3 1 3-8-1-8 8-8c7 0 7 0 7-2s0-3-8-3h-7V95l-2-1-3 1m17 33-1 6c0 6 1 6-5 6h-5v1c0 3 1 3 6 3h4v5c0 6 0 7 3 7l2-1v-4c0-7 0-7 5-7s6 0 6-2-1-2-5-2c-6 0-6 0-6-6v-6h-4m4 6v6h10v1c1 2 0 3-5 3s-5-1-5 6v5h-4v-5c0-6 0-6-6-6l-4-1v-3h4c6 0 6 0 6-6v-5h4zm-100-4v5c0 5 0 5-6 5-4 0-5 0-4 2l4 1c6 0 6 0 6 6 0 5 0 6 2 5l1-5c0-6 0-6 5-6h5v-1c0-1-1-2-3-2h-7v-10h-3m78 22v16h-7l-7 1-1 4 1-2v-2l7-1h7v-7c0-9 0-9 4-9h2v16h8l7 1v4-4l-7-1c-8 0-8 1-8-8v-8h-6m-1 21 1 8c0 8 0 9 2 9l-1-1-1-8v-8h-1m7 8c0 8 0 8-2 9-1 0-1 0 0 0 2 0 2 0 2-9l1-8-1 8m-36-6v6l-1 5h-4c-6 0-6 0-6 2 1 3 1 3 6 3h5v11h4v-5c0-6 0-6 6-6h4l1-2c0-3 0-3-5-3-6 0-6 0-6-6v-5h-4m4 6v5h5l5 1v3h-5l-5 1v10h-4v-11h-5c-5 0-6 0-5-3l5-1h5v-5c0-6 0-6 2-6h2zm-6 42-1 1v73h9c0-1 0-1 0 0h-8v-73h8v10-5l-1-6h-7m-58 8v1l4-1h4v10c0 11 0 11 2 10h1-3v-20h-8m0 29v28l3 1 2 1h3l-2-1a72 72 0 0 0-3-1c-3 0-3 1-3-28v-27zM32 234v12l-1 11H21c-13 0-12 0-12 4 0 5-1 4 12 5h10l1 12v13l1-1-1-12v-12l-10-1c-13 0-12 0-12-4s-1-3 11-3l11-1v-11c0-13 0-12 4-12 5 0 4-1 4 12l1 11 10 1c13 0 12-1 12 3s1 4-12 4H41l-1 13a54 54 0 0 1 0 13l1-13v-12h11l11-1v-7l-11-1-11-1v-11l-1-11h-8m178 28v14-28 14m1-12v1a29 29 0 0 0 0-3v2m-102 0-1 1h-2 3l8-1 1 1c0-2-7-2-9-1m210 0-1 1h1l7-1v37l-4 2-1 1h1l1-1h2l1-1 1-9v-9l1-1-1-1v-1c0-1 0-1 0 0h1l-1-2c0-1 0-1 0 0v-15h-8m-225 0 6 1 5-1H94m62 0 6 1 6-1h-12m90 0 6 1 5-1h-11m57 0 6 1 5-1h-11m-213 2c-3 1-7 6-7 7l1-2 7-5 1-1-2 1m80 0c4 1 7 6 9 10l1 2v-3l-1-1-1-1-1-1-6-6v-1h-2l1 1m73-1-1 1c-1 0 0 0 0 0h-1l-6 8-1 1-2 6v8l2 4v-1c-4-10 1-22 9-26l2-1h-2m17 1c4 2 7 5 9 11l1 2v-2l-1-1v-1l-1-1v-1l-2-2c-1-2-5-6-7-6l1 1m39 0-3 2 3-2 2-1-2 1m17-1h1-2 1m32 0v29c1 3 1 4 3 5l1 1-1-1c-3-3-3-5-3-20a55 55 0 0 1 1-14h-1m26 0-1 13v13l1-13a80 80 0 0 1 0-13m8 0a151 151 0 0 1 0 30v-1a217 217 0 0 0 0-29m-26 13v5a308 308 0 0 0 0-11v6m-62-8a21 21 0 0 0-1 2 43 43 0 0 1-2 2v2h-1v2c0 1 0 1 0 0l5-8v-1l-1 1m-195 2-3 1-5 5 1-2c4-4 10-5 14-2l2 1v21h-1c-6 2-12 0-15-5h-1l5 5h13v-21l-2-1-4-2h-4m59 0-4 2 1-1h10l5 5 1 2v2l1 2-1 3v1l-1 2v2h-1l-3 2v1l-4 1-2 1 3-1c12-2 12-22 0-24h-5m149 0-2 2 1-1c1-1 8 0 9 1l3 1-5-3h-6m-57 0c-3 1-8 5-8 7l9 1h10v-1c0-5-6-8-11-7m7 1 3 4c1 2 1 2-8 2-10 0-10 0-7-3s8-4 12-3m-105 1v21l2 1 3 1h2l-2-1-3-1h-2v-10l1-11h-1m150 1-1 2 1-1 1-2h1l-2 1m-220 1-1 2v1l-1 5 1 6v1l2 3-1-3c-2-5-2-9 0-13v-2m218 2v1-1c0-1 0 0 0 0m-210 1v2l1-2v-1zm91 5v4-8 4m108-3a34 34 0 0 0 2 13l1 1 5 6-2-2c-4-5-6-11-5-17 0-2 0-3-1-1m10 1v6l1-1-1-1v-3l1-1h-1m-29 1c0 3 1 3-14 3s-16 0-14 2v-2h14c15 0 15 0 14-2v-1m-180 5 1 1-1-2v1m152 1c0 4 7 8 13 8h3-3l-4-1h-3v-1h-1v-1h-2v-1l-1-1-1-2-1-1m58 1v1-2 1m-120 1-3 7c-1 1-1 1 0 0l1-2 1-1 1-5v1m177 0c0 3 3 7 4 6 1 0 0 0 0 0l-2-2-1-1-1-2v-2 1m-56 1c1 2 6 5 8 5s1-1-1-1h-2v-1l-2-2h-1v1l-2-2m-67 2c0 2 8 9 10 9l1 1 4 1c1 0 1-1-1-1a22 22 0 0 1-11-6l-2-3-1-1m32 0-1 1h-3l-2 1-1 1 7-2c1-1 2 0 2 3s0 4-3 5l-2 1h2l1-1c1 0 0 0 0 0l1-1c2-1 2-8 0-8h-1m106 1-2 2h-1l3-2 1-1-1 1m-289 0 2 3 2 2 3 2 1 1h1l1 1h2l-1-1c-5-2-9-5-10-7l-1-1m234 1h-3l-1 1 5-1v-1l-1 1m61 4-4 3-2 1h1v-1l3-1 2-1 2-3-2 2m-204 0-8 4c-1 0-1 0 0 0h2l1-1h1l1-1 2-1 1-1 2-1-2 1m178 0v1l1 1 2 1 2 1h1l-1-1-1-1-4-2m-54 2h2v1h1l1 1h2l-2-1a79 79 0 0 1-3-2h-2zm-182 0-2 1-2 1h1l2-1h1l1-1h1-2m-19 2h11-11m56 0h11-11m107 0-1 1h1l2-1h-2m47 0h10-10m55 0h6-6m-327 1h3-3m175 2v1-2 1"/><path fill="#042a92" d="M235 153v7c0 10 1 9-8 9h-7v4h15v16h4v-8c0-9-1-8 8-8h7v-4h-7c-9 0-8 1-8-9v-7h-4m-33 107v37h7v-73h-7zm-58-28a443 443 0 0 0 2 55c9 4 22 3 27-1a56 56 0 0 1 2-2l4-7 1-1-1-12c-1-5-5-10-9-12h-16c-3 1-3 1-3-11v-9h-7M33 246l-1 12H10v6h11l11 1 1 13v12h7v-25l11-1h11v-6H41l-1-1v-11c0-13 0-12-4-12h-3zm77 5-1 1H92c-5 2-9 7-9 9v1c-2 5-2 15 1 20 4 7 18 10 29 7l4-2v-36h-7m209 1h-3l-8-1h-6l-3 2-3 2-1 2c-6 6-6 21 1 28 5 5 16 6 26 4l3-2 1-8v-28h-3l-4 1m-76 1c-5 2-9 9-9 13l-1 3c-1 4 2 14 5 15l2 1 9 5c5 1 10 0 15-2l3-1v-2c0-4 0-4-2-3-9 4-23 0-23-6l-1-2 1-2 13-1h14v-7c-2-8-8-13-17-13h-7zm106-1v29c4 9 20 12 29 4l2-1 1-4 1-15v-14h-8v13l-1 17c-3 4-10 5-14 2-3-2-3-4-3-21v-10h-7m-244 6 3 1 1 1 1 10c0 14 0 13-8 13-6 0-11-2-12-7v-12l1-1c2-4 10-7 14-5m58 0c12 2 13 21 1 25-4 1-11 0-12-2v-21l8-3 3 1m94 1c3 1 5 5 4 7h-19v-1l2-3c4-5 9-6 13-3m59 0c3 1 3 1 3 13l-1 10-1 1h-11c-3-1-6-4-7-8-4-12 7-22 17-16"/><path fill="#456eab" d="M252 134c0 6 0 6-6 6h-4v3l4 1c6 0 6 0 6 6v5h4v-5c0-7 0-6 5-6s6-1 5-3v-1h-10v-11h-4zm-17 19-1 8v7h-7l-7 1v4h14v8c0 9 1 9 4 9 2-1 2-1 2-9v-8h7c8 0 8 0 8-2 0-3 1-2-7-3h-8v-16h-2l-3 1m4 0v7c0 10-1 9 8 9h7v4h-7c-9 0-8-1-8 8v8h-4v-16h-15v-4h7c9 0 8 1 8-9v-7h4m-35 22v11h-5l-5 1c-1 3 0 3 5 3h5v11h4v-10l5-1h5v-3l-5-1h-5v-11h-4m-2 49v73h8a6062 6062 0 0 0-1-36v36h-7v-73h8-8m-58 8c0 1 0 1 0 0h7v9c0 12 0 12 3 11h16c4 2 8 7 9 12l1 12-1 1-4 7a56 56 0 0 0-2 2c-5 4-18 5-27 1l-1-12a2431 2431 0 0 0 2 14l4 1c8 2 21-1 26-7 4-6 5-16 2-22-5-9-11-12-22-10h-4l-1-10v-10h-4l-4 1m-112 3v22l-11 1c-12 0-11-1-11 3s-1 4 12 4l10 1v12c0 14 0 13 4 13 5 0 4 1 4-13l1-13h10c13 0 12 0 12-4s1-3-12-3l-10-1-1-11c0-13 1-12-4-12l-4 1m7 0 1 11v11l1 1h21v6H51l-11 1v25h-7v-12l-1-13-11-1H10v-6h22l1-12v-12h3l3 1m70 15v1H92c-4 2-9 7-9 9l-1 4c-3 7 0 17 5 21s10 6 18 5a2458 2458 0 0 1 11-2l2-1v-18l-1-19h-8m210 1-1 1-2-1h-14l-3 1c-9 5-12 19-7 29 3 4 9 8 13 9 5 1 15 0 16-1h1l4-2v-37l-7 1m-202 0v36c-1 1-8 3-14 3-7 0-11-1-15-5-4-2-4-3-6-9-1-4-1-11 1-14v-1c0-2 4-7 9-9h17l1-1h7m130 0c-13 1-20 24-10 33a41 41 0 0 1 2 2c5 5 18 6 26 3 3-1 3-2 3-5 0-4-1-4-3-3-5 2-13 3-17 1-3-2-5-4-6-8-1-2-2-2 14-2 15 0 14 0 14-4 0-6-5-14-10-16-2-1-9-2-13-1m79 9a966 966 0 0 1 0 19l-1 8-3 2c-10 2-21 1-26-4-7-7-7-22-1-28l1-2 3-2 3-2h6l8 1h3l4-1h3zm23-9-1 29c1 4 5 8 9 9l1 1h13l3-1c8-5 8-5 8-24 0-16 1-14-4-14s-4-1-4 15l-1 13-1 2c-1 2-3 3-7 3-8 0-9-2-9-21a168 168 0 0 0 0 13c0 6 5 10 11 8 7-1 7-2 7-20v-13h8v14l-1 15-1 4-2 1c-9 8-25 5-29-4v-30h6-7m-88 1c4 2 8 8 9 12v7a2113 2113 0 0 1-27 1l-1 2 1 2c0 6 14 10 23 6 2-1 2-1 2 3v2l-3 1c-5 2-10 3-15 2l-9-5-2-1c-3-1-6-11-5-15l1-3c0-4 4-11 9-13l2-2h7l8 1m-162 6c-2 0-6 3-7 5l-1 1v12c1 5 6 7 12 7 8 0 8 1 8-13l-1-10-1-1c-4-2-6-2-10-1m60-1c-7 1-7 2-7 14s0 12 8 12c10 1 15-5 13-16 0-5-4-8-9-9l-5-1m92 1c-3 0-9 5-8 7v1h9c11 0 11 0 10-2-1-4-6-7-11-6m57 0c-10 2-12 17-4 23 2 2 11 3 14 2l1-1 1-10v-11c-1-2-8-4-12-3m-204 0 4 2 2 1v21h-2c-10 3-17-2-17-12 0-6 3-11 6-11l3-1h4m60 0c12 2 12 22 0 24h-10l-1-1v-21l9-2h2m150 0 3 1 2 1v22h-2c-7 3-18-2-16-7l-1-1v-8c0-3 8-9 11-8h3m-56 1c2 1 4 4 4 6v1h-10c-9 0-9 0-9-2 3-5 11-7 15-5"/><path fill="#b3b8a5" d="m204 82-1 5v5h-5c-5 1-6 1-6 4-1 2 0 2 6 2h5v5c0 6 0 6 3 6s3 1 3-6v-5h9c2 0 2-1 1-4 0-2 0-2-6-2h-4v-5c0-5 0-6-2-6l-3 1m3 2 1 5c0 5-1 5 5 5l5 1-6 2c-5 0-4-1-5 5 0 6 0 6-1 5h-1v-5c0-6 0-5-5-5s-6-1-5-2l5-1c5 0 5 0 5-6v-5h1l1 1m-36 9a10 10 0 0 1-1 1v7l1 7h-8l-7 1-1 7 1 1h7l7 1v11c0 3 1 4 5 4s4 0 4-8-1-8 7-8h7l1-1c2-4 0-10-2-8h-13V94l-1-1-3-1-4 1m62 0v15h-8c-7 0-7 0-7 5-1 4-1 4 8 4h7v8c0 8 0 7 4 8 5 0 5 0 5-9 0-7-1-7 8-7 7 0 6 0 6-4 1-5 1-5-7-5h-7V95l-1-2h-8m-56 2v7c0 9-1 8 8 8 7 0 7 0 7 3 0 2 0 2-7 2l-8 1v7c0 8 0 8-2 8s-3 0-3-8v-7l-7-1c-7 0-8 0-8-2 0-3 0-3 8-3s8 1 7-7c0-8 1-9 3-9l2 1m63 7v8h7c8 0 8 1 8 3s0 2-7 2c-9 0-8-1-8 8s0 8-3 8-3 0-3-8v-7l-7-1h-7v-4l7-1h7v-7c1-9 1-9 4-9l2 1zm-38 18-1 9v8h-8c-9 0-9 0-9 5s0 5 9 5h8v8c0 10 0 10 6 10 4 0 5-2 4-5v-12c1-1 11-2 13-1 1 1 4 0 4-2v-6l-1-2h-8l-8-1a54 54 0 0 1 0-14v-1c0-2-8-3-9-1m7 2v8c0 10-1 9 9 9 8 0 8 0 8 3s0 3-8 3c-10 0-9-1-9 8 0 10 0 10-3 10l-3-1v-17h-8c-9 0-9 0-9-3s0-3 8-3c10 0 9 1 9-9v-9h6m42 6-1 6v6h-5c-6 0-5 0-5 3 0 4 0 4 6 4h4v5c0 6 0 6 4 6s4 0 4-6v-5h5c5 0 5 0 5-4 0-3 0-3-5-3h-5v-6c0-6 0-6-4-6h-3m-96 1c-1 0-2 3-1 4v3c0 4 0 4-5 4-5-1-6 0-5 4 0 2 1 2 6 2h4v5c0 6 0 6 3 6s3 0 3-6v-5h5c5 0 6 0 6-3s0-3-6-3h-4l-1-5v-6h-5m101 0v6c0 6 0 6 6 6 4 0 5 0 5 2s-1 2-6 2-5 0-5 7v4l-2 1c-3 0-3-1-3-7v-5h-4c-5 0-6 0-6-3v-1h5c5 0 5 0 5-6l1-6h4m-97 7v5h7c2 0 3 1 3 2v1h-5c-5 0-5 0-5 6 0 5-1 6-3 5v-5c0-6 0-6-6-6l-4-1c-1-2 0-2 4-2 6 0 6 0 6-5l1-5h2zm12 15v17h-8c-8 0-8 0-8 4 0 3 0 3 8 3h8v8c0 9-1 9 4 9 4 0 4 1 4-9l1-8h14v-7h-15v-8l-1-8-7-1m63 0-1 9v8h-15v7h1a263 263 0 0 0 13 1h1v14c-2 2-1 2 2 2h4c1 1 1 0 2-1l1-1v-7c-1-9-2-8 7-8h7v-3c1-5 1-4-7-4h-8v-2c2-13 1-15-4-15h-3m6 10c0 9 0 8 8 8s8 0 8 3l-1 2h-7l-7 1-1 7c0 9 1 9-3 9-3 0-3 0-3-9s1-8-8-8c-7 0-7 0-7-3 1-2 0-2 8-2h7v-8c0-9 0-8 4-8h2zm-63 0c0 9 0 8 8 8s8 0 8 3c0 2 0 2-8 2-9 0-8-1-8 8s0 9-2 9c-3 0-3-1-3-9v-8h-7c-8 0-8 0-8-3v-1l8-1h7v-7c0-9 0-9 3-9h2zm26 14-1 6v4h-5l-4 1-1 1 1 6h9v10l1 1h6v-11h10v-7l-5-1h-5v-10h-6m5 6c0 6 0 6 6 6 5 0 5 0 5 3l-1 2h-4c-6 0-6 0-6 6v5h-4v-11h-5c-5 0-5 0-6-3 0-2 0-2 6-2h4l1-5c0-7 0-6 2-6h2zm-8 42a32907 32907 0 0 0 0 76h11a534 534 0 0 0 1-75l-1-1h-11m9 1 1 74h-9v-73l1-1h7m-61 6c-6 1-6-3-5 30a7970 7970 0 0 1 1 30l4 2h20s0-1 0 0l4-2 1-1 6-5 1-1v-2l1-1v-1l1-1v-14h-1v-2l-1-1-1-2-1-3-2-2h-1l-1-1-1-1-2-1-3-1h-10l-4 1h-1l1-7v-13l-2-1h-4m4 2v20h2l2-1h12l1 1h2v1l6 6 1 1 1 1c0 1 0 0 0 0l1 1v1c2 3 1 12 0 17l-1 2-1 1-4 4-1 1-2 1-1 1h-1l-1 1a48 48 0 0 1-23-1 57 57 0 0 0-1-1v-57h8m-121 2-1 2v11l1 10H8v5c0 6-1 6 12 6h11v10l-1 12c0 3 1 3 6 3 7 0 6 2 6-13v-12h10l12-1v-10c0-2-4-2-4-1l1 1h2-21v-22h1c0-2-11-3-12-1m9 1 1 11v12h11l11 1v7l-11 1H41v12l-1 13h-8v-13l-1-12H21c-13-1-12 0-12-5 0-4-1-4 12-4h10l1-11v-12h8m77 14h-11l-12 1-2 1-4 2h-2c0 1 0 1 0 0l-1 1-1 1v1l-1 2-2 2c-1 1 0 0 0 0v2l-1 4-1 4v3c1 5 1 4 1-2l1-5v-1l1-3 1-2c0-2 7-8 10-8l1-1h11l1 1h2l1-1 4-1c5 0 5-2 5 20v19h-1l-1 1h-1l-2 1a50 50 0 0 1-21-1h-1l-1-1-3-2-2-2-2-3-1-2-1-2v-1l-1 1 1 2 1 3 3 4 1 1 4 2 2 1 2 1h1l3 1h4a38 38 0 0 0 15-3c2 0 2-1 2-21l-1-20h-1m210 0h-5l-5 1-2 1h-1l1 1h3c0-4 9-2 10 1 0 1 0 1 0 0v-4h-1m29 1c0 1-5 2-7 0-3-1-3-1-3 4v16l1 12 2 4 1 1 1 1 7 4h15l1-1 2-1 1-1 5-5 1-1v-1l1-13v-15l-1-3h-11v14l-1 17h-2l-2 1h-5a10 10 0 0 0-1 0l-1-1-1-1c-1-2-2-10-1-25l-1-4v-2h-1m-108 0-4 1-6 4c-2 2-3 2-4 5l-1 2c-2 0-2 15-1 17l1 3 1 2 2 2h1v1l1 1h1a21 21 0 0 0 7 4l2 1h14c3-1 6-2 7-4v-9c-1-1-5 0-5 1h-2c-2 0-3 1-1 1h-4l-1 1h-4l-2-1-2 1h14l1-1h2l1-1c1 0 0 0 0 0h1c2 0 2 7 0 8l-1 1-1 1h-20l-1-1-6-4-4-6a206 206 0 0 0-1-2l-1-2v-8l2-6 1-1a26 26 0 0 1 7-8s1-1 1-1h2l1-1h11l1 1c2 0 7 3 8 6l2 2v1l1 1v1l1 1v9h-28v1l2 5 1 1v1h2v1l2-1h-1l-4-3v-3h13c15 0 15 0 15-4l-1-4v-2l-1-3-2-3-5-6-1-1-3-1-3-1h-8m57 0h-2c-1 0-1 0 0 0l-2 1h-2l-2 1-3 2v1h-1v2h-1l-1 4h-1l-1 1v16l1 2v2l1 1s1 0 0 0l2 3 1 1 6 4h1c0 1 18 3 20 1h1l5-2 1-12c0-10-1-8-1 2l-1 9-1 1h-2l-1 1a50 50 0 0 1-21-1h-1v-1c-3 0-7-5-8-7l-1-1v-1l-1-1v-16h1l1-2 1-2c1-3 6-7 9-7l1-1h5l6-1h-9m51 14a76 76 0 0 0 2 17l1 1c2 4 11 3 13 0l1-1v-29h10v14a112 112 0 0 1-1 16l-4 6-2 1-3 1v1h-16l-4-3h-1v-1l-2-1-2-5v-29h8zm-314-8 1 1v-2l-1 1m286 3v1a9 9 0 0 0 0-2v1m-229 1c-4 0-8 3-8 7l-1 7 1 2c0 5 9 9 16 7h1v-21l-1-1-8-1m59 0h-3l-1 1c-2 0-2 0-2 11v10h2c2 1 6 2 7 1l5-1 1-1 2-2h1v-2l1-2v-1l1-3-1-2v-2l-1-2c-1 0 0 0 0 0 0-3-6-6-12-5m150 0h-2l-1 1-5 4v4l1-2v-1c0-2 4-5 6-5h7l1 1 1 2 1 4-1 8v6h-10l-1-1h-1l2 1v1h4c1 1 7 0 8-1v-20l-2-1c-2-1-5-2-8-1m-60 1-5 5h9c9 0 9 0 8-2l-3-4c-2-1-8 0-9 1m-144 0h1l1 1h1l1 10v10H97l-5-5v-12h1l1-1 3-3h7m59 0h1c1 0 4 2 3 3h1l2 4v2l-1 7-1 2-2 1-2 2h-9l-1-1v-17l1-1 2-2h6m92 0 1 1h-1l1 1c1 0 1 0 0 0l1 2h-12v-1l1-1c1 0 0 0 0 0l2-1 2-1h5m72 7v1-1c0-1 0-1 0 0m-28 3v2l1-2-1-1v1m1 4v3l1 1 2 2-1-2-1-3-1-2zm-194 6v1l1-1h-1c-1 0 0 0 0 0"/></g></svg>